<svg class="text" version="1.1" id="Layer_1" xmlns="http://www.w3.org/2000/svg" xmlns:xlink="http://www.w3.org/1999/xlink" x="0px" y="0px"
	 viewBox="0 0 700 250" style="enable-background:new 0 0 700 250;" xml:space="preserve">
<style type="text/css">
       .text .st0 {
  fill: rgba(207, 1, 1, 0.479);
  transition: all 0.5s ease;
}

.text .st0, .st1, .st2, .st3, .st4, .st5, .st6, .st7, .st8, .st9, .st10, .st11, .st12, .st13, .st14, .st15, .st16, .st17, .st18, .st19, .st20, .st21, .st22, .st23, .st24, .st25, .st26, .st27, .st28, .st29, .st30, .st31, .st32, .st33, .st34, .st35, .st36, .st37, .st38, .st39, .st40, .st41, .st42, .st43, .st44, .st45 {
  stroke: #1d1d1d;
  stroke-width: 2;
  stroke-dasharray: 1600;
  opacity: 10;
  fill: #1d1d1d;
}
	.st0{enable-background:new    ;}
	.st1{fill:#a21506;}
	.st2{clip-path:url(#SVGID_2_);enable-background:new    ;}
	.st3{fill:#a21506;}
	.st4{fill:#a21506;}
	.st5{fill:#a21506;}
	.st6{clip-path:url(#SVGID_4_);enable-background:new    ;}
	.st7{fill:#850000;}
	.st8{clip-path:url(#SVGID_6_);enable-background:new    ;}
	.st9{fill:#D20000;}
	.st10{fill:#a21506;}
	.st11{clip-path:url(#SVGID_8_);enable-background:new    ;}
	.st12{fill:#940000;}
	.st13{clip-path:url(#SVGID_10_);enable-background:new    ;}
	.st14{clip-path:url(#SVGID_12_);enable-background:new    ;}
	.st15{clip-path:url(#SVGID_14_);enable-background:new    ;}
	.st16{clip-path:url(#SVGID_16_);enable-background:new    ;}
	.st17{fill:#9E0000;}
	.st18{fill:#930000;}
	.st19{clip-path:url(#SVGID_18_);enable-background:new    ;}
	.st20{fill:#8E0000;}
	.st21{clip-path:url(#SVGID_20_);enable-background:new    ;}
	.st22{clip-path:url(#SVGID_22_);enable-background:new    ;}
	.st23{clip-path:url(#SVGID_24_);enable-background:new    ;}
	.st24{clip-path:url(#SVGID_26_);enable-background:new    ;}
	.st25{clip-path:url(#SVGID_28_);enable-background:new    ;}
	.st26{clip-path:url(#SVGID_30_);enable-background:new    ;}
	.st27{fill:#A00000;}
	.st28{clip-path:url(#SVGID_32_);enable-background:new    ;}
	.st29{clip-path:url(#SVGID_34_);enable-background:new    ;}
	.st30{fill:#C80000;}
	.st31{clip-path:url(#SVGID_36_);enable-background:new    ;}
	.st32{clip-path:url(#SVGID_38_);enable-background:new    ;}
	.st33{clip-path:url(#SVGID_40_);enable-background:new    ;}
</style>
<g id="bothText">
	<g id="smallText">
		<g>
			<g class="st0">
				<g>
					<polygon class="st1" points="55.49,19.87 65.28,23.45 67.44,45.12 57.71,42.29 					"/>
				</g>
				<g class="st0">
					<defs>
						<path id="SVGID_1_" class="st0" d="M74.02,19.81l9.18,3.58c0.38,0.35,0.73,0.66,1.06,0.95c0.33,0.3,0.64,0.57,0.95,0.85
							c0.31,0.28,0.62,0.56,0.95,0.85c0.33,0.3,0.67,0.61,1.06,0.95l-9.04-3.46c-0.4-0.36-0.75-0.68-1.09-0.99
							c-0.34-0.31-0.66-0.59-0.98-0.88c-0.32-0.29-0.64-0.58-0.98-0.88C74.78,20.49,74.42,20.17,74.02,19.81z"/>
					</defs>
					<clipPath id="SVGID_2_">
						<use xlink:href="#SVGID_1_"  style="overflow:visible;"/>
					</clipPath>
					<g class="st2">
						<path class="st3" d="M74.02,19.81l9.18,3.58c0.38,0.35,0.73,0.66,1.06,0.95c0.33,0.3,0.64,0.57,0.95,0.85
							c0.31,0.28,0.62,0.56,0.95,0.85c0.33,0.3,0.67,0.61,1.06,0.95l-9.04-3.46c-0.4-0.36-0.75-0.68-1.09-0.99
							c-0.34-0.31-0.66-0.59-0.98-0.88c-0.32-0.29-0.64-0.58-0.98-0.88C74.78,20.49,74.42,20.17,74.02,19.81"/>
					</g>
				</g>
				<g>
					<polygon class="st4" points="64.42,50.56 73.92,53.11 63.74,53.14 53.89,50.59 					"/>
				</g>
				<g>
					<polygon class="st5" points="70.36,29.66 79.67,32.91 77.94,49.47 68.57,46.8 					"/>
				</g>
				<g class="st0">
					<defs>
						<path id="SVGID_3_" class="st0" d="M68.57,46.8l9.36,2.68c-0.38,0.35-0.73,0.66-1.06,0.96c-0.33,0.3-0.64,0.58-0.95,0.86
							s-0.62,0.56-0.95,0.86c-0.33,0.3-0.68,0.61-1.06,0.96l-9.5-2.55c0.4-0.36,0.76-0.68,1.1-0.99c0.34-0.31,0.66-0.6,0.98-0.89
							c0.32-0.29,0.64-0.58,0.98-0.89C67.82,47.48,68.18,47.16,68.57,46.8z"/>
					</defs>
					<clipPath id="SVGID_4_">
						<use xlink:href="#SVGID_3_"  style="overflow:visible;"/>
					</clipPath>
					<g class="st6">
						<path class="st7" d="M68.57,46.8l9.36,2.68c-0.38,0.35-0.73,0.66-1.06,0.96c-0.33,0.3-0.64,0.58-0.95,0.86
							s-0.62,0.56-0.95,0.86c-0.33,0.3-0.68,0.61-1.06,0.96l-9.5-2.55c0.4-0.36,0.76-0.68,1.1-0.99c0.34-0.31,0.66-0.6,0.98-0.89
							c0.32-0.29,0.64-0.58,0.98-0.89C67.82,47.48,68.18,47.16,68.57,46.8"/>
					</g>
				</g>
				<g>
					<polygon class="st1" points="78.17,23.55 87.21,27.01 89,45.05 80.02,42.22 					"/>
				</g>
				<g>
					<polygon class="st4" points="86.74,50.5 95.5,53.05 85.31,53.08 76.2,50.53 					"/>
				</g>
				<g>
					<polygon class="st5" points="93.7,19.74 102.22,23.33 99.52,49.41 90.9,46.73 					"/>
				</g>
				<g class="st0">
					<defs>
						<path id="SVGID_5_" class="st0" d="M90.9,46.73l8.62,2.68c-0.38,0.35-0.73,0.66-1.06,0.96c-0.33,0.3-0.64,0.58-0.95,0.86
							c-0.31,0.28-0.62,0.56-0.95,0.86s-0.68,0.61-1.06,0.96l-8.76-2.55c0.4-0.36,0.76-0.68,1.1-0.99c0.34-0.31,0.66-0.6,0.98-0.89
							c0.32-0.29,0.64-0.58,0.98-0.89C90.14,47.42,90.5,47.09,90.9,46.73z"/>
					</defs>
					<clipPath id="SVGID_6_">
						<use xlink:href="#SVGID_5_"  style="overflow:visible;"/>
					</clipPath>
					<g class="st8">
						<path class="st7" d="M90.9,46.73l8.62,2.68c-0.38,0.35-0.73,0.66-1.06,0.96c-0.33,0.3-0.64,0.58-0.95,0.86
							c-0.31,0.28-0.62,0.56-0.95,0.86s-0.68,0.61-1.06,0.96l-8.76-2.55c0.4-0.36,0.76-0.68,1.1-0.99c0.34-0.31,0.66-0.6,0.98-0.89
							c0.32-0.29,0.64-0.58,0.98-0.89C90.14,47.42,90.5,47.09,90.9,46.73"/>
					</g>
				</g>
				<g>
					<path class="st9" d="M93.7,19.74l-2.8,26.99c-0.4,0.36-0.76,0.69-1.1,1c-0.34,0.31-0.66,0.6-0.98,0.89
						c-0.32,0.29-0.64,0.58-0.98,0.89c-0.34,0.31-0.7,0.63-1.1,0.99L76.2,50.53c-0.4-0.36-0.75-0.68-1.09-0.98
						c-0.34-0.31-0.66-0.59-0.98-0.88c-0.32-0.29-0.64-0.58-0.98-0.89c-0.34-0.31-0.7-0.63-1.09-0.99l-1.7-17.13L68.57,46.8
						c-0.4,0.36-0.76,0.69-1.1,1c-0.34,0.31-0.66,0.6-0.98,0.89c-0.32,0.29-0.64,0.58-0.98,0.89c-0.34,0.31-0.7,0.63-1.1,0.99
						l-10.53,0.03c-0.4-0.36-0.75-0.68-1.09-0.98c-0.34-0.31-0.66-0.59-0.98-0.88c-0.32-0.29-0.64-0.58-0.98-0.88
						c-0.34-0.31-0.7-0.63-1.09-0.99L47.09,19.9l8.4-0.03l2.23,22.42l2.93-0.01l1.95-18.68c0.4-0.36,0.76-0.69,1.1-0.99
						c0.34-0.31,0.66-0.6,0.98-0.89s0.64-0.58,0.98-0.89s0.7-0.63,1.1-0.99l7.27-0.02c0.4,0.36,0.75,0.68,1.09,0.99
						c0.34,0.31,0.66,0.59,0.98,0.88c0.32,0.29,0.64,0.58,0.98,0.88c0.34,0.31,0.7,0.63,1.09,0.99l1.85,18.67l2.93-0.01l2.34-22.44
						L93.7,19.74z"/>
				</g>
			</g>
			<g class="st0">
				<g>
					<polygon class="st10" points="105.98,28 114.08,31.31 114.08,34.13 105.97,30.92 					"/>
				</g>
				<g>
					<polygon class="st4" points="119.81,27.95 127.46,31.26 114.08,31.31 105.98,28 					"/>
				</g>
				<g>
					<polygon class="st10" points="119.83,19.65 127.47,23.25 127.46,31.26 119.81,27.95 					"/>
				</g>
				<g>
					<polygon class="st10" points="105.95,39.22 114.06,42.15 114.06,44.98 105.95,42.14 					"/>
				</g>
				<g>
					<polygon class="st4" points="119.8,39.17 127.44,42.11 114.06,42.15 105.95,39.22 					"/>
				</g>
				<g>
					<polygon class="st10" points="119.81,30.88 127.45,34.09 127.44,42.11 119.8,39.17 					"/>
				</g>
				<g>
					<polygon class="st9" points="119.83,19.65 119.81,27.95 105.98,28 105.97,30.92 119.81,30.88 119.8,39.17 105.95,39.22 
						105.95,42.14 119.79,42.1 119.78,50.4 97.51,50.47 97.57,19.73 					"/>
				</g>
				<g>
					<polygon class="st10" points="119.79,42.1 127.44,44.94 127.42,52.96 119.78,50.4 					"/>
				</g>
				<g>
					<polygon class="st4" points="119.78,50.4 127.42,52.96 105.9,53.02 97.51,50.47 					"/>
				</g>
			</g>
			<g class="st0">
				<g>
					<polygon class="st4" points="154.94,27.84 161.41,31.16 158.57,31.16 152,27.85 					"/>
				</g>
				<g>
					<polygon class="st5" points="152,27.85 158.57,31.16 157.86,38.01 151.27,34.93 					"/>
				</g>
				<g class="st0">
					<defs>
						<path id="SVGID_7_" class="st0" d="M158.77,19.52l6.34,3.6c0.38,0.35,0.73,0.66,1.06,0.96c0.33,0.3,0.64,0.57,0.95,0.85
							c0.31,0.28,0.62,0.56,0.95,0.85c0.33,0.3,0.67,0.61,1.06,0.96l-6.2-3.47c-0.4-0.36-0.76-0.68-1.1-0.99
							c-0.34-0.31-0.66-0.59-0.98-0.88c-0.32-0.29-0.64-0.58-0.98-0.88C159.52,20.2,159.16,19.88,158.77,19.52z"/>
					</defs>
					<clipPath id="SVGID_8_">
						<use xlink:href="#SVGID_7_"  style="overflow:visible;"/>
					</clipPath>
					<g class="st11">
						<path class="st3" d="M158.77,19.52l6.34,3.6c0.38,0.35,0.73,0.66,1.06,0.96c0.33,0.3,0.64,0.57,0.95,0.85
							c0.31,0.28,0.62,0.56,0.95,0.85c0.33,0.3,0.67,0.61,1.06,0.96l-6.2-3.47c-0.4-0.36-0.76-0.68-1.1-0.99
							c-0.34-0.31-0.66-0.59-0.98-0.88c-0.32-0.29-0.64-0.58-0.98-0.88C159.52,20.2,159.16,19.88,158.77,19.52"/>
					</g>
				</g>
				<g>
					<polygon class="st4" points="156.5,43.21 162.91,46.02 157.04,46.03 150.42,43.23 					"/>
				</g>
				<g>
					<polygon class="st5" points="150.42,43.23 157.04,46.03 156.33,52.88 149.69,50.32 					"/>
				</g>
				<g>
					<polygon class="st4" points="149.69,50.32 156.33,52.88 148.19,52.9 141.26,50.34 					"/>
				</g>
				<g>
					<polygon class="st1" points="162.92,23.27 169.11,26.74 171.75,52.83 165.64,50.27 					"/>
				</g>
				<g>
					<path class="st9" d="M162.92,23.27l2.72,27l-8.44,0.02l-0.71-7.08l-6.08,0.02l-0.73,7.08l-8.43,0.02l2.79-27.01
						c0.4-0.36,0.76-0.69,1.1-1c0.34-0.31,0.66-0.6,0.98-0.89c0.32-0.29,0.64-0.58,0.98-0.89s0.7-0.63,1.1-1l10.56-0.04
						c0.4,0.36,0.76,0.68,1.1,0.99c0.34,0.31,0.66,0.59,0.98,0.88c0.32,0.29,0.64,0.58,0.98,0.88
						C162.16,22.58,162.52,22.91,162.92,23.27z M151.27,34.93l4.39-0.01l-0.72-7.08L152,27.85L151.27,34.93"/>
				</g>
				<g>
					<polygon class="st4" points="165.64,50.27 171.75,52.83 163.59,52.86 157.2,50.29 					"/>
				</g>
			</g>
			<g class="st0">
				<g>
					<polygon class="st12" points="177.88,27.76 183.58,31.08 183.57,33.91 177.88,30.69 					"/>
				</g>
				<g>
					<polygon class="st4" points="185.4,27.74 190.84,31.06 183.58,31.08 177.88,27.76 					"/>
				</g>
				<g class="st0">
					<defs>
						<path id="SVGID_9_" class="st0" d="M189.66,19.42l5.3,3.6c0.4,0.39,0.75,0.75,1.08,1.07c0.33,0.33,0.64,0.64,0.94,0.94
							c0.31,0.31,0.62,0.61,0.95,0.94c0.33,0.33,0.68,0.68,1.08,1.07l-5.16-3.46c-0.41-0.41-0.77-0.77-1.11-1.11
							c-0.34-0.34-0.66-0.66-0.98-0.98c-0.32-0.32-0.64-0.64-0.98-0.98C190.44,20.19,190.07,19.83,189.66,19.42z"/>
					</defs>
					<clipPath id="SVGID_10_">
						<use xlink:href="#SVGID_9_"  style="overflow:visible;"/>
					</clipPath>
					<g class="st13">
						<path class="st3" d="M189.66,19.42l5.3,3.6c0.4,0.39,0.75,0.75,1.08,1.07c0.33,0.33,0.64,0.64,0.94,0.94
							c0.31,0.31,0.62,0.61,0.95,0.94c0.33,0.33,0.68,0.68,1.08,1.07l-5.16-3.46c-0.41-0.41-0.77-0.77-1.11-1.11
							c-0.34-0.34-0.66-0.66-0.98-0.98c-0.32-0.32-0.64-0.64-0.98-0.98C190.44,20.19,190.07,19.83,189.66,19.42"/>
					</g>
				</g>
				<g>
					<polygon class="st4" points="185.39,38.97 190.84,41.92 183.57,41.94 177.87,39 					"/>
				</g>
				<g class="st0">
					<defs>
						<path id="SVGID_11_" class="st0" d="M193.84,30.61l5.16,3.23c-0.4,0.4-0.75,0.75-1.08,1.08c-0.33,0.33-0.64,0.64-0.95,0.95
							s-0.62,0.62-0.95,0.95s-0.68,0.68-1.08,1.08l-5.3-3.09c0.41-0.41,0.77-0.77,1.12-1.11s0.66-0.66,0.98-0.98
							c0.32-0.32,0.64-0.64,0.98-0.98C193.07,31.39,193.43,31.02,193.84,30.61z"/>
					</defs>
					<clipPath id="SVGID_12_">
						<use xlink:href="#SVGID_11_"  style="overflow:visible;"/>
					</clipPath>
					<g class="st14">
						<path class="st7" d="M193.84,30.61l5.16,3.23c-0.4,0.4-0.75,0.75-1.08,1.08c-0.33,0.33-0.64,0.64-0.95,0.95
							s-0.62,0.62-0.95,0.95s-0.68,0.68-1.08,1.08l-5.3-3.09c0.41-0.41,0.77-0.77,1.12-1.11s0.66-0.66,0.98-0.98
							c0.32-0.32,0.64-0.64,0.98-0.98C193.07,31.39,193.43,31.02,193.84,30.61"/>
					</g>
				</g>
				<g>
					<polygon class="st12" points="193.85,23.59 199,27.06 199,33.84 193.84,30.61 					"/>
				</g>
				<g>
					<polygon class="st12" points="177.87,39 183.57,41.94 183.56,52.8 177.86,50.23 					"/>
				</g>
				<g>
					<polygon class="st4" points="177.86,50.23 183.56,52.8 175.4,52.82 169.42,50.26 					"/>
				</g>
				<g class="st0">
					<defs>
						<path id="SVGID_13_" class="st0" d="M189.65,34.8l5.3,3.09c0.4,0.39,0.75,0.75,1.08,1.08c0.33,0.33,0.64,0.64,0.95,0.95
							c0.31,0.31,0.62,0.62,0.95,0.94c0.33,0.33,0.68,0.68,1.08,1.07l-5.16-2.95c-0.41-0.41-0.77-0.77-1.11-1.11
							c-0.34-0.34-0.66-0.66-0.98-0.98c-0.32-0.32-0.64-0.64-0.98-0.98C190.43,35.58,190.06,35.21,189.65,34.8z"/>
					</defs>
					<clipPath id="SVGID_14_">
						<use xlink:href="#SVGID_13_"  style="overflow:visible;"/>
					</clipPath>
					<g class="st15">
						<path class="st3" d="M189.65,34.8l5.3,3.09c0.4,0.39,0.75,0.75,1.08,1.08c0.33,0.33,0.64,0.64,0.95,0.95
							c0.31,0.31,0.62,0.62,0.95,0.94c0.33,0.33,0.68,0.68,1.08,1.07l-5.16-2.95c-0.41-0.41-0.77-0.77-1.11-1.11
							c-0.34-0.34-0.66-0.66-0.98-0.98c-0.32-0.32-0.64-0.64-0.98-0.98C190.43,35.58,190.06,35.21,189.65,34.8"/>
					</g>
				</g>
				<g>
					<polygon class="st4" points="193.83,50.19 198.99,52.76 190.83,52.78 185.39,50.21 					"/>
				</g>
				<g>
					<path class="st9" d="M193.85,23.59l0,7.02c-0.41,0.41-0.77,0.78-1.12,1.12c-0.34,0.34-0.66,0.66-0.98,0.98
						c-0.32,0.32-0.64,0.64-0.98,0.98s-0.71,0.71-1.12,1.11c0.41,0.41,0.77,0.77,1.11,1.11c0.34,0.34,0.66,0.66,0.98,0.98
						c0.32,0.32,0.64,0.64,0.98,0.98c0.34,0.34,0.7,0.7,1.11,1.11l-0.01,11.2l-8.45,0.02l0.01-11.24L177.87,39l-0.01,11.24
						l-8.44,0.02l0.03-30.77l20.21-0.07c0.41,0.41,0.77,0.77,1.11,1.11c0.34,0.34,0.66,0.66,0.98,0.98
						c0.32,0.32,0.64,0.64,0.98,0.98C193.07,22.82,193.44,23.18,193.85,23.59z M185.4,30.66l0-2.93l-7.52,0.02l0,2.93L185.4,30.66"
						/>
				</g>
				<g>
					<polygon class="st12" points="193.84,38.98 199,41.93 198.99,52.76 193.83,50.19 					"/>
				</g>
			</g>
			<g class="st0">
				<g>
					<polygon class="st12" points="207.4,27.67 212.1,30.99 212.1,33.82 207.4,30.59 					"/>
				</g>
				<g>
					<polygon class="st4" points="221.28,27.62 225.51,30.95 212.1,30.99 207.4,27.67 					"/>
				</g>
				<g>
					<polygon class="st12" points="221.28,19.31 225.52,22.92 225.51,30.95 221.28,27.62 					"/>
				</g>
				<g>
					<polygon class="st12" points="207.39,38.9 212.1,41.85 212.1,44.68 207.39,41.83 					"/>
				</g>
				<g>
					<polygon class="st4" points="221.28,38.86 225.51,41.81 212.1,41.85 207.39,38.9 					"/>
				</g>
				<g>
					<polygon class="st12" points="221.28,30.55 225.51,33.78 225.51,41.81 221.28,38.86 					"/>
				</g>
				<g>
					<polygon class="st9" points="221.28,19.31 221.28,27.62 207.4,27.67 207.4,30.59 221.28,30.55 221.28,38.86 207.39,38.9 
						207.39,41.83 221.28,41.79 221.28,50.11 198.95,50.17 198.97,19.39 					"/>
				</g>
				<g>
					<polygon class="st12" points="221.28,41.79 225.51,44.64 225.51,52.68 221.28,50.11 					"/>
				</g>
				<g>
					<polygon class="st4" points="221.28,50.11 225.51,52.68 203.94,52.74 198.95,50.17 					"/>
				</g>
			</g>
			<g class="st0">
				<g>
					<polygon class="st4" points="258.82,27.5 261.79,30.83 254.51,30.86 251.28,27.52 					"/>
				</g>
				<g>
					<polygon class="st12" points="251.28,27.52 254.51,30.86 254.51,44.56 251.29,41.7 					"/>
				</g>
				<g>
					<polygon class="st4" points="263.1,49.99 265.92,52.56 250.39,52.61 247.02,50.03 					"/>
				</g>
				<g class="st0">
					<defs>
						<path id="SVGID_15_" class="st0" d="M267.29,45.79l2.69,2.72c-0.4,0.4-0.75,0.75-1.08,1.08c-0.33,0.33-0.64,0.64-0.95,0.95
							c-0.31,0.31-0.62,0.62-0.95,0.95c-0.33,0.33-0.68,0.68-1.08,1.08l-2.83-2.58c0.41-0.41,0.77-0.77,1.11-1.12
							c0.34-0.34,0.66-0.66,0.98-0.98c0.32-0.32,0.64-0.64,0.98-0.98C266.52,46.56,266.88,46.19,267.29,45.79z"/>
					</defs>
					<clipPath id="SVGID_16_">
						<use xlink:href="#SVGID_15_"  style="overflow:visible;"/>
					</clipPath>
					<g class="st16">
						<path class="st7" d="M267.29,45.79l2.69,2.72c-0.4,0.4-0.75,0.75-1.08,1.08c-0.33,0.33-0.64,0.64-0.95,0.95
							c-0.31,0.31-0.62,0.62-0.95,0.95c-0.33,0.33-0.68,0.68-1.08,1.08l-2.83-2.58c0.41-0.41,0.77-0.77,1.11-1.12
							c0.34-0.34,0.66-0.66,0.98-0.98c0.32-0.32,0.64-0.64,0.98-0.98C266.52,46.56,266.88,46.19,267.29,45.79"/>
					</g>
				</g>
				<g>
					<polygon class="st12" points="267.28,23.35 269.96,26.82 269.98,48.5 267.29,45.79 					"/>
				</g>
				<g>
					<path class="st9" d="M263.08,19.17c0.41,0.41,0.77,0.77,1.11,1.11c0.34,0.34,0.66,0.66,0.98,0.98
						c0.32,0.32,0.64,0.64,0.98,0.98c0.34,0.34,0.71,0.7,1.12,1.11l0.01,22.44c-0.41,0.41-0.78,0.77-1.12,1.12
						c-0.34,0.34-0.66,0.66-0.98,0.98c-0.32,0.32-0.64,0.64-0.98,0.98c-0.34,0.34-0.71,0.71-1.11,1.12l-16.07,0.05
						c-0.41-0.41-0.77-0.77-1.11-1.11c-0.34-0.34-0.66-0.66-0.98-0.98c-0.32-0.32-0.64-0.64-0.98-0.98
						c-0.34-0.34-0.71-0.7-1.12-1.11l0-22.43c0.41-0.41,0.77-0.78,1.12-1.12c0.34-0.34,0.66-0.66,0.98-0.98
						c0.32-0.32,0.64-0.64,0.98-0.98c0.34-0.34,0.7-0.71,1.11-1.12L263.08,19.17z M258.82,41.68l-0.01-14.18l-7.54,0.02l0,14.18
						L258.82,41.68"/>
				</g>
			</g>
			<g class="st0">
				<g>
					<polygon class="st17" points="281.91,19.11 284.1,22.72 290.4,39.66 288.42,36.63 					"/>
				</g>
				<g>
					<polygon class="st12" points="280.87,32.38 283.1,35.56 283.11,52.51 280.88,49.93 					"/>
				</g>
				<g>
					<polygon class="st4" points="280.88,49.93 283.11,52.51 274.94,52.54 272.42,49.96 					"/>
				</g>
				<g>
					<polygon class="st4" points="296.9,49.89 298.59,52.47 289.4,52.5 287.39,49.91 					"/>
				</g>
				<g>
					<polygon class="st12" points="296.87,19.05 298.56,22.68 298.59,52.47 296.9,49.89 					"/>
				</g>
				<g>
					<polygon class="st9" points="296.87,19.05 296.9,49.89 287.39,49.91 280.87,32.38 280.88,49.93 272.42,49.96 272.4,19.14 
						281.91,19.11 288.42,36.63 288.41,19.08 					"/>
				</g>
			</g>
			<g class="st0">
				<g>
					<polygon class="st18" points="310.48,27.33 311.71,30.67 311.72,33.51 310.49,30.26 					"/>
				</g>
				<g>
					<polygon class="st4" points="324.41,27.28 325.17,30.63 311.71,30.67 310.48,27.33 					"/>
				</g>
				<g>
					<polygon class="st18" points="324.4,18.96 325.16,22.59 325.17,30.63 324.41,27.28 					"/>
				</g>
				<g>
					<polygon class="st18" points="310.5,38.59 311.73,41.55 311.73,44.39 310.5,41.52 					"/>
				</g>
				<g>
					<polygon class="st4" points="324.42,38.54 325.18,41.51 311.73,41.55 310.5,38.59 					"/>
				</g>
				<g>
					<polygon class="st18" points="324.41,30.22 325.17,33.46 325.18,41.51 324.42,38.54 					"/>
				</g>
				<g>
					<polygon class="st9" points="324.4,18.96 324.41,27.28 310.48,27.33 310.49,30.26 324.41,30.22 324.42,38.54 310.5,38.59 
						310.5,41.52 324.43,41.48 324.44,49.81 302.04,49.87 302.01,19.04 					"/>
				</g>
				<g>
					<polygon class="st18" points="324.43,41.48 325.19,44.35 325.2,52.39 324.44,49.81 					"/>
				</g>
				<g>
					<polygon class="st4" points="324.44,49.81 325.2,52.39 303.56,52.45 302.04,49.87 					"/>
				</g>
			</g>
			<g class="st0">
				<g class="st0">
					<defs>
						<path id="SVGID_17_" class="st0" d="M618.18,206.44l-9.22-2.72c0.39-0.35,0.74-0.67,1.07-0.97c0.33-0.3,0.65-0.59,0.96-0.87
							c0.31-0.28,0.63-0.57,0.96-0.87c0.33-0.3,0.68-0.62,1.07-0.97l9.37,2.59c-0.4,0.36-0.77,0.69-1.11,1.01
							c-0.34,0.31-0.67,0.61-1,0.9s-0.65,0.59-1,0.9C618.95,205.74,618.58,206.07,618.18,206.44z"/>
					</defs>
					<clipPath id="SVGID_18_">
						<use xlink:href="#SVGID_17_"  style="overflow:visible;"/>
					</clipPath>
					<g class="st19">
						<path class="st7" d="M618.18,206.44l-9.22-2.72c0.39-0.35,0.74-0.67,1.07-0.97c0.33-0.3,0.65-0.59,0.96-0.87
							c0.31-0.28,0.63-0.57,0.96-0.87c0.33-0.3,0.68-0.62,1.07-0.97l9.37,2.59c-0.4,0.36-0.77,0.69-1.11,1.01
							c-0.34,0.31-0.67,0.61-1,0.9s-0.65,0.59-1,0.9C618.95,205.74,618.58,206.07,618.18,206.44"/>
					</g>
				</g>
				<g>
					<polygon class="st20" points="602.34,202.63 593.65,200.04 601.93,200.03 610.91,202.63 					"/>
				</g>
				<g>
					<polygon class="st20" points="622.39,202.62 613.03,200.03 620.2,200.02 629.82,202.61 					"/>
				</g>
				<g>
					<polygon class="st20" points="613.37,225.37 604.31,222 607.19,222 616.36,225.37 					"/>
				</g>
				<g>
					<polygon class="st4" points="605.29,229.98 596.5,226.46 593.65,200.04 602.34,202.63 					"/>
				</g>
				<g>
					<polygon class="st20" points="636.12,225.36 626.28,221.99 629.18,221.99 639.12,225.36 					"/>
				</g>
				<g>
					<polygon class="st4" points="628.05,229.98 618.48,226.45 616.66,209.67 626.16,212.6 					"/>
				</g>
				<g>
					<polygon class="st4" points="616.36,225.37 607.19,222 608.96,203.71 618.18,206.44 					"/>
				</g>
				<g class="st0">
					<defs>
						<path id="SVGID_19_" class="st0" d="M609.54,233.79l-8.93-3.65c-0.39-0.35-0.75-0.67-1.08-0.97c-0.34-0.3-0.65-0.58-0.97-0.87
							c-0.32-0.28-0.64-0.57-0.97-0.87c-0.34-0.3-0.69-0.62-1.08-0.97l8.79,3.52c0.41,0.36,0.77,0.69,1.12,1.01s0.68,0.6,1.01,0.9
							s0.66,0.59,1.01,0.9C608.77,233.1,609.14,233.42,609.54,233.79z"/>
					</defs>
					<clipPath id="SVGID_20_">
						<use xlink:href="#SVGID_19_"  style="overflow:visible;"/>
					</clipPath>
					<g class="st21">
						<path class="st7" d="M609.54,233.79l-8.93-3.65c-0.39-0.35-0.75-0.67-1.08-0.97c-0.34-0.3-0.65-0.58-0.97-0.87
							c-0.32-0.28-0.64-0.57-0.97-0.87c-0.34-0.3-0.69-0.62-1.08-0.97l8.79,3.52c0.41,0.36,0.77,0.69,1.12,1.01s0.68,0.6,1.01,0.9
							s0.66,0.59,1.01,0.9C608.77,233.1,609.14,233.42,609.54,233.79"/>
					</g>
				</g>
				<g>
					<polygon class="st20" points="641.31,202.61 631.29,200.02 639.58,200.01 649.88,202.6 					"/>
				</g>
				<g>
					<polygon class="st4" points="639.12,225.36 629.18,221.99 631.29,200.02 641.31,202.61 					"/>
				</g>
				<g class="st0">
					<defs>
						<path id="SVGID_21_" class="st0" d="M632.3,233.79l-9.71-3.65c-0.39-0.35-0.75-0.67-1.08-0.97c-0.34-0.3-0.65-0.58-0.97-0.87
							c-0.32-0.28-0.63-0.57-0.97-0.87c-0.34-0.3-0.69-0.62-1.08-0.97l9.56,3.52c0.41,0.36,0.77,0.69,1.12,1.01
							c0.35,0.31,0.68,0.6,1,0.9s0.66,0.59,1,0.9C631.52,233.09,631.89,233.42,632.3,233.79z"/>
					</defs>
					<clipPath id="SVGID_22_">
						<use xlink:href="#SVGID_21_"  style="overflow:visible;"/>
					</clipPath>
					<g class="st22">
						<path class="st7" d="M632.3,233.79l-9.71-3.65c-0.39-0.35-0.75-0.67-1.08-0.97c-0.34-0.3-0.65-0.58-0.97-0.87
							c-0.32-0.28-0.63-0.57-0.97-0.87c-0.34-0.3-0.69-0.62-1.08-0.97l9.56,3.52c0.41,0.36,0.77,0.69,1.12,1.01
							c0.35,0.31,0.68,0.6,1,0.9s0.66,0.59,1,0.9C631.52,233.09,631.89,233.42,632.3,233.79"/>
					</g>
				</g>
				<g>
					<path class="st9" d="M649.88,202.6l-2.63,27.37c-0.4,0.37-0.76,0.69-1.11,1.01c-0.34,0.31-0.67,0.61-0.99,0.9s-0.65,0.59-1,0.9
						s-0.71,0.64-1.11,1.01l-10.75,0c-0.41-0.36-0.77-0.69-1.12-1.01c-0.35-0.31-0.68-0.6-1-0.9s-0.66-0.59-1-0.9
						c-0.35-0.31-0.72-0.64-1.12-1.01l-1.89-17.38l-1.67,17.38c-0.4,0.37-0.77,0.69-1.11,1.01s-0.67,0.61-1,0.9
						c-0.33,0.29-0.65,0.59-1,0.9c-0.34,0.31-0.71,0.64-1.11,1.01l-10.73,0c-0.41-0.36-0.77-0.69-1.12-1.01
						c-0.35-0.31-0.68-0.6-1.01-0.9s-0.66-0.59-1.01-0.9s-0.72-0.64-1.12-1.01l-2.95-27.35l8.57,0l2.46,22.74l2.99,0l1.82-18.93
						c0.4-0.36,0.77-0.69,1.11-1.01c0.34-0.31,0.67-0.61,1-0.9s0.65-0.59,1-0.9c0.34-0.31,0.71-0.64,1.11-1.01l7.42,0
						c0.41,0.36,0.77,0.69,1.12,1.01c0.35,0.31,0.68,0.61,1,0.9s0.66,0.59,1,0.9c0.35,0.31,0.71,0.64,1.12,1.01l2.05,18.93l3,0
						l2.19-22.75L649.88,202.6z"/>
				</g>
			</g>
			<g class="st0">
				<g class="st0">
					<defs>
						<path id="SVGID_23_" class="st0" d="M573.63,206.88l-7.7-2.74c0.4-0.4,0.75-0.75,1.09-1.09s0.64-0.65,0.95-0.96
							c0.31-0.31,0.62-0.62,0.95-0.96c0.33-0.33,0.69-0.69,1.09-1.09l7.85,2.59c-0.41,0.41-0.78,0.78-1.12,1.13
							s-0.67,0.67-0.99,0.99c-0.32,0.32-0.64,0.65-0.99,0.99S574.04,206.47,573.63,206.88z"/>
					</defs>
					<clipPath id="SVGID_24_">
						<use xlink:href="#SVGID_23_"  style="overflow:visible;"/>
					</clipPath>
					<g class="st23">
						<path class="st7" d="M573.63,206.88l-7.7-2.74c0.4-0.4,0.75-0.75,1.09-1.09s0.64-0.65,0.95-0.96
							c0.31-0.31,0.62-0.62,0.95-0.96c0.33-0.33,0.69-0.69,1.09-1.09l7.85,2.59c-0.41,0.41-0.78,0.78-1.12,1.13
							s-0.67,0.67-0.99,0.99c-0.32,0.32-0.64,0.65-0.99,0.99S574.04,206.47,573.63,206.88"/>
					</g>
				</g>
				<g>
					<polygon class="st20" points="577.85,202.64 570.01,200.05 585.72,200.04 594.12,202.64 					"/>
				</g>
				<g>
					<polygon class="st4" points="573.75,229.55 566.04,226.05 565.93,204.15 573.63,206.88 					"/>
				</g>
				<g class="st0">
					<defs>
						<path id="SVGID_25_" class="st0" d="M578.02,233.79l-7.86-3.65c-0.4-0.4-0.76-0.76-1.1-1.09c-0.34-0.33-0.65-0.65-0.96-0.96
							c-0.31-0.31-0.63-0.62-0.96-0.96s-0.69-0.69-1.1-1.09l7.71,3.51c0.42,0.41,0.79,0.78,1.14,1.13c0.35,0.35,0.67,0.67,1,0.99
							c0.33,0.32,0.65,0.65,1,0.99S577.6,233.38,578.02,233.79z"/>
					</defs>
					<clipPath id="SVGID_26_">
						<use xlink:href="#SVGID_25_"  style="overflow:visible;"/>
					</clipPath>
					<g class="st24">
						<path class="st7" d="M578.02,233.79l-7.86-3.65c-0.4-0.4-0.76-0.76-1.1-1.09c-0.34-0.33-0.65-0.65-0.96-0.96
							c-0.31-0.31-0.63-0.62-0.96-0.96s-0.69-0.69-1.1-1.09l7.71,3.51c0.42,0.41,0.79,0.78,1.14,1.13c0.35,0.35,0.67,0.67,1,0.99
							c0.33,0.32,0.65,0.65,1,0.99S577.6,233.38,578.02,233.79"/>
					</g>
				</g>
				<g>
					<polygon class="st4" points="589.93,225.38 581.67,222.02 581.59,208.17 589.85,211.05 					"/>
				</g>
				<g>
					<polygon class="st20" points="582.28,225.38 574.28,222.02 581.67,222.02 589.93,225.38 					"/>
				</g>
				<g>
					<path class="st9" d="M594.12,202.64c0.42,0.41,0.79,0.78,1.14,1.13s0.68,0.67,1,0.99c0.33,0.32,0.65,0.65,1,0.99
						c0.35,0.34,0.72,0.71,1.13,1.12l0.13,22.68c-0.41,0.41-0.78,0.78-1.12,1.13c-0.34,0.35-0.67,0.67-0.99,0.99
						c-0.32,0.32-0.65,0.65-0.99,0.99c-0.35,0.35-0.71,0.71-1.13,1.13l-16.27,0c-0.42-0.41-0.79-0.78-1.14-1.13s-0.67-0.67-1-0.99
						c-0.33-0.32-0.65-0.65-1-0.99c-0.35-0.35-0.72-0.71-1.14-1.13l-0.12-22.67c0.41-0.41,0.78-0.78,1.12-1.12s0.67-0.67,0.99-0.99
						c0.32-0.32,0.64-0.65,0.99-0.99s0.71-0.72,1.12-1.13L594.12,202.64z M589.93,225.38l-0.08-14.33l-7.64,0l0.08,14.33
						L589.93,225.38"/>
				</g>
			</g>
			<g class="st0">
				<g>
					<polygon class="st4" points="559.94,220.38 552.7,217.19 552.62,200.06 559.85,202.66 					"/>
				</g>
				<g>
					<polygon class="st20" points="543.67,202.66 536.99,200.07 546.27,200.07 553.28,202.66 					"/>
				</g>
				<g>
					<polygon class="st20" points="559.85,202.66 552.62,200.06 560.88,200.06 568.41,202.65 					"/>
				</g>
				<g>
					<polygon class="st4" points="543.82,233.8 537.13,230.15 536.99,200.07 543.67,202.66 					"/>
				</g>
				<g>
					<polygon class="st4" points="558.95,233.79 551.74,230.14 545.32,213.03 552.29,216.07 					"/>
				</g>
				<g>
					<polygon class="st9" points="568.41,202.65 568.57,233.79 558.95,233.79 552.29,216.07 552.38,233.8 543.82,233.8 
						543.67,202.66 553.28,202.66 559.94,220.38 559.85,202.66 					"/>
				</g>
			</g>
			<g class="st0">
				<g>
					<polygon class="st20" points="497.14,202.69 492.04,200.1 501.31,200.1 506.73,202.69 					"/>
				</g>
				<g>
					<polygon class="st20" points="513.3,202.68 507.65,200.09 515.9,200.09 521.84,202.68 					"/>
				</g>
				<g>
					<polygon class="st4" points="497.26,233.8 492.16,230.15 492.04,200.1 497.14,202.69 					"/>
				</g>
				<g>
					<polygon class="st4" points="513.37,220.39 507.72,217.2 507.65,200.09 513.3,202.68 					"/>
				</g>
				<g>
					<polygon class="st4" points="512.37,233.8 506.75,230.15 500.34,213.05 505.73,216.09 					"/>
				</g>
				<g>
					<polygon class="st9" points="521.84,202.68 521.98,233.8 512.37,233.8 505.73,216.09 505.8,233.8 497.26,233.8 497.14,202.69 
						506.73,202.69 513.37,220.39 513.3,202.68 					"/>
				</g>
			</g>
			<g class="st0">
				<g>
					<polygon class="st20" points="484.07,202.7 479.41,200.11 487.66,200.1 492.6,202.69 					"/>
				</g>
				<g>
					<polygon class="st4" points="484.19,233.8 479.53,230.16 479.41,200.11 484.07,202.7 					"/>
				</g>
				<g>
					<polygon class="st9" points="492.6,202.69 492.73,233.8 484.19,233.8 484.07,202.7 					"/>
				</g>
			</g>
			<g class="st0">
				<g class="st0">
					<defs>
						<path id="SVGID_27_" class="st0" d="M454.84,206.94l-3.66-2.73c0.4-0.4,0.75-0.75,1.08-1.08c0.33-0.33,0.64-0.64,0.95-0.96
							c0.31-0.31,0.62-0.62,0.95-0.96c0.33-0.33,0.69-0.69,1.08-1.09l3.8,2.59c-0.41,0.41-0.78,0.78-1.12,1.13
							c-0.34,0.35-0.66,0.67-0.99,0.99c-0.32,0.32-0.64,0.65-0.99,0.99C455.62,206.17,455.26,206.53,454.84,206.94z"/>
					</defs>
					<clipPath id="SVGID_28_">
						<use xlink:href="#SVGID_27_"  style="overflow:visible;"/>
					</clipPath>
					<g class="st25">
						<path class="st7" d="M454.84,206.94l-3.66-2.73c0.4-0.4,0.75-0.75,1.08-1.08c0.33-0.33,0.64-0.64,0.95-0.96
							c0.31-0.31,0.62-0.62,0.95-0.96c0.33-0.33,0.69-0.69,1.08-1.09l3.8,2.59c-0.41,0.41-0.78,0.78-1.12,1.13
							c-0.34,0.35-0.66,0.67-0.99,0.99c-0.32,0.32-0.64,0.65-0.99,0.99C455.62,206.17,455.26,206.53,454.84,206.94"/>
					</g>
				</g>
				<g>
					<polygon class="st20" points="459.06,202.71 455.26,200.12 470.91,200.11 475.27,202.7 					"/>
				</g>
				<g>
					<polygon class="st4" points="454.92,229.57 451.25,226.07 451.18,204.21 454.84,206.94 					"/>
				</g>
				<g class="st0">
					<defs>
						<path id="SVGID_29_" class="st0" d="M459.17,233.8l-3.81-3.65c-0.4-0.4-0.76-0.76-1.09-1.09c-0.33-0.33-0.65-0.64-0.96-0.96
							c-0.31-0.31-0.62-0.62-0.96-0.96c-0.33-0.33-0.69-0.69-1.09-1.09l3.66,3.5c0.42,0.41,0.78,0.78,1.13,1.13
							c0.35,0.35,0.67,0.67,0.99,0.99c0.32,0.32,0.65,0.64,0.99,0.99S458.75,233.39,459.17,233.8z"/>
					</defs>
					<clipPath id="SVGID_30_">
						<use xlink:href="#SVGID_29_"  style="overflow:visible;"/>
					</clipPath>
					<g class="st26">
						<path class="st7" d="M459.17,233.8l-3.81-3.65c-0.4-0.4-0.76-0.76-1.09-1.09c-0.33-0.33-0.65-0.64-0.96-0.96
							c-0.31-0.31-0.62-0.62-0.96-0.96c-0.33-0.33-0.69-0.69-1.09-1.09l3.66,3.5c0.42,0.41,0.78,0.78,1.13,1.13
							c0.35,0.35,0.67,0.67,0.99,0.99c0.32,0.32,0.65,0.64,0.99,0.99S458.75,233.39,459.17,233.8"/>
					</g>
				</g>
				<g>
					<polygon class="st4" points="471.05,225.41 466.84,222.05 466.79,208.23 471,211.1 					"/>
				</g>
				<g>
					<polygon class="st20" points="463.43,225.41 459.48,222.05 466.84,222.05 471.05,225.41 					"/>
				</g>
				<g>
					<path class="st9" d="M475.27,202.7c0.42,0.41,0.79,0.78,1.13,1.13c0.35,0.35,0.67,0.67,1,0.99s0.65,0.64,0.99,0.99
						c0.35,0.34,0.71,0.71,1.13,1.12l0.09,22.64c-0.41,0.41-0.78,0.78-1.12,1.13c-0.34,0.35-0.67,0.67-0.99,0.99
						c-0.32,0.32-0.64,0.64-0.99,0.99c-0.34,0.35-0.71,0.71-1.12,1.13l-16.21,0c-0.42-0.41-0.78-0.78-1.13-1.13
						s-0.67-0.67-0.99-0.99c-0.32-0.32-0.65-0.64-0.99-0.99c-0.35-0.35-0.72-0.71-1.13-1.13l-0.08-22.63
						c0.41-0.41,0.78-0.78,1.12-1.12c0.34-0.34,0.66-0.67,0.99-0.99c0.32-0.32,0.64-0.65,0.99-0.99c0.34-0.35,0.71-0.71,1.12-1.13
						L475.27,202.7z M471.05,225.41L471,211.1l-7.62,0l0.05,14.3L471.05,225.41"/>
				</g>
			</g>
			<g class="st0">
				<g>
					<polygon class="st20" points="441.15,202.72 437.96,200.13 446.2,200.13 449.69,202.72 					"/>
				</g>
				<g>
					<polygon class="st4" points="427.22,229.58 424.5,226.08 424.47,218.09 427.2,221.31 					"/>
				</g>
				<g>
					<polygon class="st20" points="427.2,221.31 424.47,218.09 432.71,218.08 435.73,221.3 					"/>
				</g>
				<g>
					<polygon class="st4" points="441.23,225.41 438.03,222.05 437.96,200.13 441.15,202.72 					"/>
				</g>
				<g>
					<polygon class="st20" points="435.74,225.41 432.73,222.05 438.03,222.05 441.23,225.41 					"/>
				</g>
				<g>
					<path class="st9" d="M449.69,202.72l0.09,26.85c-0.41,0.41-0.78,0.78-1.12,1.13c-0.34,0.35-0.66,0.67-0.99,0.99
						c-0.32,0.32-0.64,0.64-0.99,0.99c-0.34,0.35-0.71,0.71-1.12,1.13l-14.09,0c-0.41-0.41-0.78-0.78-1.13-1.13
						c-0.35-0.34-0.67-0.67-0.99-0.99c-0.32-0.32-0.65-0.64-0.99-0.99c-0.35-0.34-0.72-0.71-1.13-1.13l-0.02-8.27l8.53,0l0.01,4.1
						l5.49,0l-0.07-22.68L449.69,202.72z"/>
				</g>
			</g>
		</g>
	</g>
	<g id="bigText">
		<g>
			<g class="st0">
				<g>
					<polygon class="st4" points="15.33,92.67 34.57,94.55 28.09,94.55 8.46,92.68 					"/>
				</g>
				<g>
					<polygon class="st10" points="36.41,92.66 54.44,94.54 54.44,155.68 36.41,157.53 					"/>
				</g>
				<g>
					<polygon class="st10" points="46.41,178.62 63.87,175.56 63.87,191.54 46.41,195.58 					"/>
				</g>
				<g>
					<polygon class="st20" points="36.41,157.53 54.44,155.68 72.19,155.69 55.23,157.54 					"/>
				</g>
				<g>
					<polygon class="st4" points="55.23,92.65 72.19,94.53 54.44,94.54 36.41,92.66 					"/>
				</g>
				<g>
					<polygon class="st27" points="46.41,195.58 63.87,191.54 91.65,209.37 75.88,214.49 					"/>
				</g>
				<g>
					<polygon class="st4" points="76.33,102.85 92.08,104.15 72.19,104.15 55.23,102.86 					"/>
				</g>
				<g class="st0">
					<defs>
						<path id="SVGID_31_" class="st0" d="M65.87,71.78l16.35,3.08c0.96,0.97,1.82,1.83,2.63,2.63c0.8,0.81,1.56,1.56,2.31,2.32
							c0.75,0.75,1.5,1.51,2.31,2.32c0.8,0.81,1.66,1.67,2.63,2.63l-15.75-2.48c-1.02-1.03-1.93-1.94-2.79-2.8
							c-0.85-0.86-1.65-1.66-2.45-2.46c-0.8-0.8-1.6-1.6-2.45-2.46C67.8,73.72,66.89,72.8,65.87,71.78z"/>
					</defs>
					<clipPath id="SVGID_32_">
						<use xlink:href="#SVGID_31_"  style="overflow:visible;"/>
					</clipPath>
					<g class="st28">
						<path class="st3" d="M65.87,71.78l16.35,3.08c0.96,0.97,1.82,1.83,2.63,2.63c0.8,0.81,1.56,1.56,2.31,2.32
							c0.75,0.75,1.5,1.51,2.31,2.32c0.8,0.81,1.66,1.67,2.63,2.63l-15.75-2.48c-1.02-1.03-1.93-1.94-2.79-2.8
							c-0.85-0.86-1.65-1.66-2.45-2.46c-0.8-0.8-1.6-1.6-2.45-2.46C67.8,73.72,66.89,72.8,65.87,71.78"/>
					</g>
				</g>
				<g>
					<polygon class="st10" points="76.33,82.28 92.08,84.76 92.08,104.15 76.33,102.85 					"/>
				</g>
				<g class="st0">
					<defs>
						<path id="SVGID_33_" class="st0" d="M76.34,167.9l15.75-2.45c-0.96,0.97-1.82,1.83-2.63,2.63c-0.8,0.81-1.56,1.56-2.31,2.32
							c-0.75,0.75-1.5,1.51-2.31,2.32c-0.8,0.81-1.66,1.67-2.63,2.63l-16.35,3.05c1.02-1.03,1.93-1.94,2.78-2.79
							c0.85-0.86,1.65-1.66,2.45-2.46c0.8-0.8,1.6-1.6,2.45-2.46C74.41,169.84,75.32,168.92,76.34,167.9z"/>
					</defs>
					<clipPath id="SVGID_34_">
						<use xlink:href="#SVGID_33_"  style="overflow:visible;"/>
					</clipPath>
					<g class="st29">
						<path class="st7" d="M76.34,167.9l15.75-2.45c-0.96,0.97-1.82,1.83-2.63,2.63c-0.8,0.81-1.56,1.56-2.31,2.32
							c-0.75,0.75-1.5,1.51-2.31,2.32c-0.8,0.81-1.66,1.67-2.63,2.63l-16.35,3.05c1.02-1.03,1.93-1.94,2.78-2.79
							c0.85-0.86,1.65-1.66,2.45-2.46c0.8-0.8,1.6-1.6,2.45-2.46C74.41,169.84,75.32,168.92,76.34,167.9"/>
					</g>
				</g>
				<g>
					<polygon class="st10" points="76.34,147.33 92.09,146.07 92.09,165.45 76.34,167.9 					"/>
				</g>
				<g>
					<polygon class="st20" points="55.23,147.32 72.19,146.06 92.09,146.07 76.34,147.33 					"/>
				</g>
				<g>
					<path class="st30" d="M65.87,71.78c1.02,1.03,1.93,1.94,2.78,2.79c0.85,0.86,1.65,1.66,2.45,2.46c0.8,0.8,1.6,1.6,2.45,2.46
						c0.85,0.86,1.76,1.77,2.79,2.8v20.57l-21.1,0.01v-10.2l-18.82,0.01l0,64.87l18.82,0.01v-10.21l21.11,0.01v20.57
						c-1.02,1.03-1.93,1.94-2.79,2.8c-0.85,0.86-1.65,1.66-2.45,2.46c-0.8,0.8-1.6,1.6-2.45,2.46c-0.85,0.86-1.76,1.77-2.78,2.79
						l-40.09-0.03c-1.02-1.03-1.93-1.94-2.79-2.8c-0.85-0.86-1.65-1.66-2.45-2.46c-0.8-0.8-1.59-1.6-2.45-2.46
						c-0.85-0.86-1.76-1.77-2.78-2.8l0-75.19l-6.87,0l4.5-20.86L65.87,71.78z"/>
				</g>
				<g>
					<polygon class="st4" points="91.43,92.63 106.31,94.52 99.83,94.52 84.55,92.64 					"/>
				</g>
				<g>
					<polygon class="st10" points="112.56,92.62 126.23,94.51 126.23,155.71 112.56,157.57 					"/>
				</g>
				<g>
					<polygon class="st20" points="112.56,157.57 126.23,155.71 144.02,155.72 131.43,157.58 					"/>
				</g>
				<g>
					<polygon class="st4" points="131.43,92.61 144.02,94.5 126.23,94.51 112.56,92.62 					"/>
				</g>
				<g class="st0">
					<defs>
						<path id="SVGID_35_" class="st0" d="M152.59,167.95l11.38-2.45c-0.97,0.97-1.82,1.83-2.63,2.64
							c-0.81,0.81-1.56,1.56-2.31,2.32c-0.75,0.76-1.51,1.51-2.31,2.32c-0.81,0.81-1.67,1.67-2.63,2.64l-11.98,3.06
							c1.02-1.03,1.94-1.94,2.79-2.8c0.86-0.86,1.65-1.66,2.45-2.46c0.8-0.8,1.6-1.6,2.45-2.46
							C150.65,169.89,151.56,168.98,152.59,167.95z"/>
					</defs>
					<clipPath id="SVGID_36_">
						<use xlink:href="#SVGID_35_"  style="overflow:visible;"/>
					</clipPath>
					<g class="st31">
						<path class="st7" d="M152.59,167.95l11.38-2.45c-0.97,0.97-1.83,1.83-2.63,2.64c-0.81,0.81-1.56,1.56-2.31,2.32
							c-0.75,0.76-1.51,1.51-2.31,2.32c-0.81,0.81-1.67,1.67-2.63,2.64l-11.98,3.06c1.02-1.03,1.94-1.94,2.79-2.8
							c0.86-0.86,1.65-1.66,2.45-2.46c0.8-0.8,1.6-1.6,2.45-2.46C150.65,169.89,151.56,168.98,152.59,167.95"/>
					</g>
				</g>
				<g class="st0">
					<defs>
						<path id="SVGID_37_" class="st0" d="M142.09,71.71l11.98,3.09c0.97,0.97,1.82,1.83,2.63,2.64c0.81,0.81,1.56,1.56,2.31,2.32
							c0.75,0.76,1.51,1.51,2.31,2.32c0.81,0.81,1.67,1.67,2.63,2.64l-11.38-2.48c-1.02-1.03-1.94-1.94-2.79-2.8
							c-0.86-0.86-1.66-1.66-2.45-2.46c-0.8-0.8-1.6-1.6-2.45-2.46C144.03,73.66,143.12,72.74,142.09,71.71z"/>
					</defs>
					<clipPath id="SVGID_38_">
						<use xlink:href="#SVGID_37_"  style="overflow:visible;"/>
					</clipPath>
					<g class="st32">
						<path class="st3" d="M142.09,71.71l11.98,3.09c0.97,0.97,1.82,1.83,2.63,2.64c0.81,0.81,1.56,1.56,2.31,2.32
							c0.75,0.76,1.51,1.51,2.31,2.32c0.81,0.81,1.67,1.67,2.63,2.64l-11.38-2.48c-1.02-1.03-1.94-1.94-2.79-2.8
							c-0.86-0.86-1.66-1.66-2.45-2.46c-0.8-0.8-1.6-1.6-2.45-2.46C144.03,73.66,143.12,72.74,142.09,71.71"/>
					</g>
				</g>
				<g>
					<polygon class="st12" points="152.59,82.23 163.96,84.71 163.96,165.5 152.59,167.95 					"/>
				</g>
				<g>
					<path class="st30" d="M142.09,71.71c1.02,1.03,1.94,1.94,2.79,2.8c0.86,0.86,1.65,1.66,2.45,2.46c0.8,0.8,1.6,1.6,2.45,2.46
						c0.86,0.86,1.77,1.77,2.79,2.8l0,85.72c-1.02,1.03-1.94,1.94-2.79,2.8c-0.86,0.86-1.66,1.66-2.45,2.46
						c-0.8,0.8-1.6,1.6-2.45,2.46c-0.86,0.86-1.77,1.77-2.79,2.8l-40.18-0.03c-1.02-1.03-1.93-1.94-2.79-2.8
						c-0.85-0.86-1.65-1.66-2.45-2.46c-0.8-0.8-1.6-1.6-2.45-2.46c-0.86-0.86-1.77-1.77-2.79-2.8l0-75.27l-6.87,0l4.51-20.88
						l23.5-0.02l18.87-0.02L142.09,71.71z M131.43,157.58l0-64.96l-18.87,0.01v64.94L131.43,157.58"/>
				</g>
				<g>
					<polygon class="st4" points="169.25,92.6 179.67,94.48 173.16,94.49 162.35,92.6 					"/>
				</g>
				<g>
					<polygon class="st12" points="190.43,71.68 199.63,74.77 199.63,155.75 190.43,157.6 					"/>
				</g>
				<g>
					<polygon class="st12" points="225.29,157.62 232.49,155.76 232.49,175.47 225.29,178.53 					"/>
				</g>
				<g>
					<polygon class="st30" points="190.43,71.68 190.43,157.6 225.29,157.62 225.29,178.53 169.25,178.49 169.25,92.6 162.35,92.6 
						166.87,71.69 					"/>
				</g>
				<g>
					<polygon class="st20" points="190.43,157.6 199.63,155.75 232.49,155.76 225.29,157.62 					"/>
				</g>
				<g>
					<polygon class="st4" points="237.33,92.56 243.84,94.45 237.32,94.46 230.42,92.57 					"/>
				</g>
				<g>
					<polygon class="st12" points="258.56,71.62 263.84,74.72 263.84,155.78 258.56,157.64 					"/>
				</g>
				<g>
					<polygon class="st30" points="258.56,71.62 258.56,157.64 293.49,157.66 293.49,178.59 237.33,178.54 237.33,92.56 
						230.42,92.57 234.95,71.64 					"/>
				</g>
				<g>
					<polygon class="st12" points="293.49,157.66 296.76,155.79 296.76,175.52 293.49,178.59 					"/>
				</g>
				<g>
					<polygon class="st20" points="258.56,157.64 263.84,155.78 296.76,155.79 293.49,157.66 					"/>
				</g>
				<g>
					<polygon class="st4" points="305.56,92.53 308.14,94.42 301.61,94.43 298.63,92.53 					"/>
				</g>
				<g>
					<polygon class="st18" points="326.83,135.57 328.18,134.98 328.18,155.81 326.83,157.67 					"/>
				</g>
				<g>
					<polygon class="st18" points="326.83,92.52 328.18,94.41 328.18,115.23 326.83,114.61 					"/>
				</g>
				<g>
					<polygon class="st20" points="326.83,157.67 328.18,155.81 361.16,155.82 361.83,157.69 					"/>
				</g>
				<g>
					<polygon class="st4" points="361.83,92.5 361.16,94.4 328.18,94.41 326.83,92.52 					"/>
				</g>
				<g>
					<polygon class="st30" points="361.83,71.53 361.83,92.5 326.83,92.52 326.83,114.61 361.83,114.61 361.83,135.57 
						326.83,135.57 326.83,157.67 361.83,157.69 361.83,178.64 305.56,178.6 305.56,92.53 298.63,92.53 303.18,71.58 326.83,71.56 
											"/>
				</g>
				<g>
					<polygon class="st4" points="370.05,92.49 368.9,94.39 373.19,74.63 374.6,71.52 					"/>
				</g>
				<g>
					<polygon class="st4" points="377,92.49 375.45,94.39 368.9,94.39 370.05,92.49 					"/>
				</g>
				<g>
					<polygon class="st4" points="377,168.1 375.45,165.63 375.45,94.39 377,92.49 					"/>
				</g>
				<g>
					<polygon class="st30" points="46.41,178.62 46.41,195.58 75.88,214.49 403.03,214.94 403.03,218.95 74.72,218.48 42.44,197.76 
						42.44,178.62 					"/>
				</g>
				<g>
					<polygon class="st20" points="75.88,214.49 91.65,209.37 399.98,209.77 403.03,214.94 					"/>
				</g>
				<g>
					<polygon class="st20" points="398.31,157.71 395.53,155.84 413.46,155.85 417.34,157.72 					"/>
				</g>
				<g>
					<polygon class="st4" points="417.34,157.72 413.46,155.85 413.46,146.17 417.34,147.45 					"/>
				</g>
				<g>
					<polygon class="st4" points="417.34,102.73 413.46,104.04 413.46,94.37 417.34,92.47 					"/>
				</g>
				<g>
					<polygon class="st4" points="417.34,92.47 413.46,94.37 395.53,94.38 398.31,92.48 					"/>
				</g>
				<g>
					<polygon class="st20" points="417.34,147.45 413.46,146.17 433.57,146.18 438.69,147.45 					"/>
				</g>
				<g>
					<polygon class="st4" points="438.69,102.73 433.57,104.03 413.46,104.04 417.34,102.73 					"/>
				</g>
				<g>
					<path class="st30" d="M428.09,71.48c1.04,1.03,1.96,1.95,2.82,2.81c0.86,0.86,1.67,1.67,2.48,2.47
						c0.81,0.8,1.61,1.61,2.48,2.47c0.86,0.86,1.78,1.78,2.82,2.81v20.68l-21.34,0.01V92.47l-19.03,0.01l0,65.23l19.03,0.01v-10.27
						l21.34,0.01v20.68c-1.03,1.03-1.95,1.95-2.82,2.81c-0.86,0.86-1.67,1.67-2.48,2.47c-0.81,0.8-1.61,1.61-2.48,2.47
						c-0.86,0.86-1.78,1.78-2.82,2.81l-40.54-0.03c-1.03-1.03-1.95-1.95-2.81-2.81c-0.86-0.86-1.67-1.67-2.47-2.47
						c-0.81-0.81-1.61-1.61-2.47-2.47c-0.86-0.86-1.78-1.78-2.81-2.81v-75.6l-6.95,0l4.55-20.97L428.09,71.48z"/>
				</g>
				<g>
					<polygon class="st4" points="446.99,92.46 441.4,94.36 445.7,74.58 451.56,71.46 					"/>
				</g>
				<g>
					<polygon class="st4" points="467.2,92.45 460.43,94.35 441.4,94.36 446.99,92.46 					"/>
				</g>
				<g>
					<polygon class="st4" points="467.2,178.73 460.43,175.64 460.43,94.35 467.2,92.45 					"/>
				</g>
				<g>
					<polygon class="st4" points="508.82,92.43 499.64,94.33 480.57,94.34 488.58,92.44 					"/>
				</g>
				<g>
					<polygon class="st30" points="508.82,71.41 508.82,92.43 488.58,92.44 488.58,178.75 467.2,178.73 467.2,92.45 446.99,92.46 
						451.56,71.46 					"/>
				</g>
				<g>
					<polygon class="st4" points="518.73,92.42 508.98,94.33 513.28,74.52 523.3,71.4 					"/>
				</g>
				<g>
					<polygon class="st4" points="525.71,178.78 515.55,175.69 515.55,94.32 525.71,92.42 					"/>
				</g>
				<g>
					<polygon class="st4" points="525.71,92.42 515.55,94.32 508.98,94.33 518.73,92.42 					"/>
				</g>
				<g>
					<polygon class="st4" points="555.51,92.4 543.62,94.31 547.93,74.5 560.08,71.37 					"/>
				</g>
				<g>
					<polygon class="st4" points="562.49,92.4 550.2,94.31 543.62,94.31 555.51,92.4 					"/>
				</g>
				<g>
					<polygon class="st30" points="547.12,71.38 547.12,178.8 525.71,178.78 525.71,92.42 518.73,92.42 523.3,71.4 					"/>
				</g>
				<g>
					<polygon class="st4" points="568.17,169.01 555.55,166.48 550.2,94.31 562.49,92.4 					"/>
				</g>
				<g class="st0">
					<defs>
						<path id="SVGID_39_" class="st0" d="M578.77,178.82l-13.24-3.1c-0.96-0.89-1.82-1.69-2.64-2.45s-1.58-1.47-2.35-2.18
							c-0.77-0.71-1.54-1.42-2.35-2.18c-0.82-0.76-1.68-1.55-2.64-2.44l12.62,2.53c1.02,0.94,1.94,1.79,2.8,2.59
							c0.87,0.8,1.68,1.56,2.5,2.31s1.63,1.51,2.5,2.31C576.84,177.03,577.75,177.88,578.77,178.82z"/>
					</defs>
					<clipPath id="SVGID_40_">
						<use xlink:href="#SVGID_39_"  style="overflow:visible;"/>
					</clipPath>
					<g class="st33">
						<path class="st7" d="M578.77,178.82l-13.24-3.1c-0.96-0.89-1.82-1.69-2.64-2.45s-1.58-1.47-2.35-2.18
							c-0.77-0.71-1.54-1.42-2.35-2.18c-0.82-0.76-1.68-1.55-2.64-2.44l12.62,2.53c1.02,0.94,1.94,1.79,2.8,2.59
							c0.87,0.8,1.68,1.56,2.5,2.31s1.63,1.51,2.5,2.31C576.84,177.03,577.75,177.88,578.77,178.82"/>
					</g>
				</g>
				<g>
					<polygon class="st20" points="588.78,157.79 574.96,155.91 580.9,155.92 595.08,157.79 					"/>
				</g>
				<g>
					<polygon class="st4" points="595.08,157.79 580.9,155.92 586.94,74.47 601.5,71.34 					"/>
				</g>
				<g>
					<polygon class="st4" points="631.34,92.36 615.05,94.28 619.37,74.44 635.93,71.31 					"/>
				</g>
				<g>
					<polygon class="st4" points="638.34,92.36 621.64,94.27 615.05,94.28 631.34,92.36 					"/>
				</g>
				<g>
					<path class="st30" d="M622.96,71.32l-7.24,97.72c-1.02,0.94-1.94,1.79-2.81,2.59c-0.87,0.8-1.68,1.56-2.5,2.31
						c-0.82,0.75-1.63,1.51-2.5,2.31c-0.87,0.8-1.79,1.65-2.81,2.59l-11.57-0.01l-3.18,0l-11.57-0.01c-1.02-0.94-1.94-1.79-2.8-2.6
						c-0.87-0.8-1.68-1.56-2.5-2.31s-1.63-1.51-2.5-2.31c-0.87-0.8-1.78-1.65-2.8-2.59l-5.68-76.61l-6.98,0l4.57-21.03l22.28-0.02
						l6.42,86.44l6.3,0l6.42-86.46L622.96,71.32z"/>
				</g>
				<g>
					<polygon class="st4" points="633.4,35.48 616.98,40.69 346.24,41.04 345.99,35.87 					"/>
				</g>
				<g>
					<polygon class="st4" points="638.34,178.87 621.64,175.77 621.64,94.27 638.34,92.36 					"/>
				</g>
				<g>
					<polygon class="st4" points="659.45,71.62 641.52,74.73 641.52,58.53 659.45,54.42 					"/>
				</g>
				<g>
					<polygon class="st4" points="659.45,54.42 641.52,58.53 616.98,40.69 633.4,35.48 					"/>
				</g>
				<g>
					<polygon class="st4" points="663.49,71.61 645.32,74.73 645.32,74.42 663.49,71.29 					"/>
				</g>
				<g>
					<polygon class="st4" points="663.49,71.29 645.32,74.42 641.52,74.73 659.45,71.62 					"/>
				</g>
				<g>
					<polygon class="st30" points="634.72,31.47 663.49,52.37 663.49,71.29 659.45,71.62 659.45,54.42 633.4,35.48 345.99,35.87 
						345.99,31.88 					"/>
				</g>
				<g>
					<polygon class="st20" points="659.83,157.84 641.88,155.95 675.18,155.97 695.19,157.85 					"/>
				</g>
				<g>
					<polygon class="st4" points="695.19,92.33 675.18,94.25 641.88,94.26 659.83,92.35 					"/>
				</g>
				<g>
					<polygon class="st30" points="695.19,71.26 695.19,92.33 659.83,92.35 659.83,114.56 695.19,114.55 695.19,135.62 
						659.83,135.62 659.83,157.84 695.19,157.85 695.19,178.92 638.34,178.87 638.34,92.36 631.34,92.36 635.93,71.31 659.45,71.29 
						659.45,71.62 663.49,71.61 663.49,71.29 					"/>
				</g>
			</g>
		</g>
	</g>
</g>

</svg>
