<?xml version="1.0" encoding="utf-8"?>
<!-- Generator: Adobe Illustrator 23.0.1, SVG Export Plug-In . SVG Version: 6.00 Build 0)  -->
<svg version="1.1" id="Layer_1" xmlns="http://www.w3.org/2000/svg" xmlns:xlink="http://www.w3.org/1999/xlink" x="0px" y="0px"
	 viewBox="0 0 300 300" style="enable-background:new 0 0 300 300;" xml:space="preserve">
<style type="text/css">
	.st0{fill:#FFFFFF;}
</style>
<g>
	<path class="st0" d="M106.59,151.89c0.02-23.41,19-42.23,42.58-42.22c23.15,0.01,42.05,19.09,42.04,42.41
		c-0.02,23.63-18.89,42.12-42.97,42.09C125.28,194.14,106.57,175.15,106.59,151.89z"/>
	<path class="st0" d="M87.35,162.56c-6.63,1.19-12.94,2.31-19.45,3.48c-0.39-1.95-1.06-3.44-0.9-4.84c0.64-5.75-2.3-9.08-7.14-11.25
		c-2.98-1.34-3.78-3.4-3.02-6.63c1.55-6.53,2.82-13.14,4.05-19.75c0.25-1.35,0.16-2.97-0.37-4.21c-2.13-5.06-4.57-9.98-6.72-15.03
		c-0.47-1.1-0.7-2.78-0.19-3.74c5.88-10.98,13.33-20.76,23.01-29.37C82.36,77.57,88,83.82,93.38,89.79
		c6.61-4.08,12.7-8.47,19.35-11.73c4.4-2.16,7.05-4.57,8.04-9.5c0.97-4.86,2.9-9.54,4.58-14.23c0.35-0.99,1.39-2.29,2.28-2.44
		c6.6-1.11,13.24-1.96,20.45-2.97c0,13.92,0,26.95,0,40.3c-18.68,1.16-34.9,7.91-47,22.67C89.05,126.54,84.51,143.47,87.35,162.56z"
		/>
	<path class="st0" d="M199.27,114.3c5.39-4,10.47-7.78,15.96-11.86c1.56,2.36,3.13,4.43,4.36,6.68c1.29,2.36,2.8,3.59,5.76,3.78
		c8.38,0.54,8.49,0.69,11.12,8.91c1.55,4.86,2.49,9.91,3.98,14.79c0.49,1.59,1.54,3.37,2.86,4.29c5.21,3.64,10.68,6.93,15.95,10.49
		c1,0.67,2.24,2.01,2.22,3.01c-0.3,13.06-2.72,25.7-7.71,38.2c-15.42-6.02-30.61-11.94-46.32-18.06
		C215.3,153.15,211.95,133.27,199.27,114.3z"/>
	<path class="st0" d="M191.83,234.41c-4.84-9.41-9.27-18.03-13.87-27c10.87-5.79,19.24-13.94,25.59-24.76
		c11.58,6.49,22.93,12.85,35.25,19.76c-4.48,5.98-8.62,11.65-12.98,17.14c-0.49,0.62-2.35,0.49-3.45,0.21
		c-5.79-1.48-10.5-0.72-15.14,3.85C202.95,227.81,197.33,230.64,191.83,234.41z"/>
	<path class="st0" d="M165.28,212.17c1.78,6.61,3.43,12.72,5.36,19.88c-6.75,0.85-13.18,2.68-19.41,2.17
		c-8.1-0.66-13.87,1.73-18.37,8.23c-1.12,1.62-3.03,2.71-4.09,4.35c-2.83,4.4-6.38,4.71-10.82,2.71c-3.74-1.68-7.66-2.97-11.47-4.5
		c-0.91-0.36-1.72-0.96-2.88-1.62c5.84-11.77,11.63-23.45,17.61-35.5C135.31,214.46,149.83,216.37,165.28,212.17z"/>
	<path class="st0" d="M157.34,89.83c1.4-10.11,2.71-19.59,4.08-29.44c8.74,0.92,16.76,3.33,24.44,6.88
		c0.85,0.39,1.38,2.22,1.46,3.41c0.38,5.72,0.4,11.47,0.91,17.17c0.14,1.57,1.19,3.4,2.39,4.47c4.33,3.9,8.91,7.52,13.85,11.63
		c-2.94,2.57-5.32,4.64-7.96,6.95C185.94,99.35,172.99,92.47,157.34,89.83z"/>
	<path class="st0" d="M113.47,203.32c-5.7,8.32-11.18,16.32-16.87,24.62c-7.18-4.72-13.27-10.32-18.5-16.82
		c-0.61-0.76-0.48-2.6-0.03-3.66c2.3-5.39,4.97-10.62,7.16-16.05c0.59-1.46,0.4-3.57-0.17-5.09c-2.1-5.53-4.52-10.95-6.65-16.01
		c0.82-0.87,0.96-1.17,1.15-1.21c2.78-0.6,6.07-2.3,8.21-1.38c1.77,0.77,2.22,4.64,3.21,7.16
		C95.52,186.48,102.88,195.86,113.47,203.32z"/>
</g>
</svg>
