<?xml version="1.0" encoding="utf-8"?>
<!-- Generator: Adobe Illustrator 23.0.1, SVG Export Plug-In . SVG Version: 6.00 Build 0)  -->
<svg version="1.1" id="Layer_1" xmlns="http://www.w3.org/2000/svg" xmlns:xlink="http://www.w3.org/1999/xlink" x="0px" y="0px"
	 viewBox="0 0 300 300" style="enable-background:new 0 0 300 300;" xml:space="preserve">
<style type="text/css">
	.st0{fill:#FFFFFF;}
</style>
<g>
	<path class="st0" d="M54.9,149.08c0.91-6.78,1.93-13.54,2.62-20.34c0.14-1.42-0.54-3.39-1.55-4.4c-6.64-6.61-9.39-14.41-6.93-23.49
		c2.38-8.76,8.32-14.47,17.17-16.48c3.4-0.77,7.22-0.61,10.67,0.06c2.59,0.5,4.07,0.04,5.84-1.71
		c13.06-12.95,28.44-22.05,46.48-25.75c30.7-6.3,58.38,0.33,82.42,20.86c0.28,0.24,0.59,0.47,0.84,0.75
		c3.97,4.45,7.81,6.87,14.83,5.41c9.67-2.01,19.39,5.11,23.03,14.29c3.66,9.23,1.17,19.64-6.49,26.17
		c-1.79,1.53-2.15,2.95-1.67,5.14c9.83,45.1-14.94,90.82-58.16,107.5c-0.23,0.09-0.43,0.27-0.67,0.33
		c-6.18,1.47-10.29,4.04-12.31,11.26c-2.78,9.95-13.17,15.18-23.77,14.29c-9.67-0.81-18.19-8.51-20.16-18.78
		c-0.51-2.68-1.61-3.71-3.98-4.44c-24.47-7.58-43.2-22.45-55.79-44.77C59.31,180.81,55.37,165.48,54.9,149.08z M88.07,90.63
		c7.32,8.36,8.9,17.82,3.5,27.59c-5.24,9.48-13.95,13.02-24.57,11.79c-2.78,7.47-3.43,22.9-1.14,34.07
		c6.8,33.09,26.2,55.22,58.13,66.36c2.55,0.89,3.99,0.82,5.61-1.96c5.67-9.79,16.72-14.04,27.3-10.73
		c6.93,2.16,11.58,7.08,14.75,13.4c41.55-8.8,72.8-55.77,61.08-100.79c-20.52,2.63-36.54-20.85-21.05-39.8
		C179.26,54.71,119.94,55.26,88.07,90.63z"/>
	<path class="st0" d="M150.01,105.71c24.48-0.19,43.92,21.06,43.3,44.56c-0.62,23.24-20.15,42.52-44.01,42.38
		c-23.56-0.15-42.91-19.72-42.95-43.46C106.31,125.17,125.94,105.62,150.01,105.71z"/>
</g>
</svg>
