<?xml version="1.0" encoding="utf-8"?>
<!-- Generator: Adobe Illustrator 23.0.1, SVG Export Plug-In . SVG Version: 6.00 Build 0)  -->
<svg version="1.1" id="Layer_1" xmlns="http://www.w3.org/2000/svg" xmlns:xlink="http://www.w3.org/1999/xlink" x="0px" y="0px"
	 viewBox="0 0 250 250" style="enable-background:new 0 0 250 250;" xml:space="preserve">
<style type="text/css">
	.st0{fill:#FFFFFF;}
</style>
<g>
	<path class="st0" d="M209.88,242.02c-10.33,0-20.65-0.15-30.98,0.07c-3.91,0.08-7.19-0.71-9.88-3.59
		c-6.56-7.04-14.48-9.22-24.14-8.7c-14.78,0.78-29.64,0.33-44.46,0.13c-4.09-0.06-7.58,0.64-10.34,3.72
		c-6.52,7.25-14.63,8.9-24.18,8.57c-18.46-0.64-36.97-0.26-55.45-0.1c-3.4,0.03-5.66-0.8-7.05-4.02c-0.92-2.13-2.57-3.96-3.32-6.12
		c-0.57-1.66-0.91-3.96-0.2-5.42c8.31-17.04,16.78-34.01,25.42-50.88c0.71-1.38,2.94-2.78,4.48-2.8
		c15.49-0.19,30.98,0.01,46.46-0.15c3.49-0.04,3.96,1.85,4.67,4.46c5.33,19.44,22.08,33.4,41.67,34.91
		c19.97,1.54,38.58-9.41,46.84-27.58c0.69-1.51,1.6-3.05,1.76-4.64c0.59-6.16,4.02-7.38,9.73-7.21c13.64,0.42,27.31,0.21,40.96,0.02
		c3.27-0.04,5.03,0.96,6.5,3.97c7.88,16.14,15.92,32.21,24.1,48.2c1.62,3.17,1.22,5.46-0.15,8.7c-2.97,7.01-7.46,9.31-15,8.68
		c-9.1-0.76-18.3-0.18-27.46-0.18C209.88,242.03,209.88,242.03,209.88,242.02z"/>
	<path class="st0" d="M126.25,72.4c-10.32,0-20.65-0.14-30.97,0.08c-3.48,0.07-5.11-1.49-7.1-4.12c-4.6-6.08-4.2-11.32-0.53-17.95
		c7.81-14.1,14.71-28.71,21.76-43.22c1.53-3.15,3.39-4.28,6.85-4.15c7.15,0.27,14.32,0.19,21.48,0.03c2.68-0.06,4.14,0.77,5.36,3.25
		c8.22,16.71,16.7,33.3,24.85,50.05c0.82,1.68,0.46,4.29-0.12,6.23c-2.47,8.28-8.15,10.78-16.62,9.96
		C142.96,71.78,134.57,72.4,126.25,72.4z"/>
	<path class="st0" d="M118.62,87.96c0,10.44,0,20.07,0,30.11c-1.27,0.39-2.64,0.82-4.03,1.23c-17.39,5.07-28.74,16.26-33.64,33.69
		c-0.9,3.18-2.12,4.32-5.38,4.24c-7.66-0.19-15.33-0.21-22.99,0.03c-3.3,0.1-4.83-1.34-6.72-3.87c-4.5-6.04-4.54-11.24-0.77-17.99
		c7.93-14.23,14.74-29.09,22.16-43.61c0.79-1.54,2.59-3.63,3.95-3.65C86.83,87.87,102.47,87.96,118.62,87.96z"/>
	<path class="st0" d="M134.36,118c0-9.91,0-19.55,0-29.62c1.54-0.15,2.97-0.4,4.39-0.41c13.66-0.03,27.33,0.06,40.99-0.09
		c3.1-0.03,4.75,0.99,6.12,3.78c8.06,16.43,16.25,32.8,24.57,49.11c1.39,2.73,0.83,4.66-0.26,7.33c-2.98,7.31-7.72,10.23-15.71,9.22
		c-5.9-0.75-11.99,0-17.97-0.3c-1.37-0.07-3.45-1.38-3.89-2.59C164.56,132.34,157.47,125.46,134.36,118z"/>
	<path class="st0" d="M94.93,164.8c0.06-17.62,14.23-31.65,31.85-31.55c17.5,0.1,31.47,14.43,31.29,32.11
		c-0.17,17.37-14.29,31.37-31.6,31.35C108.95,196.68,94.87,182.43,94.93,164.8z"/>
</g>
</svg>
