<?xml version="1.0" encoding="utf-8"?>
<!-- Generator: Adobe Illustrator 23.0.1, SVG Export Plug-In . SVG Version: 6.00 Build 0)  -->
<svg version="1.1" id="Layer_1" xmlns="http://www.w3.org/2000/svg" xmlns:xlink="http://www.w3.org/1999/xlink" x="0px" y="0px"
	 viewBox="0 0 300 300" style="enable-background:new 0 0 300 300;" xml:space="preserve">
<style type="text/css">
	.st0{fill:#FFFFFF;}
</style>
<g>
	<path class="st0" d="M272.86,49.29c-0.99,1.68-1.77,3.11-2.65,4.49c-15.13,23.89-30.3,47.76-45.34,71.7
		c-1.74,2.77-3.65,4.25-7.03,4.61c-6.27,0.66-12.46,2.12-18.73,2.78c-1.67,0.18-4.24-0.79-5.18-2.1
		c-8.5-11.92-16.8-23.98-24.95-36.14c-0.85-1.27-1.01-3.82-0.32-5.17c3.25-6.36,6.79-12.59,10.52-18.69
		c0.92-1.5,2.78-3.01,4.45-3.37c28.77-6.14,57.58-12.11,86.38-18.09C270.79,49.15,271.62,49.29,272.86,49.29z"/>
	<path class="st0" d="M27.52,48.66c13.41,2.75,25.59,5.22,37.77,7.76c17.08,3.56,34.18,7.07,51.21,10.87
		c2.09,0.47,4.42,2.22,5.59,4.05c3.66,5.74,6.98,11.72,10.04,17.8c0.75,1.49,0.71,4.23-0.19,5.58
		c-8.12,12.18-16.45,24.23-24.93,36.16c-0.88,1.23-3.23,2.23-4.75,2.05c-7.1-0.81-14.15-1.99-21.19-3.26
		c-1.3-0.23-2.87-1.17-3.56-2.27C61.05,101.62,44.69,75.77,27.52,48.66z"/>
	<path class="st0" d="M150.27,283.97c-5.85-13.82-11.56-27.28-17.25-40.74c-5.96-14.09-12.03-28.13-17.74-42.32
		c-0.86-2.13-0.72-5.24,0.17-7.39c2.53-6.14,5.82-11.96,8.55-18.02c1.13-2.51,2.61-3.34,5.32-3.31c14.15,0.13,28.31,0.14,42.46-0.01
		c2.79-0.03,4.15,0.98,5.25,3.43c2.82,6.21,6.06,12.22,8.78,18.47c0.76,1.74,0.97,4.32,0.26,6.02
		c-11.37,27.33-22.93,54.57-34.47,81.83C151.36,282.51,150.92,283,150.27,283.97z"/>
	<path class="st0" d="M150.32,162.94c-15.98-0.06-28.89-12.98-28.87-28.88c0.03-16.01,13.3-29.02,29.46-28.86
		c15.81,0.15,28.9,13.51,28.62,29.21C179.25,150.43,166.38,163.01,150.32,162.94z"/>
	<path class="st0" d="M48.18,190.62c21.11-16.77,42.22-33.55,63.85-50.73c4.42,7.31,8.69,14.36,13.35,22.06
		c-25.94,9.97-51.44,19.77-76.95,29.58C48.34,191.23,48.26,190.92,48.18,190.62z"/>
	<path class="st0" d="M252.63,191.53c-25.38-9.74-50.76-19.48-76.99-29.55c4.43-7.39,8.65-14.42,13.28-22.13
		c21.54,17.12,42.83,34.03,64.12,50.94C252.9,191.03,252.77,191.28,252.63,191.53z"/>
	<path class="st0" d="M162.05,99.23c-7.86,0-15.1,0-23.09,0c3.74-25.39,7.43-50.49,11.13-75.59c0.26-0.02,0.52-0.04,0.78-0.05
		C154.58,48.66,158.28,73.74,162.05,99.23z"/>
</g>
</svg>
