<?xml version="1.0" encoding="utf-8"?>
<!-- Generator: Adobe Illustrator 23.0.1, SVG Export Plug-In . SVG Version: 6.00 Build 0)  -->
<svg version="1.1" id="Layer_1" xmlns="http://www.w3.org/2000/svg" xmlns:xlink="http://www.w3.org/1999/xlink" x="0px" y="0px"
	 viewBox="0 0 900 300" style="enable-background:new 0 0 900 300;" xml:space="preserve">
<style type="text/css">
	.st0{fill:#800000;}
	.st1{enable-background:new    ;}
	.st2{clip-path:url(#SVGID_2_);enable-background:new    ;}
	.st3{fill:#292929;}
	.st4{clip-path:url(#SVGID_4_);enable-background:new    ;}
	.st5{clip-path:url(#SVGID_6_);enable-background:new    ;}
	.st6{fill:#DD0000;}
	.st7{clip-path:url(#SVGID_8_);enable-background:new    ;}
	.st8{clip-path:url(#SVGID_10_);enable-background:new    ;}
	.st9{clip-path:url(#SVGID_12_);enable-background:new    ;}
	.st10{fill:#8F0000;}
	.st11{clip-path:url(#SVGID_14_);enable-background:new    ;}
	.st12{clip-path:url(#SVGID_16_);enable-background:new    ;}
	.st13{clip-path:url(#SVGID_18_);enable-background:new    ;}
	.st14{clip-path:url(#SVGID_20_);enable-background:new    ;}
	.st15{clip-path:url(#SVGID_22_);enable-background:new    ;}
	.st16{fill:#A30000;}
	.st17{clip-path:url(#SVGID_24_);enable-background:new    ;}
	.st18{clip-path:url(#SVGID_26_);enable-background:new    ;}
	.st19{clip-path:url(#SVGID_28_);enable-background:new    ;}
	.st20{clip-path:url(#SVGID_30_);enable-background:new    ;}
	.st21{clip-path:url(#SVGID_32_);enable-background:new    ;}
	.st22{fill:#850000;}
	.st23{clip-path:url(#SVGID_34_);enable-background:new    ;}
	.st24{clip-path:url(#SVGID_36_);enable-background:new    ;}
	.st25{clip-path:url(#SVGID_38_);enable-background:new    ;}
	.st26{clip-path:url(#SVGID_40_);enable-background:new    ;}
	.st27{clip-path:url(#SVGID_42_);enable-background:new    ;}
	.st28{clip-path:url(#SVGID_44_);enable-background:new    ;}
</style>
<g>
	<polygon class="st0" points="26.1,112.11 71.14,116.56 63.33,116.57 17.35,112.12 	"/>
</g>
<g class="st1">
	<defs>
		<path id="SVGID_1_" class="st1" d="M115.18,24.7l35.61,13.72c0.41,0.37,0.78,0.71,1.13,1.02c0.35,0.32,0.68,0.61,1.01,0.91
			c0.33,0.3,0.66,0.6,1.01,0.91c0.35,0.32,0.72,0.65,1.13,1.02l-35.1-13.26c-0.46-0.41-0.87-0.78-1.27-1.14s-0.76-0.69-1.13-1.02
			s-0.74-0.67-1.13-1.02C116.05,25.49,115.64,25.12,115.18,24.7z"/>
	</defs>
	<use xlink:href="#SVGID_1_"  style="overflow:visible;fill:#292929;"/>
	<clipPath id="SVGID_2_">
		<use xlink:href="#SVGID_1_"  style="overflow:visible;"/>
	</clipPath>
	<g class="st2">
		<path class="st3" d="M115.18,24.7l35.61,13.72c0.41,0.37,0.78,0.71,1.13,1.02c0.35,0.32,0.68,0.61,1.01,0.91
			c0.33,0.3,0.66,0.6,1.01,0.91c0.35,0.32,0.72,0.65,1.13,1.02l-35.1-13.26c-0.46-0.41-0.87-0.78-1.27-1.14s-0.76-0.69-1.13-1.02
			s-0.74-0.67-1.13-1.02C116.05,25.49,115.64,25.12,115.18,24.7"/>
	</g>
</g>
<g>
	<polygon class="st3" points="98.84,24.74 136.18,38.45 138.78,63.74 101.75,53.03 	"/>
</g>
<g>
	<polygon class="st3" points="107.97,60.18 144.34,70.13 135.82,70.15 98.44,60.2 	"/>
</g>
<g class="st1">
	<defs>
		<path id="SVGID_3_" class="st1" d="M111.56,56.92l35.99,10.3c-0.31,0.28-0.58,0.53-0.85,0.77c-0.26,0.24-0.51,0.46-0.76,0.69
			c-0.25,0.22-0.5,0.45-0.76,0.69c-0.26,0.24-0.54,0.49-0.85,0.77l-36.37-9.96c0.34-0.31,0.65-0.59,0.95-0.86
			c0.29-0.27,0.57-0.52,0.85-0.77s0.55-0.5,0.85-0.77C110.9,57.51,111.21,57.23,111.56,56.92z"/>
	</defs>
	<use xlink:href="#SVGID_3_"  style="overflow:visible;fill:#292929;"/>
	<clipPath id="SVGID_4_">
		<use xlink:href="#SVGID_3_"  style="overflow:visible;"/>
	</clipPath>
	<g class="st4">
		<path class="st3" d="M111.56,56.92l35.99,10.3c-0.31,0.28-0.58,0.53-0.85,0.77c-0.26,0.24-0.51,0.46-0.76,0.69
			c-0.25,0.22-0.5,0.45-0.76,0.69c-0.26,0.24-0.54,0.49-0.85,0.77l-36.37-9.96c0.34-0.31,0.65-0.59,0.95-0.86
			c0.29-0.27,0.57-0.52,0.85-0.77s0.55-0.5,0.85-0.77C110.9,57.51,111.21,57.23,111.56,56.92"/>
	</g>
</g>
<g>
	<polygon class="st3" points="113.53,37.47 149.31,49.84 147.55,67.22 111.56,56.92 	"/>
</g>
<g>
	<polygon class="st3" points="119.98,29.02 155.07,42.28 157.28,63.7 122.44,52.98 	"/>
</g>
<g>
	<polygon class="st3" points="135.52,24.66 168.97,38.38 166.05,67.18 132.25,56.87 	"/>
</g>
<g>
	<polygon class="st3" points="147.6,31.8 179.77,44.76 179.78,51 147.61,38.78 	"/>
</g>
<g>
	<polygon class="st3" points="76.79,112.01 116.47,116.47 95.1,116.51 52.89,112.06 	"/>
</g>
<g>
	<polygon class="st3" points="128.66,60.13 162.84,70.1 154.32,70.11 119.13,60.15 	"/>
</g>
<g class="st1">
	<defs>
		<path id="SVGID_5_" class="st1" d="M132.25,56.87l33.8,10.31c-0.31,0.28-0.58,0.53-0.85,0.77s-0.51,0.46-0.76,0.69
			c-0.25,0.22-0.5,0.45-0.76,0.69c-0.26,0.24-0.54,0.49-0.85,0.77l-34.18-9.96c0.34-0.31,0.65-0.6,0.95-0.86
			c0.29-0.27,0.57-0.52,0.85-0.77c0.28-0.25,0.55-0.5,0.85-0.77C131.6,57.47,131.91,57.19,132.25,56.87z"/>
	</defs>
	<use xlink:href="#SVGID_5_"  style="overflow:visible;fill:#292929;"/>
	<clipPath id="SVGID_6_">
		<use xlink:href="#SVGID_5_"  style="overflow:visible;"/>
	</clipPath>
	<g class="st5">
		<path class="st3" d="M132.25,56.87l33.8,10.31c-0.31,0.28-0.58,0.53-0.85,0.77s-0.51,0.46-0.76,0.69
			c-0.25,0.22-0.5,0.45-0.76,0.69c-0.26,0.24-0.54,0.49-0.85,0.77l-34.18-9.96c0.34-0.31,0.65-0.6,0.95-0.86
			c0.29-0.27,0.57-0.52,0.85-0.77c0.28-0.25,0.55-0.5,0.85-0.77C131.6,57.47,131.91,57.19,132.25,56.87"/>
	</g>
</g>
<g>
	<path class="st6" d="M135.52,24.66l-3.27,32.21c-0.34,0.31-0.65,0.6-0.95,0.86c-0.29,0.27-0.57,0.52-0.85,0.77
		c-0.28,0.25-0.55,0.5-0.85,0.77c-0.29,0.27-0.6,0.55-0.95,0.86l-9.53,0.02c-0.35-0.31-0.66-0.59-0.95-0.86
		c-0.3-0.27-0.57-0.52-0.85-0.77s-0.56-0.5-0.85-0.77c-0.29-0.27-0.6-0.55-0.95-0.86l-2-19.43l-1.97,19.44
		c-0.34,0.31-0.65,0.59-0.95,0.86c-0.29,0.27-0.57,0.52-0.85,0.77s-0.55,0.5-0.85,0.77c-0.29,0.27-0.6,0.55-0.95,0.86l-9.53,0.02
		c-0.35-0.31-0.66-0.59-0.95-0.86s-0.57-0.52-0.85-0.77c-0.28-0.25-0.56-0.5-0.85-0.77c-0.29-0.27-0.6-0.55-0.95-0.86l-3.31-32.2
		l7.32-0.02l2.9,28.29l2.9-0.01l2.42-23.97c0.46-0.41,0.87-0.79,1.27-1.14s0.76-0.69,1.13-1.02c0.37-0.33,0.74-0.67,1.13-1.03
		c0.39-0.36,0.8-0.73,1.26-1.15l3.31-0.01c0.46,0.41,0.87,0.79,1.27,1.14c0.39,0.35,0.76,0.69,1.13,1.02s0.74,0.67,1.13,1.02
		s0.81,0.73,1.27,1.14l2.46,23.96l2.9-0.01l2.86-28.3L135.52,24.66z"/>
</g>
<g>
	<polygon class="st3" points="161.17,24.61 191.9,38.33 191.91,44.74 161.17,31.77 	"/>
</g>
<g>
	<polygon class="st3" points="161.17,31.77 191.91,44.74 179.77,44.76 147.6,31.8 	"/>
</g>
<g>
	<polygon class="st3" points="147.62,45.94 179.79,57.41 179.79,63.66 147.62,52.93 	"/>
</g>
<g class="st1">
	<defs>
		<path id="SVGID_7_" class="st1" d="M90.28,85.58l38.25,7.26c1.16,1.16,2.19,2.19,3.16,3.16c0.97,0.97,1.88,1.87,2.78,2.78
			c0.91,0.9,1.81,1.81,2.78,2.78c0.97,0.97,2,2,3.16,3.16l-36.84-5.86c-1.3-1.3-2.45-2.45-3.54-3.53c-1.08-1.08-2.1-2.09-3.11-3.11
			c-1.01-1.01-2.03-2.02-3.11-3.11C92.73,88.03,91.58,86.88,90.28,85.58z"/>
	</defs>
	<use xlink:href="#SVGID_7_"  style="overflow:visible;fill:#292929;"/>
	<clipPath id="SVGID_8_">
		<use xlink:href="#SVGID_7_"  style="overflow:visible;"/>
	</clipPath>
	<g class="st7">
		<path class="st3" d="M90.28,85.58l38.25,7.26c1.16,1.16,2.19,2.19,3.16,3.16c0.97,0.97,1.88,1.87,2.78,2.78
			c0.91,0.9,1.81,1.81,2.78,2.78c0.97,0.97,2,2,3.16,3.16l-36.84-5.86c-1.3-1.3-2.45-2.45-3.54-3.53c-1.08-1.08-2.1-2.09-3.11-3.11
			c-1.01-1.01-2.03-2.02-3.11-3.11C92.73,88.03,91.58,86.88,90.28,85.58"/>
	</g>
</g>
<g>
	<polygon class="st3" points="161.18,38.75 191.92,50.98 191.92,57.38 161.19,45.91 	"/>
</g>
<g>
	<polygon class="st3" points="161.19,45.91 191.92,57.38 179.79,57.41 147.62,45.94 	"/>
</g>
<g>
	<polygon class="st3" points="161.2,60.07 191.93,70.04 173.25,70.07 140.31,60.11 	"/>
</g>
<g>
	<polygon class="st3" points="161.19,52.91 191.93,63.63 191.93,70.04 161.2,60.07 	"/>
</g>
<g>
	<polygon class="st6" points="161.17,24.61 161.17,31.77 147.6,31.8 147.61,38.78 161.18,38.75 161.19,45.91 147.62,45.94 
		147.62,52.93 161.19,52.91 161.2,60.07 140.31,60.11 140.28,24.65 	"/>
</g>
<g>
	<polygon class="st3" points="52.89,112.06 95.1,116.51 95.15,189.93 52.94,194.18 	"/>
</g>
<g>
	<polygon class="st3" points="103.6,124.88 140.44,127.98 116.48,128.02 76.8,124.93 	"/>
</g>
<g>
	<polygon class="st3" points="103.58,98.86 140.42,104.71 140.44,127.98 103.6,124.88 	"/>
</g>
<g>
	<polygon class="st3" points="196.77,31.69 223.74,44.67 221.14,44.68 193.87,31.7 	"/>
</g>
<g class="st1">
	<defs>
		<path id="SVGID_9_" class="st1" d="M200.08,24.52l26.61,13.74c0.31,0.28,0.59,0.53,0.85,0.76s0.51,0.46,0.76,0.68
			s0.5,0.45,0.76,0.69c0.26,0.24,0.54,0.49,0.85,0.77l-26.23-13.39c-0.35-0.31-0.66-0.59-0.95-0.86c-0.3-0.27-0.57-0.52-0.85-0.77
			s-0.56-0.5-0.85-0.77C200.74,25.11,200.43,24.83,200.08,24.52z"/>
	</defs>
	<use xlink:href="#SVGID_9_"  style="overflow:visible;fill:#292929;"/>
	<clipPath id="SVGID_10_">
		<use xlink:href="#SVGID_9_"  style="overflow:visible;"/>
	</clipPath>
	<g class="st8">
		<path class="st3" d="M200.08,24.52l26.61,13.74c0.31,0.28,0.59,0.53,0.85,0.76s0.51,0.46,0.76,0.68s0.5,0.45,0.76,0.69
			c0.26,0.24,0.54,0.49,0.85,0.77l-26.23-13.39c-0.35-0.31-0.66-0.59-0.95-0.86c-0.3-0.27-0.57-0.52-0.85-0.77s-0.56-0.5-0.85-0.77
			C200.74,25.11,200.43,24.83,200.08,24.52"/>
	</g>
</g>
<g>
	<polygon class="st3" points="122.76,111.93 157.57,116.4 149.75,116.41 114.02,111.94 	"/>
</g>
<g>
	<polygon class="st3" points="193.87,31.7 221.14,44.68 220.19,54.13 192.81,42.27 	"/>
</g>
<g>
	<polygon class="st3" points="198.6,49.42 225.37,60.52 219.54,60.53 192.08,49.44 	"/>
</g>
<g>
	<polygon class="st3" points="191.01,60.01 218.58,69.98 212.05,70 183.7,60.02 	"/>
</g>
<g>
	<polygon class="st3" points="192.08,49.44 219.54,60.53 218.58,69.98 191.01,60.01 	"/>
</g>
<g>
	<polygon class="st3" points="203.69,27.77 229.92,41.16 232.88,69.96 207,59.98 	"/>
</g>
<g>
	<polygon class="st3" points="219,31.65 243.61,44.63 243.62,50.87 219.01,38.63 	"/>
</g>
<g>
	<polygon class="st3" points="227.68,31.63 251.37,44.61 243.61,44.63 219,31.65 	"/>
</g>
<g class="st1">
	<defs>
		<path id="SVGID_11_" class="st1" d="M231.37,24.46l23.3,13.75c0.32,0.31,0.6,0.6,0.86,0.86c0.26,0.26,0.51,0.51,0.76,0.76
			s0.49,0.49,0.76,0.76c0.26,0.26,0.54,0.54,0.86,0.86l-22.91-13.36c-0.35-0.35-0.67-0.67-0.96-0.96c-0.3-0.29-0.57-0.57-0.85-0.85
			c-0.28-0.28-0.55-0.55-0.85-0.85C232.04,25.12,231.72,24.81,231.37,24.46z"/>
	</defs>
	<use xlink:href="#SVGID_11_"  style="overflow:visible;fill:#292929;"/>
	<clipPath id="SVGID_12_">
		<use xlink:href="#SVGID_11_"  style="overflow:visible;"/>
	</clipPath>
	<g class="st9">
		<path class="st3" d="M231.37,24.46l23.3,13.75c0.32,0.31,0.6,0.6,0.86,0.86c0.26,0.26,0.51,0.51,0.76,0.76s0.49,0.49,0.76,0.76
			c0.26,0.26,0.54,0.54,0.86,0.86l-22.91-13.36c-0.35-0.35-0.67-0.67-0.96-0.96c-0.3-0.29-0.57-0.57-0.85-0.85
			c-0.28-0.28-0.55-0.55-0.85-0.85C232.04,25.12,231.72,24.81,231.37,24.46"/>
	</g>
</g>
<g>
	<path class="st6" d="M203.69,27.77L207,59.98l-7.31,0.01l-1.09-10.57l-6.52,0.01l-1.07,10.57l-7.31,0.01l3.26-32.22
		c0.34-0.31,0.65-0.6,0.95-0.86c0.29-0.27,0.57-0.52,0.85-0.77s0.55-0.5,0.85-0.77c0.29-0.27,0.6-0.55,0.95-0.86l9.54-0.02
		c0.34,0.31,0.65,0.59,0.95,0.85c0.29,0.26,0.57,0.52,0.85,0.77s0.56,0.5,0.85,0.77C203.03,27.18,203.34,27.46,203.69,27.77z
		 M192.81,42.27l5.06-0.01l-1.09-10.57l-2.9,0.01L192.81,42.27"/>
</g>
<g>
	<polygon class="st3" points="207,59.98 232.88,69.96 226.34,69.97 199.69,59.99 	"/>
</g>
<g>
	<polygon class="st10" points="52.94,194.18 95.15,189.93 116.53,189.9 76.85,194.14 	"/>
</g>
<g>
	<polygon class="st3" points="227.7,45.79 251.38,57.27 243.62,57.29 219.02,45.8 	"/>
</g>
<g>
	<polygon class="st3" points="234.99,28.07 257.91,41.43 257.92,50.81 235,38.56 	"/>
</g>
<g class="st1">
	<defs>
		<path id="SVGID_13_" class="st1" d="M235,38.56l22.91,12.25c-0.31,0.32-0.6,0.6-0.86,0.86c-0.26,0.26-0.51,0.51-0.76,0.76
			c-0.25,0.25-0.49,0.5-0.76,0.76c-0.26,0.26-0.55,0.55-0.86,0.86l-23.3-11.87c0.35-0.35,0.67-0.67,0.97-0.96
			c0.3-0.3,0.57-0.57,0.85-0.85s0.55-0.55,0.84-0.85C234.34,39.23,234.65,38.92,235,38.56z"/>
	</defs>
	<use xlink:href="#SVGID_13_"  style="overflow:visible;fill:#292929;"/>
	<clipPath id="SVGID_14_">
		<use xlink:href="#SVGID_13_"  style="overflow:visible;"/>
	</clipPath>
	<g class="st11">
		<path class="st3" d="M235,38.56l22.91,12.25c-0.31,0.32-0.6,0.6-0.86,0.86c-0.26,0.26-0.51,0.51-0.76,0.76
			c-0.25,0.25-0.49,0.5-0.76,0.76c-0.26,0.26-0.55,0.55-0.86,0.86l-23.3-11.87c0.35-0.35,0.67-0.67,0.97-0.96
			c0.3-0.3,0.57-0.57,0.85-0.85s0.55-0.55,0.84-0.85C234.34,39.23,234.65,38.92,235,38.56"/>
	</g>
</g>
<g>
	<polygon class="st3" points="219.03,59.95 243.64,69.94 237.1,69.95 211.72,59.97 	"/>
</g>
<g>
	<polygon class="st3" points="219.02,45.8 243.62,57.29 243.64,69.94 219.03,59.95 	"/>
</g>
<g class="st1">
	<defs>
		<path id="SVGID_15_" class="st1" d="M231.39,42.19l23.3,11.87c0.32,0.31,0.6,0.59,0.87,0.86c0.26,0.26,0.51,0.51,0.76,0.75
			s0.49,0.49,0.76,0.76c0.26,0.26,0.54,0.55,0.86,0.86l-22.91-11.48c-0.35-0.35-0.67-0.67-0.96-0.96c-0.3-0.3-0.57-0.57-0.85-0.85
			c-0.28-0.28-0.55-0.55-0.85-0.84C232.06,42.86,231.74,42.54,231.39,42.19z"/>
	</defs>
	<use xlink:href="#SVGID_15_"  style="overflow:visible;fill:#292929;"/>
	<clipPath id="SVGID_16_">
		<use xlink:href="#SVGID_15_"  style="overflow:visible;"/>
	</clipPath>
	<g class="st12">
		<path class="st3" d="M231.39,42.19l23.3,11.87c0.32,0.31,0.6,0.59,0.87,0.86c0.26,0.26,0.51,0.51,0.76,0.75s0.49,0.49,0.76,0.76
			c0.26,0.26,0.54,0.55,0.86,0.86l-22.91-11.48c-0.35-0.35-0.67-0.67-0.96-0.96c-0.3-0.3-0.57-0.57-0.85-0.85
			c-0.28-0.28-0.55-0.55-0.85-0.84C232.06,42.86,231.74,42.54,231.39,42.19"/>
	</g>
</g>
<g>
	<polygon class="st3" points="76.84,181.22 116.52,178.34 140.49,178.3 103.65,181.17 	"/>
</g>
<g>
	<polygon class="st3" points="173.49,111.83 202.92,116.31 181.53,116.35 149.56,111.88 	"/>
</g>
<g>
	<polygon class="st3" points="247.03,31.59 268.67,44.58 268.67,50.82 247.04,38.57 	"/>
</g>
<g>
	<polygon class="st10" points="60.91,220.58 102.28,213.53 106.74,213.5 65.9,220.54 	"/>
</g>
<g>
	<polygon class="st3" points="260.61,24.4 280.81,38.15 280.81,44.55 260.62,31.56 	"/>
</g>
<g>
	<polygon class="st3" points="260.62,31.56 280.81,44.55 268.67,44.58 247.03,31.59 	"/>
</g>
<g>
	<polygon class="st3" points="235.01,45.81 257.92,57.29 257.94,69.91 235.03,59.92 	"/>
</g>
<g>
	<path class="st6" d="M235,38.56c-0.35,0.35-0.67,0.67-0.96,0.96c-0.29,0.3-0.57,0.57-0.84,0.85s-0.55,0.55-0.85,0.85
		c-0.3,0.3-0.61,0.61-0.97,0.96c0.36,0.35,0.67,0.67,0.97,0.96c0.3,0.29,0.57,0.57,0.85,0.84c0.28,0.28,0.55,0.55,0.85,0.85
		c0.3,0.3,0.61,0.61,0.96,0.96l0.02,14.11l-7.31,0.01l-0.02-14.15l-8.68,0.02l0.02,14.15l-7.31,0.01l-0.04-35.47l19.69-0.04
		c0.36,0.35,0.67,0.67,0.97,0.96c0.3,0.29,0.57,0.57,0.85,0.85c0.28,0.28,0.55,0.55,0.85,0.85c0.3,0.29,0.61,0.61,0.96,0.96
		L235,38.56z M227.69,38.61l-0.01-6.98L219,31.65l0.01,6.98L227.69,38.61"/>
</g>
<g>
	<polygon class="st3" points="235.03,59.92 257.94,69.91 251.4,69.92 227.71,59.94 	"/>
</g>
<g class="st1">
	<defs>
		<path id="SVGID_17_" class="st1" d="M186.97,85.39l28.01,7.29c1.16,1.16,2.2,2.19,3.17,3.16c0.97,0.97,1.88,1.87,2.78,2.78
			c0.91,0.9,1.81,1.81,2.78,2.78c0.97,0.97,2.01,2,3.17,3.16l-26.6-5.88c-1.3-1.3-2.46-2.45-3.54-3.53c-1.09-1.08-2.1-2.09-3.11-3.1
			c-1.01-1.01-2.03-2.02-3.11-3.11C189.43,87.85,188.27,86.69,186.97,85.39z"/>
	</defs>
	<use xlink:href="#SVGID_17_"  style="overflow:visible;fill:#292929;"/>
	<clipPath id="SVGID_18_">
		<use xlink:href="#SVGID_17_"  style="overflow:visible;"/>
	</clipPath>
	<g class="st13">
		<path class="st3" d="M186.97,85.39l28.01,7.29c1.16,1.16,2.2,2.19,3.17,3.16c0.97,0.97,1.88,1.87,2.78,2.78
			c0.91,0.9,1.81,1.81,2.78,2.78c0.97,0.97,2.01,2,3.17,3.16l-26.6-5.88c-1.3-1.3-2.46-2.45-3.54-3.53c-1.09-1.08-2.1-2.09-3.11-3.1
			c-1.01-1.01-2.03-2.02-3.11-3.11C189.43,87.85,188.27,86.69,186.97,85.39"/>
	</g>
</g>
<g>
	<polygon class="st3" points="247.05,45.74 268.68,57.23 268.69,63.48 247.05,52.73 	"/>
</g>
<g>
	<polygon class="st3" points="65.9,220.54 106.74,213.5 106.75,231.48 65.91,240.66 	"/>
</g>
<g>
	<polygon class="st3" points="260.63,45.71 280.83,57.2 268.68,57.23 247.05,45.74 	"/>
</g>
<g>
	<polygon class="st3" points="260.63,38.54 280.82,50.8 280.83,57.2 260.63,45.71 	"/>
</g>
<g>
	<path class="st6" d="M90.28,85.58c1.3,1.3,2.45,2.45,3.54,3.53c1.08,1.08,2.1,2.09,3.11,3.11c1.01,1.01,2.03,2.02,3.11,3.11
		c1.08,1.08,2.24,2.24,3.54,3.53l0.02,26.02l-26.8,0.05l-0.01-12.92l-23.9,0.04l0.05,82.12l23.91-0.04l-0.01-12.92l26.81-0.04
		l0.02,26.03c-1.3,1.3-2.45,2.46-3.54,3.55c-1.08,1.09-2.1,2.1-3.11,3.12s-2.02,2.03-3.11,3.12c-1.08,1.09-2.24,2.25-3.54,3.55
		l-24.49,0.04l-4.98-0.02l-21.47,0.06c-1.3-1.3-2.45-2.45-3.54-3.54c-1.08-1.08-2.1-2.1-3.11-3.11c-1.01-1.01-2.03-2.02-3.11-3.11
		c-1.08-1.08-2.24-2.24-3.54-3.54l-0.05-95.22l-8.74,0.02l5.71-26.41L90.28,85.58z"/>
</g>
<g>
	<polygon class="st3" points="103.65,181.17 140.49,178.3 140.51,201.57 103.67,207.2 	"/>
</g>
<g class="st1">
	<defs>
		<path id="SVGID_19_" class="st1" d="M103.67,207.2l36.84-5.63c-1.16,1.16-2.19,2.2-3.16,3.17c-0.97,0.97-1.87,1.88-2.78,2.79
			s-1.81,1.82-2.78,2.79c-0.97,0.97-2,2.01-3.16,3.17l-38.25,7.04c1.3-1.3,2.45-2.46,3.54-3.55c1.08-1.09,2.1-2.1,3.11-3.12
			s2.02-2.03,3.11-3.12C101.22,209.66,102.37,208.5,103.67,207.2z"/>
	</defs>
	<use xlink:href="#SVGID_19_"  style="overflow:visible;fill:#292929;"/>
	<clipPath id="SVGID_20_">
		<use xlink:href="#SVGID_19_"  style="overflow:visible;"/>
	</clipPath>
	<g class="st14">
		<path class="st3" d="M103.67,207.2l36.84-5.63c-1.16,1.16-2.19,2.2-3.16,3.17c-0.97,0.97-1.87,1.88-2.78,2.79
			s-1.81,1.82-2.78,2.79c-0.97,0.97-2,2.01-3.16,3.17l-38.25,7.04c1.3-1.3,2.45-2.46,3.54-3.55c1.08-1.09,2.1-2.1,3.11-3.12
			s2.02-2.03,3.11-3.12C101.22,209.66,102.37,208.5,103.67,207.2"/>
	</g>
</g>
<g>
	<polygon class="st3" points="260.64,52.7 280.84,63.46 280.85,69.86 260.65,59.87 	"/>
</g>
<g>
	<polygon class="st3" points="260.65,59.87 280.85,69.86 262.16,69.9 239.75,59.91 	"/>
</g>
<g>
	<polygon class="st6" points="260.61,24.4 260.62,31.56 247.03,31.59 247.04,38.57 260.63,38.54 260.63,45.71 247.05,45.74 
		247.05,52.73 260.64,52.7 260.65,59.87 239.75,59.91 239.71,24.44 	"/>
</g>
<g>
	<polygon class="st3" points="299.12,31.48 315.24,44.48 307.48,44.5 290.44,31.5 	"/>
</g>
<g>
	<polygon class="st3" points="149.63,194.02 181.6,189.79 203,189.75 173.56,193.98 	"/>
</g>
<g>
	<polygon class="st3" points="200.28,98.67 226.88,104.55 226.99,201.43 200.4,207.05 	"/>
</g>
<g>
	<polygon class="st3" points="221.4,111.74 245.76,116.24 237.95,116.25 212.66,111.76 	"/>
</g>
<g class="st1">
	<defs>
		<path id="SVGID_21_" class="st1" d="M302.81,24.31l15.73,13.76c0.32,0.31,0.6,0.6,0.87,0.86c0.26,0.26,0.51,0.51,0.76,0.76
			c0.25,0.25,0.49,0.49,0.76,0.76s0.55,0.54,0.86,0.86l-15.34-13.38c-0.35-0.35-0.67-0.67-0.96-0.96s-0.57-0.57-0.85-0.85
			c-0.28-0.28-0.55-0.55-0.85-0.85C303.48,24.97,303.16,24.66,302.81,24.31z"/>
	</defs>
	<clipPath id="SVGID_22_">
		<use xlink:href="#SVGID_21_"  style="overflow:visible;"/>
	</clipPath>
	<g class="st15">
		<path class="st16" d="M302.81,24.31l15.73,13.76c0.32,0.31,0.6,0.6,0.87,0.86c0.26,0.26,0.51,0.51,0.76,0.76
			c0.25,0.25,0.49,0.49,0.76,0.76s0.55,0.54,0.86,0.86l-15.34-13.38c-0.35-0.35-0.67-0.67-0.96-0.96s-0.57-0.57-0.85-0.85
			c-0.28-0.28-0.55-0.55-0.85-0.85C303.48,24.97,303.16,24.66,302.81,24.31"/>
	</g>
</g>
<g>
	<polygon class="st3" points="290.44,31.5 307.48,44.5 307.5,63.4 290.47,52.64 	"/>
</g>
<g>
	<polygon class="st3" points="149.56,111.88 181.53,116.35 181.6,189.79 149.63,194.02 	"/>
</g>
<g>
	<polygon class="st3" points="65.91,240.66 106.75,231.48 124.53,249.07 85.79,260.33 	"/>
</g>
<g>
	<polygon class="st3" points="302.85,59.78 318.58,69.79 304.21,69.82 286.78,59.82 	"/>
</g>
<g>
	<path class="st6" d="M302.81,24.31c0.36,0.35,0.67,0.67,0.97,0.96c0.3,0.29,0.57,0.57,0.85,0.85c0.28,0.28,0.55,0.55,0.85,0.85
		s0.61,0.61,0.96,0.96l0.04,28.23c-0.35,0.36-0.67,0.67-0.97,0.97c-0.3,0.3-0.57,0.57-0.85,0.85c-0.28,0.28-0.55,0.55-0.85,0.85
		c-0.29,0.3-0.61,0.61-0.96,0.96l-16.07,0.03c-0.36-0.35-0.67-0.67-0.97-0.96c-0.3-0.29-0.57-0.57-0.85-0.84
		c-0.28-0.28-0.55-0.55-0.85-0.85c-0.3-0.3-0.61-0.61-0.96-0.96l-0.04-28.23c0.35-0.35,0.67-0.67,0.96-0.97
		c0.29-0.3,0.57-0.57,0.85-0.85c0.28-0.28,0.55-0.55,0.85-0.85c0.3-0.3,0.61-0.61,0.97-0.96L302.81,24.31z M299.15,52.63
		l-0.03-21.15l-8.68,0.02l0.03,21.15L299.15,52.63"/>
</g>
<g>
	<polygon class="st3" points="306.43,27.92 321.78,41.3 321.81,66.54 306.47,56.15 	"/>
</g>
<g class="st1">
	<defs>
		<path id="SVGID_23_" class="st1" d="M306.47,56.15l15.34,10.39c-0.32,0.32-0.6,0.6-0.86,0.87c-0.26,0.27-0.51,0.51-0.76,0.76
			c-0.25,0.25-0.49,0.49-0.76,0.76c-0.26,0.26-0.54,0.55-0.86,0.86l-15.72-10c0.35-0.35,0.67-0.67,0.96-0.96
			c0.29-0.3,0.57-0.57,0.85-0.85c0.28-0.28,0.55-0.55,0.85-0.85C305.8,56.83,306.12,56.51,306.47,56.15z"/>
	</defs>
	<use xlink:href="#SVGID_23_"  style="overflow:visible;fill:#292929;"/>
	<clipPath id="SVGID_24_">
		<use xlink:href="#SVGID_23_"  style="overflow:visible;"/>
	</clipPath>
	<g class="st17">
		<path class="st3" d="M306.47,56.15l15.34,10.39c-0.32,0.32-0.6,0.6-0.86,0.87c-0.26,0.27-0.51,0.51-0.76,0.76
			c-0.25,0.25-0.49,0.49-0.76,0.76c-0.26,0.26-0.54,0.55-0.86,0.86l-15.72-10c0.35-0.35,0.67-0.67,0.96-0.96
			c0.29-0.3,0.57-0.57,0.85-0.85c0.28-0.28,0.55-0.55,0.85-0.85C305.8,56.83,306.12,56.51,306.47,56.15"/>
	</g>
</g>
<g>
	<polygon class="st3" points="318.49,37.82 332.55,50.15 332.58,69.76 318.52,59.75 	"/>
</g>
<g>
	<polygon class="st3" points="319.67,24.27 333.61,38.04 340.32,57.64 327.18,46.19 	"/>
</g>
<g>
	<polygon class="st3" points="318.52,59.75 332.58,69.76 326.03,69.77 311.2,59.77 	"/>
</g>
<g>
	<polygon class="st3" points="334.47,24.24 346.84,38.01 346.89,69.73 334.52,59.72 	"/>
</g>
<g>
	<polygon class="st3" points="346.59,31.38 357.68,44.4 357.68,50.64 346.6,38.37 	"/>
</g>
<g>
	<polygon class="st3" points="360.17,24.19 369.81,37.96 369.82,44.37 360.18,31.35 	"/>
</g>
<g>
	<polygon class="st3" points="360.18,31.35 369.82,44.37 357.68,44.4 346.59,31.38 	"/>
</g>
<g>
	<polygon class="st3" points="334.52,59.72 346.89,69.73 339.26,69.75 325.99,59.74 	"/>
</g>
<g>
	<polygon class="st6" points="334.47,24.24 334.52,59.72 325.99,59.74 318.49,37.82 318.52,59.75 311.2,59.77 311.15,24.29 
		319.67,24.27 327.18,46.19 327.15,24.26 	"/>
</g>
<g>
	<polygon class="st3" points="346.61,45.53 357.69,57.05 357.7,63.3 346.62,52.53 	"/>
</g>
<g>
	<polygon class="st3" points="360.2,45.51 369.84,57.02 357.69,57.05 346.61,45.53 	"/>
</g>
<g>
	<polygon class="st3" points="360.19,38.34 369.83,50.62 369.84,57.02 360.2,45.51 	"/>
</g>
<g>
	<path class="st6" d="M186.97,85.39c1.3,1.3,2.46,2.45,3.54,3.54c1.09,1.08,2.1,2.09,3.11,3.11c1.01,1.01,2.03,2.02,3.11,3.1
		c1.09,1.08,2.24,2.24,3.54,3.53l0.11,108.37c-1.3,1.3-2.45,2.46-3.54,3.55c-1.08,1.09-2.1,2.1-3.11,3.12
		c-1.01,1.02-2.02,2.03-3.11,3.12c-1.08,1.09-2.24,2.25-3.54,3.55l-50.97,0.08c-1.3-1.3-2.45-2.45-3.54-3.54
		c-1.08-1.08-2.1-2.1-3.11-3.11c-1.01-1.01-2.03-2.03-3.11-3.11c-1.09-1.08-2.24-2.24-3.54-3.54l-0.08-95.24l-8.74,0.02l5.71-26.42
		l29.81-0.06l23.92-0.04L186.97,85.39z M173.56,193.98l-0.08-82.15l-23.92,0.04l0.07,82.14L173.56,193.98"/>
</g>
<g class="st1">
	<defs>
		<path id="SVGID_25_" class="st1" d="M200.4,207.05l26.59-5.62c-1.16,1.16-2.19,2.2-3.16,3.17s-1.87,1.88-2.78,2.79
			c-0.91,0.91-1.81,1.82-2.78,2.79c-0.97,0.97-2,2.01-3.16,3.17l-28,7.03c1.3-1.3,2.45-2.46,3.54-3.55c1.08-1.09,2.1-2.1,3.11-3.12
			c1.01-1.02,2.02-2.03,3.11-3.12C197.94,209.51,199.1,208.35,200.4,207.05z"/>
	</defs>
	<use xlink:href="#SVGID_25_"  style="overflow:visible;fill:#292929;"/>
	<clipPath id="SVGID_26_">
		<use xlink:href="#SVGID_25_"  style="overflow:visible;"/>
	</clipPath>
	<g class="st18">
		<path class="st3" d="M200.4,207.05l26.59-5.62c-1.16,1.16-2.19,2.2-3.16,3.17s-1.87,1.88-2.78,2.79
			c-0.91,0.91-1.81,1.82-2.78,2.79c-0.97,0.97-2,2.01-3.16,3.17l-28,7.03c1.3-1.3,2.45-2.46,3.54-3.55c1.08-1.09,2.1-2.1,3.11-3.12
			c1.01-1.02,2.02-2.03,3.11-3.12C197.94,209.51,199.1,208.35,200.4,207.05"/>
	</g>
</g>
<g>
	<polygon class="st3" points="307.57,111.58 322.8,116.09 314.98,116.11 298.83,111.6 	"/>
</g>
<g>
	<polygon class="st3" points="360.21,52.5 369.85,63.28 369.86,69.69 360.22,59.67 	"/>
</g>
<g>
	<polygon class="st6" points="360.17,24.19 360.18,31.35 346.59,31.38 346.6,38.37 360.19,38.34 360.2,45.51 346.61,45.53 
		346.62,52.53 360.21,52.5 360.22,59.67 339.31,59.71 339.26,24.23 	"/>
</g>
<g>
	<polygon class="st3" points="360.22,59.67 369.86,69.69 351.17,69.72 339.31,59.71 	"/>
</g>
<g>
	<polygon class="st3" points="248.2,85.27 269.71,92.57 269.83,189.64 248.32,193.86 	"/>
</g>
<g>
	<polygon class="st3" points="248.32,193.86 269.83,189.64 309.28,189.58 292.45,193.79 	"/>
</g>
<g>
	<polygon class="st3" points="393.79,111.42 399.87,115.95 392.05,115.96 385.04,111.44 	"/>
</g>
<g>
	<polygon class="st3" points="292.45,193.79 309.28,189.58 309.31,213.2 292.48,220.22 	"/>
</g>
<g>
	<polygon class="st6" points="248.2,85.27 248.32,193.86 292.45,193.79 292.48,220.22 221.52,220.33 221.4,111.74 212.66,111.76 
		218.37,85.33 	"/>
</g>
<g>
	<polygon class="st3" points="334.38,85.11 346.76,92.43 346.9,189.52 334.53,193.72 	"/>
</g>
<g>
	<polygon class="st3" points="420.63,111.37 423.87,115.91 423.91,140.83 420.68,139.26 	"/>
</g>
<g>
	<polygon class="st3" points="334.53,193.72 346.9,189.52 386.35,189.45 378.67,193.65 	"/>
</g>
<g>
	<polygon class="st3" points="464.79,111.29 463.34,115.83 423.87,115.91 420.63,111.37 	"/>
</g>
<g>
	<polygon class="st3" points="475.15,111.27 472.6,115.82 477.69,92.17 480.84,84.82 	"/>
</g>
<g>
	<polygon class="st3" points="483.91,111.25 480.43,115.8 472.6,115.82 475.15,111.27 	"/>
</g>
<g>
	<polygon class="st6" points="334.38,85.11 334.53,193.72 378.67,193.65 378.71,220.08 307.72,220.19 307.57,111.58 298.83,111.6 
		304.52,85.17 	"/>
</g>
<g>
	<polygon class="st3" points="378.67,193.65 386.35,189.45 386.39,213.08 378.71,220.08 	"/>
</g>
<g>
	<polygon class="st3" points="420.72,165.69 423.95,164.46 423.99,189.39 420.77,193.58 	"/>
</g>
<g>
	<polygon class="st3" points="534.74,111.16 525.86,115.72 504.44,115.76 510.77,111.2 	"/>
</g>
<g>
	<polygon class="st3" points="420.77,193.58 423.99,189.39 463.47,189.33 464.94,193.51 	"/>
</g>
<g>
	<polygon class="st3" points="534.76,124.09 525.89,127.28 525.86,115.72 534.74,111.16 	"/>
</g>
<g>
	<polygon class="st3" points="572.06,111.09 559.22,115.66 564.31,92.01 577.75,84.64 	"/>
</g>
<g>
	<polygon class="st6" points="420.59,84.94 464.74,84.86 464.79,111.29 420.63,111.37 420.68,139.26 464.84,139.18 464.89,165.61 
		420.72,165.69 420.77,193.58 464.94,193.51 464.98,219.95 393.96,220.06 393.79,111.42 385.04,111.44 390.73,85 	"/>
</g>
<g>
	<polygon class="st3" points="561.63,124.04 549.9,127.23 525.89,127.28 534.76,124.09 	"/>
</g>
<g>
	<polygon class="st3" points="484.09,206.59 480.59,201.02 480.43,115.8 483.91,111.25 	"/>
</g>
<g>
	<polygon class="st3" points="597.49,111.04 581.96,115.61 559.22,115.66 572.06,111.09 	"/>
</g>
<g>
	<polygon class="st3" points="510.93,193.43 504.58,189.26 526.01,189.22 534.9,193.39 	"/>
</g>
<g>
	<polygon class="st3" points="534.9,193.39 526.01,189.22 525.98,177.66 534.88,180.45 	"/>
</g>
<g>
	<polygon class="st3" points="534.88,180.45 525.98,177.66 550.01,177.62 561.76,180.41 	"/>
</g>
<g>
	<polygon class="st3" points="662.27,110.92 639.85,115.51 644.93,91.85 667.95,84.46 	"/>
</g>
<g>
	<polygon class="st3" points="649.81,110.94 628.72,115.53 605.98,115.57 624.37,110.99 	"/>
</g>
<g>
	<path class="st6" d="M548.23,84.69c1.3,1.3,2.46,2.45,3.55,3.54c1.09,1.08,2.11,2.1,3.12,3.11c1.02,1.01,2.03,2.03,3.12,3.11
		c1.09,1.08,2.25,2.24,3.55,3.54l0.05,26.06l-26.87,0.05l-0.03-12.93l-23.96,0.04l0.16,82.23l23.97-0.04l-0.03-12.94l26.88-0.04
		l0.05,26.06c-1.3,1.3-2.46,2.46-3.54,3.55s-2.1,2.11-3.11,3.12c-1.01,1.02-2.03,2.03-3.11,3.12c-1.08,1.09-2.24,2.25-3.54,3.55
		l-51.07,0.08c-1.3-1.3-2.46-2.46-3.55-3.54c-1.09-1.08-2.11-2.1-3.12-3.11c-1.02-1.01-2.03-2.03-3.12-3.11
		c-1.09-1.08-2.25-2.24-3.55-3.54l-0.18-95.34l-8.77,0.02l5.69-26.45L548.23,84.69z"/>
</g>
<g>
	<polygon class="st3" points="671.03,110.91 647.68,115.49 639.85,115.51 662.27,110.92 	"/>
</g>
<g>
	<polygon class="st3" points="85.79,260.33 124.53,249.07 541.45,248.45 552.18,259.66 	"/>
</g>
<g>
	<polygon class="st6" points="65.9,220.54 65.91,240.66 85.79,260.33 552.18,259.66 552.19,264.67 83.73,265.34 60.93,242.75 
		60.91,220.58 	"/>
</g>
<g>
	<polygon class="st3" points="597.73,219.74 582.16,212.77 581.96,115.61 597.49,111.04 	"/>
</g>
<g>
	<polygon class="st3" points="708.45,110.84 681.13,115.43 686.21,91.77 714.14,84.37 	"/>
</g>
<g>
	<polygon class="st3" points="717.21,110.82 688.96,115.42 681.13,115.43 708.45,110.84 	"/>
</g>
<g>
	<polygon class="st6" points="649.75,84.5 649.81,110.94 624.37,110.99 624.61,219.7 597.73,219.74 597.49,111.04 572.06,111.09 
		577.75,84.64 	"/>
</g>
<g>
	<polygon class="st3" points="618.8,274.62 600.99,261.82 608.76,261.81 627.49,274.61 	"/>
</g>
<g>
	<polygon class="st3" points="669.82,268.16 646.59,256.05 646.55,236.4 669.77,246.17 	"/>
</g>
<g>
	<polygon class="st3" points="668.65,281.73 645.54,268.18 638.8,248.54 661.1,259.77 	"/>
</g>
<g>
	<polygon class="st3" points="653.81,281.75 632.28,268.2 632.21,236.42 653.73,246.2 	"/>
</g>
<g>
	<polygon class="st3" points="640.28,281.77 620.19,268.21 620.12,236.44 640.2,246.22 	"/>
</g>
<g>
	<polygon class="st3" points="627.49,274.61 608.76,261.81 608.72,242.87 627.45,253.42 	"/>
</g>
<g>
	<polygon class="st3" points="611.47,278.19 594.44,265.01 594.39,239.72 611.41,249.89 	"/>
</g>
<g>
	<polygon class="st3" points="597.89,246.28 582.31,236.49 588.86,236.48 605.23,246.27 	"/>
</g>
<g>
	<polygon class="st3" points="591.67,274.66 576.75,261.86 582.36,261.85 597.96,274.65 	"/>
</g>
<g class="st1">
	<defs>
		<path id="SVGID_27_" class="st1" d="M615.1,281.81l-17.42-13.56c-0.32-0.32-0.6-0.6-0.86-0.86c-0.26-0.26-0.51-0.51-0.76-0.76
			s-0.49-0.49-0.76-0.76c-0.26-0.26-0.55-0.54-0.86-0.86l17.03,13.18c0.35,0.35,0.67,0.67,0.97,0.96c0.3,0.29,0.57,0.57,0.85,0.85
			c0.28,0.28,0.55,0.55,0.85,0.85S614.75,281.45,615.1,281.81z"/>
	</defs>
	<use xlink:href="#SVGID_27_"  style="overflow:visible;fill:#292929;"/>
	<clipPath id="SVGID_28_">
		<use xlink:href="#SVGID_27_"  style="overflow:visible;"/>
	</clipPath>
	<g class="st19">
		<path class="st3" d="M615.1,281.81l-17.42-13.56c-0.32-0.32-0.6-0.6-0.86-0.86c-0.26-0.26-0.51-0.51-0.76-0.76
			s-0.49-0.49-0.76-0.76c-0.26-0.26-0.55-0.54-0.86-0.86l17.03,13.18c0.35,0.35,0.67,0.67,0.97,0.96c0.3,0.29,0.57,0.57,0.85,0.85
			c0.28,0.28,0.55,0.55,0.85,0.85S614.75,281.45,615.1,281.81"/>
	</g>
</g>
<g>
	<polygon class="st3" points="597.96,274.65 582.36,261.85 582.31,236.49 597.89,246.28 	"/>
</g>
<g>
	<polygon class="st3" points="584.33,268.77 570.18,256.59 576.74,256.58 591.66,268.76 	"/>
</g>
<g class="st1">
	<defs>
		<path id="SVGID_29_" class="st1" d="M611.41,249.89l-17.02-10.17c0.32-0.32,0.6-0.6,0.86-0.86s0.51-0.51,0.76-0.76
			s0.49-0.5,0.76-0.76s0.54-0.55,0.86-0.86l17.41,9.79c-0.35,0.35-0.67,0.67-0.96,0.97c-0.29,0.3-0.57,0.57-0.85,0.85
			c-0.28,0.28-0.55,0.55-0.85,0.85C612.08,249.22,611.76,249.54,611.41,249.89z"/>
	</defs>
	<use xlink:href="#SVGID_29_"  style="overflow:visible;fill:#292929;"/>
	<clipPath id="SVGID_30_">
		<use xlink:href="#SVGID_29_"  style="overflow:visible;"/>
	</clipPath>
	<g class="st20">
		<path class="st3" d="M611.41,249.89l-17.02-10.17c0.32-0.32,0.6-0.6,0.86-0.86s0.51-0.51,0.76-0.76s0.49-0.5,0.76-0.76
			s0.54-0.55,0.86-0.86l17.41,9.79c-0.35,0.35-0.67,0.67-0.96,0.97c-0.29,0.3-0.57,0.57-0.85,0.85c-0.28,0.28-0.55,0.55-0.85,0.85
			C612.08,249.22,611.76,249.54,611.41,249.89"/>
	</g>
</g>
<g>
	<polygon class="st3" points="584.35,278.22 570.2,265.04 570.18,256.59 584.33,268.77 	"/>
</g>
<g class="st1">
	<defs>
		<path id="SVGID_31_" class="st1" d="M587.98,281.85l-14.53-13.56c-0.32-0.32-0.6-0.6-0.86-0.86c-0.26-0.26-0.51-0.51-0.76-0.76
			c-0.25-0.25-0.49-0.49-0.76-0.76c-0.26-0.26-0.55-0.55-0.86-0.86l14.15,13.18c0.35,0.36,0.67,0.67,0.97,0.97
			c0.3,0.3,0.57,0.57,0.85,0.85c0.28,0.28,0.55,0.55,0.85,0.85C587.31,281.18,587.62,281.49,587.98,281.85z"/>
	</defs>
	<clipPath id="SVGID_32_">
		<use xlink:href="#SVGID_31_"  style="overflow:visible;"/>
	</clipPath>
	<g class="st21">
		<path class="st22" d="M587.98,281.85l-14.53-13.56c-0.32-0.32-0.6-0.6-0.86-0.86c-0.26-0.26-0.51-0.51-0.76-0.76
			c-0.25-0.25-0.49-0.49-0.76-0.76c-0.26-0.26-0.55-0.55-0.86-0.86l14.15,13.18c0.35,0.36,0.67,0.67,0.97,0.97
			c0.3,0.3,0.57,0.57,0.85,0.85c0.28,0.28,0.55,0.55,0.85,0.85C587.31,281.18,587.62,281.49,587.98,281.85"/>
	</g>
</g>
<g>
	<polygon class="st3" points="828.99,44.03 788.86,55.72 398.96,56.51 392.77,44.93 	"/>
</g>
<g>
	<polygon class="st3" points="615.02,246.25 597.62,236.47 612.03,236.45 631.14,246.23 	"/>
</g>
<g>
	<path class="st6" d="M605.23,246.27l0.07,31.92c-0.35,0.36-0.67,0.67-0.96,0.97c-0.29,0.3-0.57,0.57-0.85,0.85
		c-0.28,0.28-0.55,0.55-0.85,0.85s-0.61,0.61-0.96,0.97l-13.71,0.02c-0.35-0.35-0.67-0.67-0.97-0.96c-0.3-0.3-0.57-0.57-0.85-0.85
		c-0.28-0.28-0.55-0.55-0.85-0.85c-0.3-0.3-0.61-0.61-0.97-0.97l-0.02-9.45l7.33-0.01l0.01,5.9l6.28-0.01l-0.06-28.37L605.23,246.27
		z"/>
</g>
<g>
	<polygon class="st3" points="671.29,219.63 647.9,212.67 647.68,115.49 671.03,110.91 	"/>
</g>
<g>
	<polygon class="st3" points="640.2,246.22 620.12,236.44 626.68,236.43 647.54,246.21 	"/>
</g>
<g>
	<polygon class="st3" points="653.73,246.2 632.21,236.42 639.86,236.41 662.28,246.18 	"/>
</g>
<g>
	<polygon class="st3" points="847.63,63.82 805.52,73.41 788.86,55.72 828.99,44.03 	"/>
</g>
<g>
	<path class="st6" d="M631.14,246.23c0.35,0.35,0.67,0.67,0.97,0.96c0.3,0.3,0.57,0.57,0.85,0.85c0.28,0.28,0.55,0.55,0.85,0.85
		c0.3,0.3,0.61,0.61,0.97,0.96l0.06,28.3c-0.35,0.35-0.67,0.67-0.96,0.97c-0.29,0.3-0.57,0.57-0.85,0.85
		c-0.28,0.28-0.55,0.55-0.85,0.85c-0.29,0.3-0.61,0.61-0.96,0.97l-16.12,0.02c-0.35-0.35-0.67-0.67-0.97-0.96s-0.57-0.57-0.85-0.85
		c-0.28-0.28-0.55-0.55-0.85-0.85c-0.3-0.29-0.61-0.61-0.97-0.96l-0.06-28.3c0.35-0.35,0.67-0.67,0.96-0.97
		c0.29-0.3,0.57-0.57,0.85-0.85c0.28-0.28,0.55-0.55,0.85-0.85c0.29-0.3,0.61-0.61,0.96-0.97L631.14,246.23z M627.49,274.61
		l-0.05-21.19l-8.7,0.01l0.05,21.19L627.49,274.61"/>
</g>
<g>
	<polygon class="st3" points="847.69,84.18 805.57,91.6 805.52,73.41 847.63,63.82 	"/>
</g>
<g>
	<polygon class="st0" points="852.7,84.11 810.05,91.55 805.57,91.6 847.69,84.18 	"/>
</g>
<g>
	<polygon class="st3" points="803.56,110.66 766.13,115.27 771.2,91.61 809.23,84.19 	"/>
</g>
<g>
	<polygon class="st10" points="750.41,193.03 718.62,188.9 725.68,188.89 758.31,193.02 	"/>
</g>
<g>
	<polygon class="st3" points="724.59,207.19 695.55,201.55 688.96,115.42 717.21,110.82 	"/>
</g>
<g class="st1">
	<defs>
		<path id="SVGID_33_" class="st1" d="M737.92,219.53l-30.46-6.95c-1.15-1.06-2.18-2.01-3.15-2.91c-0.97-0.9-1.89-1.75-2.81-2.6
			c-0.92-0.85-1.83-1.7-2.8-2.6s-2-1.86-3.15-2.92l29.05,5.64c1.28,1.19,2.43,2.26,3.52,3.26c1.09,1.01,2.11,1.96,3.14,2.91
			s2.05,1.9,3.14,2.9C735.48,217.27,736.64,218.34,737.92,219.53z"/>
	</defs>
	<use xlink:href="#SVGID_33_"  style="overflow:visible;fill:#292929;"/>
	<clipPath id="SVGID_34_">
		<use xlink:href="#SVGID_33_"  style="overflow:visible;"/>
	</clipPath>
	<g class="st23">
		<path class="st3" d="M737.92,219.53l-30.46-6.95c-1.15-1.06-2.18-2.01-3.15-2.91c-0.97-0.9-1.89-1.75-2.81-2.6
			c-0.92-0.85-1.83-1.7-2.8-2.6s-2-1.86-3.15-2.92l29.05,5.64c1.28,1.19,2.43,2.26,3.52,3.26c1.09,1.01,2.11,1.96,3.14,2.91
			s2.05,1.9,3.14,2.9C735.48,217.27,736.64,218.34,737.92,219.53"/>
	</g>
</g>
<g>
	<polygon class="st6" points="697.86,84.4 698.19,219.59 671.29,219.63 671.03,110.91 662.27,110.92 667.95,84.46 	"/>
</g>
<g>
	<polygon class="st3" points="735.32,274.46 705.13,261.67 712.92,261.66 744.03,274.45 	"/>
</g>
<g class="st1">
	<defs>
		<path id="SVGID_35_" class="st1" d="M783.82,281.58l-35.35-13.54c-0.31-0.28-0.59-0.53-0.85-0.77c-0.26-0.24-0.51-0.46-0.76-0.69
			c-0.25-0.22-0.5-0.45-0.76-0.69c-0.26-0.24-0.54-0.49-0.85-0.77l34.96,13.2c0.35,0.31,0.66,0.6,0.95,0.86s0.58,0.52,0.85,0.77
			s0.56,0.5,0.85,0.77S783.47,281.26,783.82,281.58z"/>
	</defs>
	<use xlink:href="#SVGID_35_"  style="overflow:visible;fill:#292929;"/>
	<clipPath id="SVGID_36_">
		<use xlink:href="#SVGID_35_"  style="overflow:visible;"/>
	</clipPath>
	<g class="st24">
		<path class="st3" d="M783.82,281.58l-35.35-13.54c-0.31-0.28-0.59-0.53-0.85-0.77c-0.26-0.24-0.51-0.46-0.76-0.69
			c-0.25-0.22-0.5-0.45-0.76-0.69c-0.26-0.24-0.54-0.49-0.85-0.77l34.96,13.2c0.35,0.31,0.66,0.6,0.95,0.86s0.58,0.52,0.85,0.77
			s0.56,0.5,0.85,0.77S783.47,281.26,783.82,281.58"/>
	</g>
</g>
<g>
	<polygon class="st3" points="766.35,274.41 732.86,261.63 735.47,261.63 769.27,274.41 	"/>
</g>
<g>
	<polygon class="st3" points="790.05,274.38 754.04,261.6 756.56,236.23 792.87,245.99 	"/>
</g>
<g>
	<polygon class="st3" points="787.14,274.39 751.44,261.61 754.04,261.6 790.05,274.38 	"/>
</g>
<g>
	<polygon class="st3" points="780.2,278.32 745.24,265.12 743.41,247.7 778.16,258.82 	"/>
</g>
<g>
	<polygon class="st3" points="769.27,274.41 735.47,261.63 737.61,240.15 771.66,250.38 	"/>
</g>
<g>
	<polygon class="st3" points="759.42,278.35 726.67,265.15 723.64,236.28 756.03,246.05 	"/>
</g>
<g class="st1">
	<defs>
		<path id="SVGID_37_" class="st1" d="M763.04,281.6l-33.14-13.54c-0.31-0.28-0.59-0.53-0.85-0.77c-0.26-0.24-0.51-0.46-0.76-0.69
			c-0.25-0.22-0.5-0.45-0.76-0.69c-0.26-0.24-0.54-0.49-0.85-0.77l32.75,13.2c0.35,0.31,0.66,0.6,0.95,0.86
			c0.3,0.27,0.57,0.52,0.85,0.77c0.28,0.25,0.56,0.5,0.85,0.77S762.69,281.29,763.04,281.6z"/>
	</defs>
	<use xlink:href="#SVGID_37_"  style="overflow:visible;fill:#292929;"/>
	<clipPath id="SVGID_38_">
		<use xlink:href="#SVGID_37_"  style="overflow:visible;"/>
	</clipPath>
	<g class="st25">
		<path class="st3" d="M763.04,281.6l-33.14-13.54c-0.31-0.28-0.59-0.53-0.85-0.77c-0.26-0.24-0.51-0.46-0.76-0.69
			c-0.25-0.22-0.5-0.45-0.76-0.69c-0.26-0.24-0.54-0.49-0.85-0.77l32.75,13.2c0.35,0.31,0.66,0.6,0.95,0.86
			c0.3,0.27,0.57,0.52,0.85,0.77c0.28,0.25,0.56,0.5,0.85,0.77S762.69,281.29,763.04,281.6"/>
	</g>
</g>
<g>
	<polygon class="st3" points="744.03,274.45 712.92,261.66 712.87,242.72 743.98,253.25 	"/>
</g>
<g>
	<polygon class="st3" points="727.99,278.03 698.58,264.86 698.52,239.56 727.92,249.72 	"/>
</g>
<g>
	<polygon class="st3" points="715.82,268.1 687.7,255.99 687.65,236.33 715.76,246.11 	"/>
</g>
<g class="st1">
	<defs>
		<path id="SVGID_39_" class="st1" d="M731.63,281.65l-29.8-13.55c-0.32-0.32-0.6-0.6-0.87-0.86c-0.27-0.26-0.51-0.51-0.76-0.76
			s-0.5-0.49-0.76-0.76c-0.27-0.26-0.55-0.54-0.87-0.86l29.41,13.16c0.35,0.35,0.67,0.67,0.97,0.96c0.3,0.3,0.58,0.57,0.85,0.85
			c0.28,0.28,0.56,0.55,0.85,0.85C730.96,280.98,731.28,281.29,731.63,281.65z"/>
	</defs>
	<use xlink:href="#SVGID_39_"  style="overflow:visible;fill:#292929;"/>
	<clipPath id="SVGID_40_">
		<use xlink:href="#SVGID_39_"  style="overflow:visible;"/>
	</clipPath>
	<g class="st26">
		<path class="st3" d="M731.63,281.65l-29.8-13.55c-0.32-0.32-0.6-0.6-0.87-0.86c-0.27-0.26-0.51-0.51-0.76-0.76
			s-0.5-0.49-0.76-0.76c-0.27-0.26-0.55-0.54-0.87-0.86l29.41,13.16c0.35,0.35,0.67,0.67,0.97,0.96c0.3,0.3,0.58,0.57,0.85,0.85
			c0.28,0.28,0.56,0.55,0.85,0.85C730.96,280.98,731.28,281.29,731.63,281.65"/>
	</g>
</g>
<g>
	<polygon class="st3" points="714.65,281.67 686.65,268.12 679.91,248.48 707.1,259.7 	"/>
</g>
<g>
	<polygon class="st3" points="699.8,281.69 673.39,268.14 673.31,236.36 699.72,246.13 	"/>
</g>
<g>
	<polygon class="st3" points="669.77,246.17 646.55,236.4 653.11,236.39 677.11,246.16 	"/>
</g>
<g>
	<polygon class="st3" points="812.33,110.64 773.97,115.26 766.13,115.27 803.56,110.66 	"/>
</g>
<g>
	
		<rect x="640.24" y="246.21" transform="matrix(1 -2.302234e-03 2.302234e-03 1 -0.6061 1.4831)" class="st6" width="7.34" height="35.56"/>
</g>
<g>
	<polygon class="st6" points="831.15,39.02 852.64,61.84 852.7,84.11 847.69,84.18 847.63,63.82 828.99,44.03 392.77,44.93 
		392.76,39.93 	"/>
</g>
<g>
	<polygon class="st3" points="758.31,193.02 725.68,188.89 732.63,91.69 766.08,84.27 	"/>
</g>
<g>
	<polygon class="st3" points="699.72,246.13 673.31,236.36 680.96,236.34 708.27,246.12 	"/>
</g>
<g>
	<polygon class="st6" points="677.11,246.16 677.19,281.72 668.65,281.73 661.1,259.77 661.15,281.74 653.81,281.75 653.73,246.2 
		662.28,246.18 669.82,268.16 669.77,246.17 	"/>
</g>
<g class="st1">
	<defs>
		<path id="SVGID_41_" class="st1" d="M727.92,249.72l-29.4-10.16c0.32-0.32,0.6-0.6,0.86-0.86c0.26-0.27,0.51-0.51,0.76-0.76
			c0.25-0.25,0.49-0.5,0.76-0.76c0.26-0.27,0.55-0.55,0.86-0.86l29.79,9.77c-0.35,0.35-0.67,0.67-0.96,0.97
			c-0.3,0.3-0.57,0.57-0.85,0.85s-0.55,0.56-0.85,0.85C728.59,249.05,728.27,249.37,727.92,249.72z"/>
	</defs>
	<use xlink:href="#SVGID_41_"  style="overflow:visible;fill:#292929;"/>
	<clipPath id="SVGID_42_">
		<use xlink:href="#SVGID_41_"  style="overflow:visible;"/>
	</clipPath>
	<g class="st27">
		<path class="st3" d="M727.92,249.72l-29.4-10.16c0.32-0.32,0.6-0.6,0.86-0.86c0.26-0.27,0.51-0.51,0.76-0.76
			c0.25-0.25,0.49-0.5,0.76-0.76c0.26-0.27,0.55-0.55,0.86-0.86l29.79,9.77c-0.35,0.35-0.67,0.67-0.96,0.97
			c-0.3,0.3-0.57,0.57-0.85,0.85s-0.55,0.56-0.85,0.85C728.59,249.05,728.27,249.37,727.92,249.72"/>
	</g>
</g>
<g>
	<polygon class="st3" points="715.76,246.11 687.65,236.33 694.21,236.32 723.1,246.09 	"/>
</g>
<g>
	<polygon class="st3" points="883.5,110.51 837.57,115.14 798.02,115.21 839.24,110.59 	"/>
</g>
<g>
	<polygon class="st3" points="839.47,192.9 798.22,188.78 837.78,188.71 883.74,192.82 	"/>
</g>
<g>
	<polygon class="st3" points="812.63,219.41 774.23,212.47 773.97,115.26 812.33,110.64 	"/>
</g>
<g>
	<path class="st6" d="M792.98,84.22l-8.75,122.88c-1.28,1.19-2.43,2.26-3.51,3.28c-1.09,1.01-2.11,1.96-3.13,2.92
		s-2.04,1.9-3.13,2.91c-1.09,1.01-2.23,2.08-3.51,3.27l-14.52,0.02l-3.99,0.01l-14.52,0.02c-1.28-1.19-2.44-2.25-3.53-3.26
		c-1.09-1.01-2.12-1.96-3.14-2.9s-2.05-1.9-3.14-2.91c-1.09-1.01-2.24-2.08-3.52-3.26l-7.38-96.37l-8.76,0.02l5.68-26.46l27.95-0.05
		l8.32,108.72l7.91-0.01l7.77-108.75L792.98,84.22z"/>
</g>
<g>
	<polygon class="st3" points="731.54,246.08 701.76,236.31 716.17,236.29 747.67,246.06 	"/>
</g>
<g>
	<polygon class="st6" points="723.1,246.09 723.19,281.66 714.65,281.67 707.1,259.7 707.15,281.68 699.8,281.69 699.72,246.13 
		708.27,246.12 715.82,268.1 715.76,246.11 	"/>
</g>
<g class="st1">
	<defs>
		<path id="SVGID_43_" class="st1" d="M771.66,250.38l-34.05-10.23c0.41-0.37,0.78-0.71,1.13-1.03s0.68-0.62,1.01-0.92
			c0.33-0.3,0.66-0.6,1.01-0.92s0.72-0.66,1.13-1.03l34.56,9.76c-0.46,0.42-0.87,0.79-1.27,1.15c-0.39,0.36-0.76,0.69-1.14,1.03
			s-0.74,0.67-1.14,1.03S772.12,249.96,771.66,250.38z"/>
	</defs>
	<use xlink:href="#SVGID_43_"  style="overflow:visible;fill:#292929;"/>
	<clipPath id="SVGID_44_">
		<use xlink:href="#SVGID_43_"  style="overflow:visible;"/>
	</clipPath>
	<g class="st28">
		<path class="st3" d="M771.66,250.38l-34.05-10.23c0.41-0.37,0.78-0.71,1.13-1.03s0.68-0.62,1.01-0.92c0.33-0.3,0.66-0.6,1.01-0.92
			s0.72-0.66,1.13-1.03l34.56,9.76c-0.46,0.42-0.87,0.79-1.27,1.15c-0.39,0.36-0.76,0.69-1.14,1.03s-0.74,0.67-1.14,1.03
			S772.12,249.96,771.66,250.38"/>
	</g>
</g>
<g>
	<polygon class="st3" points="756.03,246.05 723.64,236.28 730.2,236.27 763.38,246.04 	"/>
</g>
<g>
	<polygon class="st3" points="776.46,246.02 741.9,236.25 744.87,236.25 779.78,246.01 	"/>
</g>
<g>
	<path class="st6" d="M747.67,246.06c0.36,0.35,0.67,0.67,0.97,0.96c0.3,0.3,0.58,0.57,0.85,0.85c0.28,0.28,0.55,0.55,0.85,0.85
		c0.3,0.3,0.61,0.61,0.97,0.96l0.07,28.31c-0.35,0.35-0.67,0.67-0.96,0.97c-0.29,0.3-0.57,0.57-0.85,0.85
		c-0.28,0.28-0.55,0.55-0.85,0.85c-0.3,0.3-0.61,0.61-0.97,0.97l-16.12,0.02c-0.35-0.35-0.67-0.67-0.97-0.96
		c-0.3-0.3-0.58-0.57-0.85-0.85c-0.28-0.28-0.56-0.55-0.85-0.85c-0.3-0.3-0.61-0.61-0.97-0.96l-0.07-28.31
		c0.35-0.35,0.67-0.67,0.96-0.97c0.3-0.3,0.57-0.57,0.85-0.85s0.55-0.56,0.85-0.85c0.3-0.3,0.61-0.61,0.96-0.97L747.67,246.06z
		 M744.03,274.45l-0.05-21.2l-8.71,0.01l0.05,21.2L744.03,274.45"/>
</g>
<g>
	<polygon class="st3" points="792.87,245.99 756.56,236.23 763.12,236.22 800.21,245.98 	"/>
</g>
<g>
	<path class="st6" d="M800.21,245.98L797,278.29c-0.34,0.31-0.66,0.6-0.95,0.86c-0.29,0.27-0.57,0.52-0.85,0.77s-0.56,0.5-0.85,0.77
		c-0.3,0.27-0.61,0.55-0.95,0.86l-9.57,0.01c-0.35-0.31-0.66-0.59-0.95-0.86s-0.58-0.52-0.85-0.77s-0.56-0.5-0.85-0.77
		s-0.61-0.55-0.95-0.86l-2.05-19.5l-1.94,19.5c-0.34,0.31-0.66,0.6-0.95,0.86c-0.29,0.27-0.57,0.52-0.85,0.77
		c-0.28,0.25-0.56,0.5-0.85,0.77c-0.29,0.27-0.61,0.55-0.95,0.86l-9.58,0.01c-0.35-0.31-0.66-0.59-0.95-0.86s-0.57-0.52-0.85-0.77
		c-0.28-0.25-0.56-0.5-0.85-0.77c-0.3-0.27-0.61-0.55-0.95-0.86l-3.39-32.3l7.34-0.01l2.98,28.38l2.91,0l2.39-24.03
		c0.46-0.42,0.87-0.79,1.27-1.15s0.76-0.69,1.14-1.03s0.74-0.67,1.14-1.03c0.39-0.36,0.81-0.73,1.27-1.15l3.32,0
		c0.46,0.42,0.88,0.79,1.28,1.15c0.4,0.36,0.77,0.69,1.14,1.03c0.37,0.34,0.75,0.67,1.14,1.03s0.81,0.73,1.28,1.15l2.52,24.03
		l2.91,0l2.82-28.39L800.21,245.98z"/>
</g>
<g>
	<polygon class="st6" points="839.16,84.13 847.69,84.12 852.7,84.17 883.42,84.05 883.5,110.51 839.24,110.59 839.32,138.51 
		883.58,138.43 883.66,164.9 839.39,164.97 839.47,192.9 883.74,192.82 883.82,219.3 812.63,219.41 812.33,110.64 803.56,110.66 
		809.23,84.19 	"/>
</g>
<g>
</g>
<g>
</g>
<g>
</g>
<g>
</g>
<g>
</g>
<g>
</g>
<g>
</g>
<g>
</g>
<g>
</g>
<g>
</g>
<g>
</g>
<g>
</g>
<g>
</g>
<g>
</g>
<g>
</g>
</svg>
