<?xml version="1.0" encoding="utf-8"?>
<!-- Generator: Adobe Illustrator 23.0.1, SVG Export Plug-In . SVG Version: 6.00 Build 0)  -->
<svg version="1.1" id="Layer_1" xmlns="http://www.w3.org/2000/svg" xmlns:xlink="http://www.w3.org/1999/xlink" x="0px" y="0px"
	 viewBox="0 0 1000 1000" style="enable-background:new 0 0 1000 1000;" xml:space="preserve">
<style type="text/css">
	.st0{fill:none;stroke:#000000;stroke-width:5;stroke-miterlimit:10;}
</style>
<g>
	<path d="M126.49,456.97v-12.93h-23.96v82.21h23.96v-12.94h26.86v26.05c-5.2,5.2-8.12,8.11-13.32,13.32H88.99
		c-5.2-5.2-8.12-8.12-13.32-13.32v-95.33h-8.76l5.74-26.44h67.38c5.2,5.2,8.12,8.12,13.32,13.32v26.05H126.49z"/>
	<path d="M250.23,430.92v108.45c-5.2,5.2-8.12,8.11-13.32,13.32h-51.04c-5.2-5.2-8.12-8.12-13.32-13.32v-95.33h-8.75l5.74-26.44
		h29.87v0.01h23.96v-0.01h13.54C242.11,422.8,245.03,425.72,250.23,430.92z M223.37,444.04H199.4v82.21h23.96V444.04z"/>
	<path d="M342.38,526.25v26.43h-71.02V444.04h-8.75l5.74-26.44h29.87v108.66H342.38z"/>
	<path d="M428.65,526.25v26.43h-71.02V444.04h-8.75l5.74-26.44h29.87v108.66H428.65z"/>
	<path d="M514.93,552.69h-71.02V444.04h-8.75l5.74-26.44h29.87v0.01h44.16v26.44h-44.16v27.88h44.16v26.44h-44.16v27.89h44.16
		V552.69z"/>
	<path d="M584.87,456.97v-12.93h-23.96v82.21h23.96v-12.94h26.86v26.05c-5.2,5.2-8.12,8.11-13.32,13.32h-51.04
		c-5.2-5.2-8.12-8.12-13.32-13.32v-95.33h-8.76l5.74-26.44h67.38c5.2,5.2,8.12,8.12,13.32,13.32v26.05H584.87z"/>
	<path d="M699.85,444.04h-25.41v108.65h-26.86V444.04h-25.41l5.74-26.44h71.94V444.04z"/>
	<path d="M747.92,417.6v135.09h-26.86V444.04h-8.75l5.74-26.44H747.92z"/>
	<path d="M842.9,417.6l-9.07,122.75c-5.11,4.74-8.17,7.59-13.28,12.34h-14.49v-0.01h-3.98v0.01h-14.49
		c-5.11-4.75-8.17-7.59-13.28-12.34l-7.12-96.31h-8.75l5.74-26.44h27.91l8.03,108.65H808l8.04-108.65H842.9z"/>
	<path d="M933.16,552.69h-71.02V444.04h-8.75l5.74-26.44H889v0.01h44.16v26.44H889v27.88h44.16v26.44H889v27.89h44.16V552.69z"/>
</g>
<g>
	<path d="M185.4,356.67l-3.29,32.26c-1.38,1.25-2.23,2.01-3.6,3.26h-9.55c-1.38-1.25-2.23-2.01-3.6-3.26l-1.99-19.47l-1.99,19.47
		c-1.38,1.25-2.22,2.01-3.6,3.26h-9.55c-1.38-1.25-2.23-2.01-3.6-3.26l-3.29-32.26h7.33l2.89,28.34h2.91l2.45-24
		c1.84-1.66,2.97-2.68,4.81-4.34h3.32c1.84,1.66,2.97,2.68,4.81,4.34l2.45,24h2.91l2.89-28.34H185.4z"/>
	<path d="M197.51,363.85v7h13.6v7.17h-13.6v7h13.6v7.17h-20.93v-35.51h20.93v7.17H197.51z"/>
	<path d="M248.59,381.6h-6.53l-1.08,10.58h-7.33l3.29-32.26c1.38-1.25,2.22-2.01,3.6-3.26h9.55c1.38,1.25,2.23,2.01,3.6,3.26
		l3.29,32.26h-7.33L248.59,381.6z M247.86,374.43l-1.08-10.58h-2.91l-1.08,10.58H247.86z"/>
	<path d="M285.07,370.81c-1.42,1.41-2.21,2.21-3.62,3.62c1.42,1.42,2.21,2.21,3.62,3.62v14.13h-7.33v-14.17h-8.69v14.17h-7.33
		v-35.51h19.72c1.42,1.42,2.21,2.21,3.62,3.62V370.81z M269.05,370.84h8.69v-7h-8.69V370.84z"/>
	<path d="M297.12,363.85v7h13.6v7.17h-13.6v7h13.6v7.17h-20.93v-35.51h20.93v7.17H297.12z"/>
	<path d="M356.6,360.3v28.27c-1.42,1.42-2.21,2.21-3.62,3.62h-16.1c-1.42-1.42-2.21-2.21-3.62-3.62V360.3
		c1.42-1.41,2.21-2.21,3.62-3.62h16.1C354.4,358.09,355.19,358.88,356.6,360.3z M349.28,363.85h-8.69v21.17h8.69V363.85z"/>
	<path d="M384.68,356.67v35.51h-8.54l-7.48-21.95v21.95h-7.33v-35.51h8.54l7.48,21.96v-21.96H384.68z"/>
	<path d="M396.8,363.85v7h13.6v7.17h-13.6v7h13.6v7.17h-20.93v-35.51h20.93v7.17H396.8z"/>
</g>
<g>
	<path d="M655.02,579.2v31.89c-1.42,1.42-2.21,2.21-3.62,3.62h-13.68c-1.42-1.42-2.21-2.21-3.62-3.62v-9.45h7.33v5.9h6.28V579.2
		H655.02z"/>
	<path d="M684.53,582.82v28.27c-1.42,1.42-2.21,2.21-3.62,3.62h-16.1c-1.42-1.42-2.21-2.21-3.62-3.62v-28.27
		c1.42-1.41,2.21-2.21,3.62-3.62h16.1C682.32,580.62,683.11,581.41,684.53,582.82z M677.2,586.37h-8.69v21.17h8.69V586.37z"/>
	<path d="M689.95,614.71V579.2h7.33v35.51H689.95z"/>
	<path d="M726.81,579.2v35.51h-8.54l-7.48-21.95v21.95h-7.33V579.2H712l7.48,21.96V579.2H726.81z"/>
	<path d="M772.73,579.2v35.51h-8.54l-7.48-21.95v21.95h-7.33V579.2h8.54l7.48,21.96V579.2H772.73z"/>
	<path d="M800.87,582.82v28.27c-1.42,1.42-2.21,2.21-3.62,3.62h-16.1c-1.42-1.42-2.21-2.21-3.62-3.62v-28.27
		c1.42-1.41,2.21-2.21,3.62-3.62h16.1C798.66,580.62,799.45,581.41,800.87,582.82z M793.54,586.37h-8.69v21.17h8.69V586.37z"/>
	<path d="M849.67,579.2l-3.29,32.26c-1.38,1.25-2.22,2.01-3.6,3.26h-9.55c-1.38-1.25-2.22-2.01-3.6-3.26l-1.99-19.47l-1.99,19.47
		c-1.38,1.25-2.23,2.01-3.6,3.26h-9.55c-1.38-1.25-2.23-2.01-3.6-3.26l-3.29-32.26h7.33l2.89,28.34h2.91l2.45-24
		c1.84-1.66,2.97-2.68,4.81-4.34h3.32c1.84,1.66,2.97,2.68,4.81,4.34l2.45,24h2.91l2.89-28.34H849.67z"/>
</g>
<polyline class="st0" points="899.5,418.5 899.5,396.75 879.56,375 443,375 "/>
<polyline class="st0" points="113.5,552 113.5,573.5 134.84,595 602,595 "/>
<g>
</g>
<g>
</g>
<g>
</g>
<g>
</g>
<g>
</g>
<g>
</g>
<g>
</g>
<g>
</g>
<g>
</g>
<g>
</g>
<g>
</g>
<g>
</g>
<g>
</g>
<g>
</g>
<g>
</g>
</svg>
