<?xml version="1.0" encoding="utf-8"?>
<!-- Generator: Adobe Illustrator 23.0.1, SVG Export Plug-In . SVG Version: 6.00 Build 0)  -->
<svg version="1.1" id="Layer_1" xmlns="http://www.w3.org/2000/svg" xmlns:xlink="http://www.w3.org/1999/xlink" x="0px" y="0px"
	 viewBox="0 0 800 250" style="enable-background:new 0 0 800 250;" xml:space="preserve">
<style type="text/css">
	.st0{enable-background:new    ;}
	.st1{clip-path:url(#SVGID_2_);enable-background:new    ;}
	.st2{clip-path:url(#SVGID_4_);enable-background:new    ;}
	.st3{clip-path:url(#SVGID_6_);enable-background:new    ;}
	.st4{clip-path:url(#SVGID_8_);enable-background:new    ;}
	.st5{clip-path:url(#SVGID_10_);enable-background:new    ;}
	.st6{clip-path:url(#SVGID_12_);enable-background:new    ;}
	.st7{clip-path:url(#SVGID_14_);enable-background:new    ;}
	.st8{clip-path:url(#SVGID_16_);enable-background:new    ;}
	.st9{clip-path:url(#SVGID_18_);enable-background:new    ;}
	.st10{clip-path:url(#SVGID_20_);enable-background:new    ;}
	.st11{clip-path:url(#SVGID_22_);enable-background:new    ;}
	.st12{clip-path:url(#SVGID_24_);enable-background:new    ;}
	.st13{clip-path:url(#SVGID_26_);enable-background:new    ;}
	.st14{clip-path:url(#SVGID_28_);enable-background:new    ;}
	.st15{clip-path:url(#SVGID_30_);enable-background:new    ;}
	.st16{clip-path:url(#SVGID_32_);enable-background:new    ;}
	.st17{clip-path:url(#SVGID_34_);enable-background:new    ;}
	.st18{clip-path:url(#SVGID_36_);enable-background:new    ;}
	.st19{clip-path:url(#SVGID_38_);enable-background:new    ;}
	.st20{clip-path:url(#SVGID_40_);enable-background:new    ;}
	.st21{clip-path:url(#SVGID_42_);enable-background:new    ;}
</style>
<g>
	<g>
		<g class="st0">
			<g>
				<polygon points="141.53,122.61 153.06,122.26 148.02,122.88 136.25,123.26 				"/>
			</g>
			<g>
				<polygon points="157.69,120.62 168.51,120.36 174.32,167.67 163.77,170.13 				"/>
			</g>
			<g>
				<polygon points="163.77,170.13 174.32,167.67 188.09,165.98 178.18,168.36 				"/>
			</g>
			<g>
				<polygon points="172.11,118.85 182.29,118.67 168.51,120.36 157.69,120.62 				"/>
			</g>
			<g>
				<polygon points="177.03,67.8 186.99,69.88 191.31,88.83 181.55,87.64 				"/>
			</g>
			<g class="st0">
				<defs>
					<path id="SVGID_1_" class="st0" d="M195.33,174.28l9.15-2.64c-0.66,0.84-1.24,1.59-1.79,2.29c-0.55,0.7-1.06,1.35-1.57,2.01
						c-0.51,0.65-1.02,1.31-1.57,2.01c-0.55,0.7-1.13,1.45-1.78,2.29l-9.46,3.04c0.68-0.88,1.29-1.66,1.87-2.39
						c0.57-0.73,1.11-1.42,1.64-2.1c0.54-0.68,1.07-1.37,1.65-2.1C194.03,175.94,194.64,175.16,195.33,174.28z"/>
				</defs>
				<clipPath id="SVGID_2_">
					<use xlink:href="#SVGID_1_"  style="overflow:visible;"/>
				</clipPath>
				<g class="st1">
					<path d="M195.33,174.28l9.15-2.64c-0.66,0.84-1.24,1.59-1.79,2.29c-0.55,0.7-1.06,1.35-1.57,2.01
						c-0.51,0.65-1.02,1.31-1.57,2.01c-0.55,0.7-1.13,1.45-1.78,2.29l-9.46,3.04c0.68-0.88,1.29-1.66,1.87-2.39
						c0.57-0.73,1.11-1.42,1.64-2.1c0.54-0.68,1.07-1.37,1.65-2.1C194.03,175.94,194.64,175.16,195.33,174.28"/>
				</g>
			</g>
			<g>
				<polygon points="193.4,158.59 202.64,156.64 204.48,171.64 195.33,174.28 				"/>
			</g>
			<g>
				<polygon points="177.23,160.57 187.18,158.54 202.64,156.64 193.4,158.59 				"/>
			</g>
			<g>
				<polygon points="189.24,124.65 198.66,124.21 183.2,126.11 173.06,126.64 				"/>
			</g>
			<g class="st0">
				<defs>
					<path id="SVGID_3_" class="st0" d="M178.31,101.92l9.91,0.57c0.84,0.66,1.59,1.24,2.29,1.79c0.7,0.55,1.36,1.06,2.01,1.57
						c0.66,0.51,1.31,1.03,2.01,1.57s1.45,1.13,2.29,1.79l-9.51-0.25c-0.88-0.69-1.66-1.3-2.39-1.87c-0.73-0.57-1.42-1.11-2.11-1.65
						c-0.69-0.54-1.37-1.07-2.11-1.65C179.97,103.22,179.19,102.61,178.31,101.92z"/>
				</defs>
				<clipPath id="SVGID_4_">
					<use xlink:href="#SVGID_3_"  style="overflow:visible;"/>
				</clipPath>
				<g class="st2">
					<path d="M178.31,101.92l9.91,0.57c0.84,0.66,1.59,1.24,2.29,1.79c0.7,0.55,1.36,1.06,2.01,1.57c0.66,0.51,1.31,1.03,2.01,1.57
						s1.45,1.13,2.29,1.79l-9.51-0.25c-0.88-0.69-1.66-1.3-2.39-1.87c-0.73-0.57-1.42-1.11-2.11-1.65
						c-0.69-0.54-1.37-1.07-2.11-1.65C179.97,103.22,179.19,102.61,178.31,101.92"/>
				</g>
			</g>
			<g>
				<path d="M178.31,101.92c0.88,0.69,1.66,1.3,2.4,1.87c0.73,0.57,1.42,1.11,2.11,1.65c0.69,0.54,1.37,1.07,2.11,1.65
					c0.73,0.57,1.51,1.19,2.39,1.87l1.93,15.69l-16.17,1.99l-0.96-7.79l-14.42,1.77l6.08,49.5l14.42-1.77l-0.96-7.79l16.18-1.99
					l1.93,15.69c-0.69,0.88-1.3,1.66-1.88,2.4c-0.57,0.73-1.11,1.42-1.65,2.1c-0.54,0.68-1.07,1.37-1.64,2.1
					c-0.57,0.73-1.18,1.51-1.87,2.39l-30.72,3.77c-0.88-0.69-1.67-1.3-2.4-1.87c-0.73-0.57-1.42-1.11-2.11-1.64
					c-0.69-0.54-1.37-1.07-2.1-1.64s-1.51-1.18-2.39-1.87l-7.05-57.41l-5.27,0.65l1.49-16.35L178.31,101.92z"/>
			</g>
			<g>
				<polygon points="187.31,108.96 196.82,109.22 198.66,124.21 189.24,124.65 				"/>
			</g>
			<g>
				<polygon points="186.58,92.18 196.12,93.18 189.66,93.97 179.82,93.01 				"/>
			</g>
			<g class="st0">
				<defs>
					<path id="SVGID_5_" class="st0" d="M188.86,89.56l9.44,1.11c-0.21,0.24-0.4,0.46-0.57,0.66s-0.35,0.4-0.51,0.59
						s-0.34,0.39-0.51,0.59s-0.37,0.42-0.57,0.66l-9.54-1c0.22-0.25,0.42-0.48,0.6-0.69c0.19-0.21,0.36-0.42,0.54-0.62
						c0.18-0.2,0.35-0.41,0.54-0.62C188.44,90.03,188.64,89.81,188.86,89.56z"/>
				</defs>
				<clipPath id="SVGID_6_">
					<use xlink:href="#SVGID_5_"  style="overflow:visible;"/>
				</clipPath>
				<g class="st3">
					<path d="M188.86,89.56l9.44,1.11c-0.21,0.24-0.4,0.46-0.57,0.66s-0.35,0.4-0.51,0.59s-0.34,0.39-0.51,0.59
						s-0.37,0.42-0.57,0.66l-9.54-1c0.22-0.25,0.42-0.48,0.6-0.69c0.19-0.21,0.36-0.42,0.54-0.62c0.18-0.2,0.35-0.41,0.54-0.62
						C188.44,90.03,188.64,89.81,188.86,89.56"/>
				</g>
			</g>
			<g>
				<polygon points="188.58,75.59 198.03,77.32 198.3,90.67 188.86,89.56 				"/>
			</g>
			<g class="st0">
				<defs>
					<path id="SVGID_7_" class="st0" d="M188.63,66.38l9.45,2.14c0.34,0.24,0.65,0.46,0.95,0.67c0.29,0.21,0.57,0.4,0.85,0.6
						c0.28,0.2,0.56,0.39,0.85,0.6c0.3,0.21,0.61,0.43,0.96,0.67l-9.28-2.02c-0.36-0.26-0.69-0.49-1-0.71
						c-0.31-0.22-0.6-0.42-0.89-0.63s-0.58-0.41-0.89-0.63C189.32,66.86,188.99,66.63,188.63,66.38z"/>
				</defs>
				<clipPath id="SVGID_8_">
					<use xlink:href="#SVGID_7_"  style="overflow:visible;"/>
				</clipPath>
				<g class="st4">
					<path d="M188.63,66.38l9.45,2.14c0.34,0.24,0.65,0.46,0.95,0.67c0.29,0.21,0.57,0.4,0.85,0.6c0.28,0.2,0.56,0.39,0.85,0.6
						c0.3,0.21,0.61,0.43,0.96,0.67l-9.28-2.02c-0.36-0.26-0.69-0.49-1-0.71c-0.31-0.22-0.6-0.42-0.89-0.63s-0.58-0.41-0.89-0.63
						C189.32,66.86,188.99,66.63,188.63,66.38"/>
				</g>
			</g>
			<g>
				<polygon points="199.84,115.45 208.79,115.41 203.76,116.03 194.57,116.09 				"/>
			</g>
			<g>
				<polygon points="192.41,69.04 201.69,71.06 205.34,87.11 196.23,85.83 				"/>
			</g>
			<g>
				<polygon points="201.28,90.38 210.16,91.46 203.7,92.25 194.51,91.21 				"/>
			</g>
			<g class="st0">
				<defs>
					<path id="SVGID_9_" class="st0" d="M203.55,87.75l8.79,1.19c-0.21,0.24-0.4,0.46-0.57,0.66c-0.18,0.21-0.35,0.4-0.51,0.59
						c-0.17,0.19-0.34,0.39-0.51,0.59c-0.18,0.21-0.37,0.42-0.57,0.66l-8.89-1.08c0.22-0.25,0.42-0.48,0.6-0.69
						c0.19-0.21,0.36-0.42,0.54-0.62c0.18-0.2,0.35-0.41,0.54-0.62S203.34,88,203.55,87.75z"/>
				</defs>
				<clipPath id="SVGID_10_">
					<use xlink:href="#SVGID_9_"  style="overflow:visible;"/>
				</clipPath>
				<g class="st5">
					<path d="M203.55,87.75l8.79,1.19c-0.21,0.24-0.4,0.46-0.57,0.66c-0.18,0.21-0.35,0.4-0.51,0.59c-0.17,0.19-0.34,0.39-0.51,0.59
						c-0.18,0.21-0.37,0.42-0.57,0.66l-8.89-1.08c0.22-0.25,0.42-0.48,0.6-0.69c0.19-0.21,0.36-0.42,0.54-0.62
						c0.18-0.2,0.35-0.41,0.54-0.62S203.34,88,203.55,87.75"/>
				</g>
			</g>
			<g>
				<polygon points="203.08,64.6 211.89,66.82 212.34,88.94 203.55,87.75 				"/>
			</g>
			<g>
				<path d="M203.08,64.6l0.48,23.15c-0.22,0.25-0.42,0.48-0.6,0.69s-0.36,0.42-0.54,0.62c-0.18,0.2-0.35,0.41-0.54,0.62
					c-0.19,0.21-0.38,0.44-0.6,0.69l-6.77,0.83c-0.27-0.19-0.52-0.36-0.75-0.53c-0.23-0.16-0.45-0.32-0.67-0.47
					c-0.22-0.15-0.44-0.31-0.67-0.47s-0.47-0.34-0.74-0.53l-3.1-13.62l0.28,13.97c-0.22,0.25-0.42,0.48-0.6,0.69
					c-0.19,0.21-0.36,0.42-0.54,0.62c-0.18,0.2-0.35,0.41-0.54,0.62c-0.19,0.21-0.38,0.44-0.6,0.69l-6.76,0.83
					c-0.27-0.19-0.52-0.36-0.75-0.53c-0.23-0.16-0.45-0.32-0.67-0.47s-0.44-0.31-0.67-0.47s-0.48-0.34-0.75-0.53l-5.14-22.57
					l5.19-0.64l4.52,19.83l2.06-0.25l-0.36-17.22c0.29-0.34,0.55-0.64,0.8-0.93c0.25-0.29,0.48-0.56,0.72-0.83
					c0.23-0.27,0.47-0.54,0.72-0.82c0.25-0.29,0.51-0.59,0.8-0.92l2.35-0.29c0.36,0.25,0.69,0.48,0.99,0.7
					c0.31,0.22,0.6,0.42,0.89,0.63s0.58,0.41,0.89,0.63c0.31,0.22,0.64,0.45,1,0.71l3.82,16.79l2.07-0.25l-0.41-20.34L203.08,64.6z"
					/>
			</g>
			<g>
				<polygon points="216,113.46 224.24,113.52 230.05,160.83 222.08,162.97 				"/>
			</g>
			<g>
				<polygon points="213.51,78.69 221.86,80.28 222.44,85.02 214.12,83.64 				"/>
			</g>
			<g>
				<polygon points="212.28,68.63 220.68,70.67 221.26,75.42 212.89,73.6 				"/>
			</g>
			<g>
				<polygon points="224.38,87.54 232.25,88.74 218.07,90.48 209.55,89.36 				"/>
			</g>
			<g>
				<polygon points="223.76,82.46 231.65,83.89 232.25,88.74 224.38,87.54 				"/>
			</g>
			<g>
				<polygon points="223.15,77.5 231.07,79.15 221.86,80.28 213.51,78.69 				"/>
			</g>
			<g>
				<polygon points="222.52,72.42 230.47,74.29 231.07,79.15 223.15,77.5 				"/>
			</g>
			<g>
				<polygon points="221.91,67.45 229.89,69.54 220.68,70.67 212.28,68.63 				"/>
			</g>
			<g>
				<polygon points="221.29,62.36 221.91,67.45 212.28,68.63 212.89,73.6 222.52,72.42 223.15,77.5 213.51,78.69 214.12,83.64 
					223.76,82.46 224.38,87.54 209.55,89.36 206.46,64.19 				"/>
			</g>
			<g>
				<polygon points="221.29,62.36 229.29,64.68 229.89,69.54 221.91,67.45 				"/>
			</g>
			<g>
				<polygon points="222.08,162.97 230.05,160.83 243.84,159.14 236.51,161.2 				"/>
			</g>
			<g>
				<polygon points="230.44,111.69 238.03,111.82 224.24,113.52 216,113.46 				"/>
			</g>
			<g class="st0">
				<defs>
					<path id="SVGID_11_" class="st0" d="M253.66,167.13l6.57-2.32c-0.66,0.84-1.24,1.59-1.79,2.29c-0.55,0.7-1.06,1.36-1.57,2.01
						c-0.51,0.65-1.02,1.31-1.57,2.01c-0.55,0.7-1.13,1.45-1.79,2.29l-6.88,2.72c0.69-0.88,1.3-1.66,1.87-2.39
						c0.57-0.73,1.11-1.42,1.65-2.1c0.54-0.68,1.07-1.37,1.65-2.1C252.36,168.79,252.97,168.01,253.66,167.13z"/>
				</defs>
				<clipPath id="SVGID_12_">
					<use xlink:href="#SVGID_11_"  style="overflow:visible;"/>
				</clipPath>
				<g class="st6">
					<path d="M253.66,167.13l6.57-2.32c-0.66,0.84-1.24,1.59-1.79,2.29c-0.55,0.7-1.06,1.36-1.57,2.01
						c-0.51,0.65-1.02,1.31-1.57,2.01c-0.55,0.7-1.13,1.45-1.79,2.29l-6.88,2.72c0.69-0.88,1.3-1.66,1.87-2.39
						c0.57-0.73,1.11-1.42,1.65-2.1c0.54-0.68,1.07-1.37,1.65-2.1C252.36,168.79,252.97,168.01,253.66,167.13"/>
				</g>
			</g>
			<g class="st0">
				<defs>
					<path id="SVGID_13_" class="st0" d="M236.64,94.75l7.32,0.88c0.84,0.66,1.59,1.24,2.29,1.79s1.36,1.06,2.01,1.58
						c0.66,0.51,1.31,1.03,2.01,1.58c0.7,0.55,1.45,1.13,2.29,1.79l-6.92-0.57c-0.88-0.69-1.66-1.3-2.39-1.87s-1.42-1.11-2.1-1.65
						s-1.37-1.07-2.1-1.65C238.3,96.05,237.52,95.44,236.64,94.75z"/>
				</defs>
				<clipPath id="SVGID_14_">
					<use xlink:href="#SVGID_13_"  style="overflow:visible;"/>
				</clipPath>
				<g class="st7">
					<path d="M236.64,94.75l7.32,0.88c0.84,0.66,1.59,1.24,2.29,1.79s1.36,1.06,2.01,1.58c0.66,0.51,1.31,1.03,2.01,1.58
						c0.7,0.55,1.45,1.13,2.29,1.79l-6.92-0.57c-0.88-0.69-1.66-1.3-2.39-1.87s-1.42-1.11-2.1-1.65s-1.37-1.07-2.1-1.65
						C238.3,96.05,237.52,95.44,236.64,94.75"/>
				</g>
			</g>
			<g>
				<path d="M236.64,94.75c0.88,0.69,1.66,1.3,2.39,1.87c0.73,0.57,1.42,1.11,2.1,1.65s1.37,1.07,2.1,1.65s1.52,1.19,2.39,1.87
					l8.02,65.33c-0.69,0.88-1.3,1.66-1.87,2.4c-0.57,0.73-1.11,1.42-1.65,2.1c-0.54,0.68-1.07,1.37-1.65,2.1
					c-0.57,0.73-1.18,1.52-1.87,2.39l-30.73,3.77c-0.88-0.69-1.66-1.3-2.4-1.87s-1.42-1.11-2.11-1.64s-1.37-1.07-2.1-1.64
					c-0.73-0.57-1.51-1.18-2.39-1.87l-7.05-57.42l-5.27,0.65l1.5-16.36l17.98-2.21l14.44-1.77L236.64,94.75z M236.51,161.2
					l-6.08-49.51L216,113.46l6.08,49.51L236.51,161.2"/>
			</g>
			<g>
				<polygon points="245.63,101.8 252.56,102.37 260.22,164.8 253.66,167.13 				"/>
			</g>
			<g>
				<polygon points="245.55,84.94 252.48,86.26 247.52,86.87 240.36,85.58 				"/>
			</g>
			<g>
				<polygon points="245.39,77.34 252.32,79 252.48,86.26 245.55,84.94 				"/>
			</g>
			<g>
				<polygon points="245.13,64.6 252.07,66.82 252.22,74.08 245.28,72.2 				"/>
			</g>
			<g>
				<polygon points="247.19,64.35 254.04,66.58 252.07,66.82 245.13,64.6 				"/>
			</g>
			<g>
				<polygon points="250.02,76.77 256.75,78.45 252.32,79 245.39,77.34 				"/>
			</g>
			<g class="st0">
				<defs>
					<path id="SVGID_15_" class="st0" d="M248.92,58.97l6.78,2.47c0.26,0.18,0.5,0.35,0.72,0.5c0.22,0.16,0.43,0.3,0.64,0.45
						c0.21,0.15,0.42,0.3,0.64,0.45c0.22,0.16,0.45,0.32,0.71,0.5l-6.65-2.38c-0.27-0.19-0.51-0.36-0.75-0.53
						c-0.23-0.16-0.45-0.32-0.67-0.47c-0.22-0.15-0.44-0.31-0.67-0.47C249.44,59.33,249.19,59.16,248.92,58.97z"/>
				</defs>
				<clipPath id="SVGID_16_">
					<use xlink:href="#SVGID_15_"  style="overflow:visible;"/>
				</clipPath>
				<g class="st8">
					<path d="M248.92,58.97l6.78,2.47c0.26,0.18,0.5,0.35,0.72,0.5c0.22,0.16,0.43,0.3,0.64,0.45c0.21,0.15,0.42,0.3,0.64,0.45
						c0.22,0.16,0.45,0.32,0.71,0.5l-6.65-2.38c-0.27-0.19-0.51-0.36-0.75-0.53c-0.23-0.16-0.45-0.32-0.67-0.47
						c-0.22-0.15-0.44-0.31-0.67-0.47C249.44,59.33,249.19,59.16,248.92,58.97"/>
				</g>
			</g>
			<g>
				<polygon points="259.33,108.14 265.65,108.43 260.61,109.05 254.06,108.79 				"/>
			</g>
			<g>
				<path d="M251.76,60.97l5.14,22.58l-5.19,0.64l-1.69-7.41l-4.63,0.57l0.16,7.6l-5.19,0.64l-0.48-23.15
					c0.22-0.25,0.41-0.48,0.6-0.69c0.19-0.21,0.36-0.42,0.53-0.62c0.17-0.2,0.35-0.41,0.53-0.62s0.38-0.44,0.6-0.69l6.77-0.83
					c0.27,0.19,0.52,0.36,0.75,0.53c0.23,0.16,0.45,0.32,0.67,0.47c0.22,0.15,0.44,0.31,0.67,0.47
					C251.24,60.6,251.49,60.78,251.76,60.97z M245.28,72.2l3.59-0.44l-1.68-7.41l-2.06,0.25L245.28,72.2"/>
			</g>
			<g>
				<polygon points="256.9,83.54 263.32,84.92 258.36,85.53 251.71,84.18 				"/>
			</g>
			<g>
				<polygon points="251.76,60.97 258.41,63.35 263.32,84.92 256.9,83.54 				"/>
			</g>
			<g>
				<polygon points="265.44,82.49 271.49,83.92 266.52,84.53 260.25,83.13 				"/>
			</g>
			<g>
				<polygon points="264.21,72.46 270.31,74.33 271.49,83.92 265.44,82.49 				"/>
			</g>
			<g>
				<polygon points="262.98,62.41 269.13,64.72 269.71,69.47 263.59,67.37 				"/>
			</g>
			<g>
				<polygon points="270.37,71.7 276.2,73.6 270.31,74.33 264.21,72.46 				"/>
			</g>
			<g>
				<polygon points="269.14,61.65 275.02,64 269.13,64.72 262.98,62.41 				"/>
			</g>
			<g>
				<polygon points="273.55,90.22 279.24,91.3 286.92,153.85 281.59,155.67 				"/>
			</g>
			<g>
				<polygon points="276.79,81.1 282.34,82.59 277.38,83.2 271.6,81.74 				"/>
			</g>
			<g>
				<polygon points="275.56,71.09 281.16,73.02 282.34,82.59 276.79,81.1 				"/>
			</g>
			<g class="st0">
				<defs>
					<path id="SVGID_17_" class="st0" d="M272.67,68.83l5.73,2.03c0.27,0.21,0.51,0.4,0.73,0.57c0.22,0.18,0.43,0.34,0.64,0.51
						c0.21,0.16,0.42,0.33,0.65,0.51c0.23,0.18,0.47,0.36,0.74,0.57l-5.6-1.93c-0.28-0.22-0.53-0.41-0.77-0.6
						c-0.24-0.18-0.46-0.36-0.68-0.53s-0.44-0.34-0.67-0.53C273.21,69.25,272.96,69.05,272.67,68.83z"/>
				</defs>
				<clipPath id="SVGID_18_">
					<use xlink:href="#SVGID_17_"  style="overflow:visible;"/>
				</clipPath>
				<g class="st9">
					<path d="M272.67,68.83l5.73,2.03c0.27,0.21,0.51,0.4,0.73,0.57c0.22,0.18,0.43,0.34,0.64,0.51c0.21,0.16,0.42,0.33,0.65,0.51
						c0.23,0.18,0.47,0.36,0.74,0.57l-5.6-1.93c-0.28-0.22-0.53-0.41-0.77-0.6c-0.24-0.18-0.46-0.36-0.68-0.53s-0.44-0.34-0.67-0.53
						C273.21,69.25,272.96,69.05,272.67,68.83"/>
				</g>
			</g>
			<g class="st0">
				<defs>
					<path id="SVGID_19_" class="st0" d="M274.94,65.94l5.63,2.16c-0.21,0.27-0.4,0.51-0.58,0.74c-0.18,0.23-0.34,0.44-0.51,0.65
						c-0.16,0.21-0.33,0.42-0.5,0.64s-0.36,0.46-0.57,0.73l-5.73-2.03c0.22-0.28,0.41-0.53,0.6-0.77s0.36-0.45,0.53-0.67
						s0.35-0.44,0.53-0.68C274.52,66.48,274.72,66.23,274.94,65.94z"/>
				</defs>
				<clipPath id="SVGID_20_">
					<use xlink:href="#SVGID_19_"  style="overflow:visible;"/>
				</clipPath>
				<g class="st10">
					<path d="M274.94,65.94l5.63,2.16c-0.21,0.27-0.4,0.51-0.58,0.74c-0.18,0.23-0.34,0.44-0.51,0.65c-0.16,0.21-0.33,0.42-0.5,0.64
						s-0.36,0.46-0.57,0.73l-5.73-2.03c0.22-0.28,0.41-0.53,0.6-0.77s0.36-0.45,0.53-0.67s0.35-0.44,0.53-0.68
						C274.52,66.48,274.72,66.23,274.94,65.94"/>
				</g>
			</g>
			<g class="st0">
				<defs>
					<path id="SVGID_21_" class="st0" d="M271.14,56.24l5.79,2.59c0.27,0.21,0.51,0.4,0.73,0.57c0.23,0.18,0.44,0.34,0.65,0.51
						c0.21,0.16,0.42,0.33,0.65,0.51c0.23,0.18,0.46,0.36,0.73,0.57l-5.67-2.49c-0.28-0.22-0.53-0.42-0.77-0.6
						c-0.24-0.18-0.46-0.36-0.68-0.53c-0.22-0.17-0.44-0.34-0.68-0.53C271.67,56.65,271.42,56.46,271.14,56.24z"/>
				</defs>
				<clipPath id="SVGID_22_">
					<use xlink:href="#SVGID_21_"  style="overflow:visible;"/>
				</clipPath>
				<g class="st11">
					<path d="M271.14,56.24l5.79,2.59c0.27,0.21,0.51,0.4,0.73,0.57c0.23,0.18,0.44,0.34,0.65,0.51c0.21,0.16,0.42,0.33,0.65,0.51
						c0.23,0.18,0.46,0.36,0.73,0.57l-5.67-2.49c-0.28-0.22-0.53-0.42-0.77-0.6c-0.24-0.18-0.46-0.36-0.68-0.53
						c-0.22-0.17-0.44-0.34-0.68-0.53C271.67,56.65,271.42,56.46,271.14,56.24"/>
				</g>
			</g>
			<g>
				<path d="M271.14,56.24c0.28,0.22,0.53,0.42,0.77,0.6c0.24,0.18,0.46,0.36,0.68,0.53c0.22,0.17,0.44,0.34,0.68,0.53
					c0.24,0.18,0.49,0.38,0.77,0.6l0.91,7.45c-0.22,0.28-0.42,0.54-0.61,0.77c-0.19,0.24-0.36,0.46-0.53,0.68s-0.34,0.44-0.53,0.67
					s-0.38,0.48-0.6,0.77c0.28,0.22,0.53,0.42,0.77,0.6c0.23,0.18,0.45,0.36,0.67,0.53s0.44,0.34,0.68,0.53
					c0.24,0.18,0.49,0.38,0.77,0.6l1.23,10.01l-5.19,0.64l-1.23-10.04l-6.16,0.76l1.23,10.04l-5.2,0.64l-3.09-25.18L271.14,56.24z
					 M269.75,66.62l-0.61-4.97l-6.16,0.76l0.61,4.97L269.75,66.62"/>
			</g>
			<g>
				<polygon points="274.02,58.49 279.69,60.98 280.57,68.1 274.94,65.94 				"/>
			</g>
			<g>
				<polygon points="284.1,70.01 289.32,71.99 289.9,76.73 284.7,74.97 				"/>
			</g>
			<g>
				<polygon points="282.86,59.96 288.14,62.38 288.72,67.13 283.47,64.93 				"/>
			</g>
			<g>
				<polygon points="294.96,78.87 299.7,80.45 285.53,82.2 280.13,80.69 				"/>
			</g>
			<g>
				<polygon points="294.34,73.79 299.11,75.6 299.7,80.45 294.96,78.87 				"/>
			</g>
			<g>
				<polygon points="293.73,68.83 298.52,70.86 289.32,71.99 284.1,70.01 				"/>
			</g>
			<g>
				<polygon points="293.11,63.75 297.93,66 298.52,70.86 293.73,68.83 				"/>
			</g>
			<g>
				<polygon points="292.5,58.77 297.34,61.25 288.14,62.38 282.86,59.96 				"/>
			</g>
			<g>
				<polygon points="291.87,53.69 292.5,58.77 282.86,59.96 283.47,64.93 293.11,63.75 293.73,68.83 284.1,70.01 284.7,74.97 
					294.34,73.79 294.96,78.87 280.13,80.69 277.04,55.51 				"/>
			</g>
			<g>
				<polygon points="291.87,53.69 296.75,56.39 297.34,61.25 292.5,58.77 				"/>
			</g>
			<g>
				<polygon points="273.55,90.22 281.59,155.67 308.18,152.4 310.14,168.33 267.36,173.58 259.33,108.14 254.06,108.79 
					255.56,92.43 				"/>
			</g>
			<g>
				<polygon points="281.59,155.67 286.92,153.85 312.33,150.73 308.18,152.4 				"/>
			</g>
			<g>
				<polygon points="308.18,152.4 312.33,150.73 314.2,165.95 310.14,168.33 				"/>
			</g>
			<g>
				<polygon points="311.28,101.76 315.3,102.33 310.26,102.95 306.01,102.41 				"/>
			</g>
			<g>
				<polygon points="313.67,56.18 317.58,58.77 319.34,73.11 315.51,71.18 				"/>
			</g>
			<g>
				<polygon points="319.83,55.42 323.47,58.05 317.58,58.77 313.67,56.18 				"/>
			</g>
			<g>
				<polygon points="325.5,83.84 328.88,85.2 336.56,147.76 333.53,149.29 				"/>
			</g>
			<g>
				<polygon points="324.92,75.19 328.34,76.94 317.43,78.28 313.51,76.59 				"/>
			</g>
			<g class="st0">
				<defs>
					<path id="SVGID_23_" class="st0" d="M327.17,72.3l3.31,1.88c-0.21,0.27-0.4,0.51-0.57,0.74s-0.34,0.44-0.5,0.65
						c-0.16,0.21-0.33,0.42-0.5,0.64s-0.36,0.46-0.57,0.73l-3.41-1.75c0.22-0.28,0.41-0.53,0.6-0.77s0.35-0.45,0.53-0.67
						s0.34-0.44,0.53-0.68C326.76,72.83,326.95,72.58,327.17,72.3z"/>
				</defs>
				<clipPath id="SVGID_24_">
					<use xlink:href="#SVGID_23_"  style="overflow:visible;"/>
				</clipPath>
				<g class="st12">
					<path d="M327.17,72.3l3.31,1.88c-0.21,0.27-0.4,0.51-0.57,0.74s-0.34,0.44-0.5,0.65c-0.16,0.21-0.33,0.42-0.5,0.64
						s-0.36,0.46-0.57,0.73l-3.41-1.75c0.22-0.28,0.41-0.53,0.6-0.77s0.35-0.45,0.53-0.67s0.34-0.44,0.53-0.68
						C326.76,72.83,326.95,72.58,327.17,72.3"/>
				</g>
			</g>
			<g>
				<polygon points="324.71,52.26 328.13,55.03 330.48,74.18 327.17,72.3 				"/>
			</g>
			<g>
				<path d="M321.83,50.01c0.28,0.22,0.53,0.42,0.77,0.61c0.23,0.19,0.45,0.36,0.67,0.53c0.22,0.17,0.44,0.34,0.67,0.53
					c0.23,0.18,0.48,0.38,0.77,0.6l2.46,20.03c-0.22,0.28-0.41,0.53-0.6,0.77c-0.18,0.24-0.35,0.46-0.53,0.68s-0.34,0.44-0.53,0.67
					s-0.38,0.48-0.6,0.77l-11.41,1.4c-0.28-0.22-0.53-0.41-0.77-0.6c-0.24-0.18-0.46-0.35-0.68-0.53c-0.22-0.17-0.44-0.34-0.68-0.53
					c-0.24-0.18-0.49-0.38-0.77-0.6l-2.46-20.03c0.22-0.28,0.42-0.53,0.6-0.77c0.18-0.24,0.36-0.46,0.53-0.68
					c0.17-0.22,0.34-0.44,0.53-0.68c0.18-0.24,0.38-0.49,0.6-0.77L321.83,50.01z M321.67,70.43l-1.84-15.01l-6.16,0.76l1.84,15.01
					L321.67,70.43"/>
			</g>
			<g>
				<polygon points="336.03,73.82 338.95,75.63 334,76.24 330.85,74.46 				"/>
			</g>
			<g>
				<polygon points="334.12,58.26 337.13,60.76 338.95,75.63 336.03,73.82 				"/>
			</g>
			<g>
				<polygon points="333.81,48.53 336.83,51.47 343.71,65.71 341.02,63.44 				"/>
			</g>
			<g>
				<polygon points="347.39,72.43 349.8,74.3 344.02,75.01 341.33,73.17 				"/>
			</g>
			<g>
				<polygon points="344.29,47.25 347.39,72.43 341.33,73.17 334.12,58.26 336.03,73.82 330.85,74.46 327.75,49.28 333.81,48.53 
					341.02,63.44 339.11,47.88 				"/>
			</g>
			<g>
				<polygon points="344.29,47.25 346.85,50.23 349.8,74.3 347.39,72.43 				"/>
			</g>
			<g>
				<polygon points="360.14,146.02 361.99,144.64 363.86,159.86 362.1,161.95 				"/>
			</g>
			<g>
				<polygon points="333.53,149.29 336.56,147.76 361.99,144.64 360.14,146.02 				"/>
			</g>
			<g>
				<polygon points="325.5,83.84 333.53,149.29 360.14,146.02 362.1,161.95 319.32,167.2 311.28,101.76 306.01,102.41 307.51,86.05 
									"/>
			</g>
			<g>
				<polygon points="354.75,61.33 356.84,63.69 357.42,68.43 355.35,66.29 				"/>
			</g>
			<g>
				<polygon points="353.51,51.27 355.66,54.08 356.24,58.84 354.12,56.25 				"/>
			</g>
			<g>
				<polygon points="365.62,70.19 367.23,72.16 353.06,73.9 350.79,72.01 				"/>
			</g>
			<g>
				<polygon points="365,65.1 366.64,67.3 367.23,72.16 365.62,70.19 				"/>
			</g>
			<g>
				<polygon points="364.39,60.15 366.06,62.56 356.84,63.69 354.75,61.33 				"/>
			</g>
			<g>
				<polygon points="363.77,55.06 365.46,57.7 366.06,62.56 364.39,60.15 				"/>
			</g>
			<g>
				<polygon points="363.16,50.09 364.88,52.95 355.66,54.08 353.51,51.27 				"/>
			</g>
			<g>
				<polygon points="362.53,45 364.28,48.09 364.88,52.95 363.16,50.09 				"/>
			</g>
			<g>
				<polygon points="362.53,45 363.16,50.09 353.51,51.27 354.12,56.25 363.77,55.06 364.39,60.15 354.75,61.33 355.35,66.29 
					365,65.1 365.62,70.19 350.79,72.01 347.7,46.83 				"/>
			</g>
			<g>
				<polygon points="412.28,89.35 411.82,90.48 413.26,74.84 413.78,72.99 				"/>
			</g>
			<g>
				<polygon points="424.61,146.14 423.61,144.74 416.87,89.86 417.56,88.7 				"/>
			</g>
			<g>
				<polygon points="417.56,88.7 416.87,89.86 411.82,90.48 412.28,89.35 				"/>
			</g>
			<g>
				<polygon points="439.82,136.24 438.14,135.29 451.94,133.6 454.26,134.47 				"/>
			</g>
			<g>
				<polygon points="454.26,134.47 451.94,133.6 451.03,126.15 453.3,126.68 				"/>
			</g>
			<g>
				<polygon points="449.13,92.73 447.04,93.71 446.13,86.26 448.18,84.94 				"/>
			</g>
			<g>
				<polygon points="448.18,84.94 446.13,86.26 432.33,87.96 433.74,86.72 				"/>
			</g>
			<g>
				<polygon points="453.3,126.68 451.03,126.15 466.49,124.25 469.48,124.7 				"/>
			</g>
			<g>
				<polygon points="465.32,90.75 462.51,91.81 447.04,93.71 449.13,92.73 				"/>
			</g>
			<g>
				<path d="M454.38,68c0.88,0.69,1.66,1.3,2.4,1.87s1.42,1.11,2.11,1.65c0.69,0.54,1.37,1.07,2.11,1.65s1.52,1.19,2.4,1.87
					l1.93,15.7l-16.19,1.99l-0.96-7.79l-14.44,1.77l6.08,49.53l14.44-1.77l-0.96-7.79l16.18-1.99l1.93,15.7
					c-0.69,0.88-1.3,1.66-1.87,2.4c-0.57,0.73-1.11,1.42-1.65,2.1c-0.54,0.68-1.07,1.37-1.65,2.1c-0.57,0.73-1.18,1.52-1.87,2.4
					l-30.75,3.77c-0.88-0.69-1.66-1.3-2.4-1.87c-0.74-0.57-1.42-1.11-2.11-1.64c-0.69-0.54-1.37-1.07-2.11-1.64
					c-0.73-0.57-1.52-1.18-2.39-1.87l-7.05-57.43l-5.28,0.65l1.5-16.36L454.38,68z"/>
			</g>
			<g>
				<polygon points="149.95,203.11 161.11,199.2 474.05,160.8 477.39,162.94 				"/>
			</g>
			<g>
				<rect x="148.97" y="183.01" transform="matrix(0.9925 -0.1219 0.1219 0.9925 -20.2075 39.6356)" width="329.89" height="4"/>
			</g>
			<g>
				<polygon points="470.68,82.18 467.63,83.62 469.06,67.98 472.18,65.82 				"/>
			</g>
			<g>
				<polygon points="492.84,175.46 488.81,172.77 488.03,166.37 492.02,168.76 				"/>
			</g>
			<g class="st0">
				<defs>
					<path id="SVGID_25_" class="st0" d="M495.72,177.72l-4.16-2.79c-0.27-0.21-0.51-0.4-0.73-0.57c-0.22-0.18-0.43-0.34-0.64-0.5
						c-0.21-0.16-0.42-0.33-0.64-0.51c-0.22-0.18-0.46-0.36-0.73-0.58l4.03,2.69c0.28,0.22,0.53,0.42,0.77,0.6
						c0.23,0.18,0.45,0.36,0.67,0.53c0.22,0.17,0.44,0.34,0.67,0.53C495.19,177.31,495.44,177.5,495.72,177.72z"/>
				</defs>
				<clipPath id="SVGID_26_">
					<use xlink:href="#SVGID_25_"  style="overflow:visible;"/>
				</clipPath>
				<g class="st13">
					<path d="M495.72,177.72l-4.16-2.79c-0.27-0.21-0.51-0.4-0.73-0.57c-0.22-0.18-0.43-0.34-0.64-0.5
						c-0.21-0.16-0.42-0.33-0.64-0.51c-0.22-0.18-0.46-0.36-0.73-0.58l4.03,2.69c0.28,0.22,0.53,0.42,0.77,0.6
						c0.23,0.18,0.45,0.36,0.67,0.53c0.22,0.17,0.44,0.34,0.67,0.53C495.19,177.31,495.44,177.5,495.72,177.72"/>
				</g>
			</g>
			<g>
				<polygon points="485.98,80.3 482.26,81.83 467.63,83.62 470.68,82.18 				"/>
			</g>
			<g>
				<polygon points="494.02,145.76 489.94,144.39 482.26,81.83 485.98,80.3 				"/>
			</g>
			<g>
				<polygon points="492.02,168.76 488.03,166.37 492.99,165.76 497.21,168.12 				"/>
			</g>
			<g>
				<polygon points="497.72,172.31 493.48,169.75 497.73,169.23 502.17,171.76 				"/>
			</g>
			<g>
				<polygon points="502.17,171.76 497.73,169.23 495.37,150.03 499.71,151.67 				"/>
			</g>
			<g>
				<polygon points="512.04,173.1 507.16,170.51 504.81,151.36 509.58,153.06 				"/>
			</g>
			<g class="st0">
				<defs>
					<path id="SVGID_27_" class="st0" d="M514.92,175.36l-5.01-2.69c-0.27-0.21-0.51-0.4-0.73-0.57s-0.43-0.34-0.64-0.51
						s-0.42-0.33-0.64-0.51s-0.46-0.36-0.73-0.57l4.88,2.59c0.28,0.22,0.53,0.42,0.77,0.6c0.23,0.18,0.45,0.36,0.67,0.53
						s0.44,0.35,0.67,0.53C514.39,174.94,514.64,175.14,514.92,175.36z"/>
				</defs>
				<clipPath id="SVGID_28_">
					<use xlink:href="#SVGID_27_"  style="overflow:visible;"/>
				</clipPath>
				<g class="st14">
					<path d="M514.92,175.36l-5.01-2.69c-0.27-0.21-0.51-0.4-0.73-0.57s-0.43-0.34-0.64-0.51s-0.42-0.33-0.64-0.51
						s-0.46-0.36-0.73-0.57l4.88,2.59c0.28,0.22,0.53,0.42,0.77,0.6c0.23,0.18,0.45,0.36,0.67,0.53s0.44,0.35,0.67,0.53
						C514.39,174.94,514.64,175.14,514.92,175.36"/>
				</g>
			</g>
			<g class="st0">
				<defs>
					<path id="SVGID_29_" class="st0" d="M509.58,153.06l-4.77-1.7c0.21-0.27,0.4-0.51,0.57-0.73c0.18-0.23,0.34-0.44,0.5-0.65
						c0.16-0.21,0.33-0.42,0.5-0.65c0.18-0.23,0.36-0.46,0.57-0.73l4.87,1.57c-0.22,0.28-0.41,0.53-0.6,0.77
						c-0.18,0.24-0.35,0.46-0.53,0.68c-0.17,0.22-0.34,0.44-0.53,0.68C510,152.53,509.8,152.78,509.58,153.06z"/>
				</defs>
				<clipPath id="SVGID_30_">
					<use xlink:href="#SVGID_29_"  style="overflow:visible;"/>
				</clipPath>
				<g class="st15">
					<path d="M509.58,153.06l-4.77-1.7c0.21-0.27,0.4-0.51,0.57-0.73c0.18-0.23,0.34-0.44,0.5-0.65c0.16-0.21,0.33-0.42,0.5-0.65
						c0.18-0.23,0.36-0.46,0.57-0.73l4.87,1.57c-0.22,0.28-0.41,0.53-0.6,0.77c-0.18,0.24-0.35,0.46-0.53,0.68
						c-0.17,0.22-0.34,0.44-0.53,0.68C510,152.53,509.8,152.78,509.58,153.06"/>
				</g>
			</g>
			<g>
				<path d="M504.91,151.03l2.78,22.61c-0.22,0.28-0.42,0.53-0.6,0.77c-0.18,0.24-0.36,0.46-0.53,0.68
					c-0.17,0.22-0.35,0.44-0.53,0.67c-0.18,0.24-0.38,0.49-0.6,0.77l-9.7,1.19c-0.28-0.22-0.53-0.41-0.77-0.6
					c-0.23-0.18-0.45-0.36-0.67-0.53c-0.22-0.17-0.44-0.34-0.67-0.53c-0.23-0.18-0.49-0.38-0.77-0.6l-0.82-6.7l5.19-0.64l0.51,4.18
					l4.45-0.55l-2.47-20.09L504.91,151.03z"/>
			</g>
			<g>
				<polygon points="499.71,151.67 495.37,150.03 500.34,149.42 504.91,151.03 				"/>
			</g>
			<g>
				<polygon points="516.93,169.95 511.84,167.5 517.73,166.78 523.1,169.19 				"/>
			</g>
			<g>
				<polygon points="523.1,169.19 517.73,166.78 515.97,152.43 521.26,154.18 				"/>
			</g>
			<g>
				<polygon points="511.83,150.17 506.96,148.6 517.87,147.26 523.25,148.77 				"/>
			</g>
			<g>
				<polygon points="532.77,173.17 526.97,170.58 524.02,146.51 529.68,147.99 				"/>
			</g>
			<g>
				<path d="M523.25,148.77c0.28,0.22,0.54,0.42,0.77,0.6c0.24,0.18,0.46,0.36,0.68,0.53c0.22,0.17,0.44,0.34,0.67,0.53
					c0.23,0.18,0.49,0.38,0.77,0.6l2.46,20.04c-0.22,0.28-0.42,0.53-0.6,0.77c-0.18,0.24-0.36,0.46-0.53,0.68
					c-0.17,0.22-0.34,0.44-0.53,0.68c-0.18,0.24-0.38,0.49-0.6,0.77l-11.42,1.4c-0.28-0.22-0.53-0.42-0.77-0.6
					c-0.23-0.18-0.45-0.36-0.67-0.53s-0.44-0.35-0.67-0.53c-0.23-0.18-0.49-0.38-0.77-0.6l-2.46-20.04c0.22-0.28,0.41-0.53,0.6-0.77
					c0.18-0.24,0.35-0.46,0.53-0.68c0.17-0.22,0.34-0.44,0.53-0.68c0.18-0.24,0.38-0.49,0.6-0.77L523.25,148.77z M523.1,169.19
					l-1.84-15.01l-6.17,0.76l1.84,15.01L523.1,169.19"/>
			</g>
			<g>
				<polygon points="517.5,76.43 512.38,78.13 497.72,79.93 502.16,78.31 				"/>
			</g>
			<g>
				<polygon points="515.54,60.49 517.5,76.43 502.16,78.31 510.2,143.78 494.02,145.76 485.98,80.3 470.68,82.18 472.18,65.82 				
					"/>
			</g>
			<g>
				<polygon points="552.55,160.97 545.88,158.92 544.05,144.05 550.64,145.41 				"/>
			</g>
			<g>
				<polygon points="552.86,170.7 546.17,168.22 539.27,153.97 545.64,155.79 				"/>
			</g>
			<g>
				<polygon points="542.36,171.99 536.13,169.45 533.18,145.38 539.27,146.8 				"/>
			</g>
			<g>
				<rect x="531.2" y="147.58" transform="matrix(0.9925 -0.1219 0.1219 0.9925 -15.5517 66.2507)" width="5.23" height="25.37"/>
			</g>
			<g>
				<polygon points="529.68,147.99 524.02,146.51 528.98,145.9 534.87,147.35 				"/>
			</g>
			<g>
				<polygon points="524.98,75.51 519.53,77.25 520.96,61.61 526.48,59.15 				"/>
			</g>
			<g>
				<polygon points="538.29,140.33 532.25,139.19 524.56,76.63 530.25,74.86 				"/>
			</g>
			<g>
				<polygon points="530.25,74.86 524.56,76.63 519.53,77.25 524.98,75.51 				"/>
			</g>
			<g>
				<polygon points="539.27,146.8 533.18,145.38 538.97,144.67 545.32,146.06 				"/>
			</g>
			<g>
				<polygon points="552.78,72.1 546.1,73.98 547.53,58.34 554.28,55.73 				"/>
			</g>
			<g>
				<polygon points="558.05,71.45 551.13,73.37 546.1,73.98 552.78,72.1 				"/>
			</g>
			<g>
				<polygon points="544.48,56.94 554.47,138.34 538.29,140.33 530.25,74.86 524.98,75.51 526.48,59.15 				"/>
			</g>
			<g>
				<polygon points="555.83,144.77 558.92,169.96 552.86,170.7 545.64,155.79 547.55,171.35 542.36,171.99 539.27,146.8 
					545.32,146.06 552.55,160.97 550.64,145.41 				"/>
			</g>
			<g>
				<polygon points="550.64,145.41 544.05,144.05 549.01,143.44 555.83,144.77 				"/>
			</g>
			<g>
				<polygon points="569.47,128.96 562.04,128.32 551.13,73.37 558.05,71.45 				"/>
			</g>
			<g>
				<polygon points="585.1,156.98 576.99,155.1 575.16,140.23 583.19,141.41 				"/>
			</g>
			<g>
				<polygon points="585.42,166.71 577.29,164.4 570.39,150.15 578.21,151.79 				"/>
			</g>
			<g>
				<polygon points="574.93,168 567.26,165.63 564.3,141.56 571.83,142.81 				"/>
			</g>
			<g>
				<polygon points="571.83,142.81 564.3,141.56 570.09,140.85 577.88,142.06 				"/>
			</g>
			<g class="st0">
				<defs>
					<path id="SVGID_31_" class="st0" d="M578.39,135.41l-7.82-0.92c-0.82-0.59-1.56-1.13-2.25-1.63c-0.7-0.5-1.35-0.98-2.01-1.45
						c-0.66-0.47-1.31-0.95-2.01-1.45c-0.7-0.5-1.44-1.04-2.26-1.63l7.43,0.63c0.86,0.62,1.63,1.18,2.36,1.71
						c0.73,0.53,1.42,1.02,2.1,1.52c0.69,0.5,1.37,0.99,2.1,1.52C576.76,134.23,577.53,134.79,578.39,135.41z"/>
				</defs>
				<clipPath id="SVGID_32_">
					<use xlink:href="#SVGID_31_"  style="overflow:visible;"/>
				</clipPath>
				<g class="st16">
					<path d="M578.39,135.41l-7.82-0.92c-0.82-0.59-1.56-1.13-2.25-1.63c-0.7-0.5-1.35-0.98-2.01-1.45
						c-0.66-0.47-1.31-0.95-2.01-1.45c-0.7-0.5-1.44-1.04-2.26-1.63l7.43,0.63c0.86,0.62,1.63,1.18,2.36,1.71
						c0.73,0.53,1.42,1.02,2.1,1.52c0.69,0.5,1.37,0.99,2.1,1.52C576.76,134.23,577.53,134.79,578.39,135.41"/>
				</g>
			</g>
			<g>
				<polygon points="599.45,159.83 590.7,157.83 596.59,157.1 605.62,159.07 				"/>
			</g>
			<g>
				<polygon points="594.56,162.98 586.02,160.84 583.67,141.68 592.1,142.93 				"/>
			</g>
			<g class="st0">
				<defs>
					<path id="SVGID_33_" class="st0" d="M597.45,165.23l-8.67-2.24c-0.27-0.21-0.51-0.4-0.74-0.57c-0.23-0.18-0.44-0.34-0.65-0.51
						c-0.21-0.16-0.42-0.33-0.65-0.51c-0.22-0.18-0.46-0.36-0.73-0.57l8.54,2.14c0.28,0.22,0.53,0.42,0.77,0.6
						c0.24,0.18,0.46,0.36,0.68,0.53c0.22,0.17,0.44,0.35,0.68,0.53S597.17,165.01,597.45,165.23z"/>
				</defs>
				<clipPath id="SVGID_34_">
					<use xlink:href="#SVGID_33_"  style="overflow:visible;"/>
				</clipPath>
				<g class="st17">
					<path d="M597.45,165.23l-8.67-2.24c-0.27-0.21-0.51-0.4-0.74-0.57c-0.23-0.18-0.44-0.34-0.65-0.51
						c-0.21-0.16-0.42-0.33-0.65-0.51c-0.22-0.18-0.46-0.36-0.73-0.57l8.54,2.14c0.28,0.22,0.53,0.42,0.77,0.6
						c0.24,0.18,0.46,0.36,0.68,0.53c0.22,0.17,0.44,0.35,0.68,0.53S597.17,165.01,597.45,165.23"/>
				</g>
			</g>
			<g class="st0">
				<defs>
					<path id="SVGID_35_" class="st0" d="M592.1,142.93l-8.43-1.25c0.21-0.27,0.4-0.51,0.57-0.73c0.18-0.23,0.34-0.44,0.5-0.65
						c0.16-0.21,0.33-0.42,0.51-0.65s0.36-0.47,0.58-0.73l8.53,1.12c-0.22,0.28-0.42,0.53-0.6,0.77s-0.36,0.46-0.53,0.68
						s-0.34,0.44-0.53,0.68C592.51,142.4,592.32,142.65,592.1,142.93z"/>
				</defs>
				<clipPath id="SVGID_36_">
					<use xlink:href="#SVGID_35_"  style="overflow:visible;"/>
				</clipPath>
				<g class="st18">
					<path d="M592.1,142.93l-8.43-1.25c0.21-0.27,0.4-0.51,0.57-0.73c0.18-0.23,0.34-0.44,0.5-0.65c0.16-0.21,0.33-0.42,0.51-0.65
						s0.36-0.47,0.58-0.73l8.53,1.12c-0.22,0.28-0.42,0.53-0.6,0.77s-0.36,0.46-0.53,0.68s-0.34,0.44-0.53,0.68
						C592.51,142.4,592.32,142.65,592.1,142.93"/>
				</g>
			</g>
			<g>
				<polygon points="588.39,140.78 591.48,165.97 585.42,166.71 578.21,151.79 580.12,167.36 574.93,168 571.83,142.81 
					577.88,142.06 585.1,156.98 583.19,141.41 				"/>
			</g>
			<g>
				<polygon points="583.19,141.41 575.16,140.23 580.12,139.62 588.39,140.78 				"/>
			</g>
			<g>
				<polygon points="584,118.55 575.93,118.38 580.47,117.82 588.75,117.96 				"/>
			</g>
			<g>
				<polygon points="588.75,117.96 580.47,117.82 577.42,54.67 585.56,51.89 				"/>
			</g>
			<g>
				<polygon points="605.62,159.07 596.59,157.1 594.83,142.76 603.78,144.06 				"/>
			</g>
			<g>
				<polygon points="636.17,155.32 625.78,153.52 627.76,153.28 638.23,155.07 				"/>
			</g>
			<g>
				<polygon points="638.23,155.07 627.76,153.28 627.36,133.83 637.82,134.72 				"/>
			</g>
			<g>
				<polygon points="631.58,158.71 621.4,156.76 618.43,143.73 628.47,145.07 				"/>
			</g>
			<g class="st0">
				<defs>
					<path id="SVGID_37_" class="st0" d="M634.41,160.71l-10.3-2.04c-0.26-0.18-0.5-0.35-0.72-0.5s-0.43-0.3-0.64-0.45
						c-0.21-0.15-0.42-0.3-0.64-0.45c-0.22-0.16-0.45-0.32-0.71-0.5l10.18,1.95c0.27,0.19,0.51,0.36,0.75,0.53
						c0.23,0.16,0.45,0.32,0.67,0.47c0.22,0.15,0.44,0.31,0.67,0.47C633.9,160.34,634.14,160.52,634.41,160.71z"/>
				</defs>
				<clipPath id="SVGID_38_">
					<use xlink:href="#SVGID_37_"  style="overflow:visible;"/>
				</clipPath>
				<g class="st19">
					<path d="M634.41,160.71l-10.3-2.04c-0.26-0.18-0.5-0.35-0.72-0.5s-0.43-0.3-0.64-0.45c-0.21-0.15-0.42-0.3-0.64-0.45
						c-0.22-0.16-0.45-0.32-0.71-0.5l10.18,1.95c0.27,0.19,0.51,0.36,0.75,0.53c0.23,0.16,0.45,0.32,0.67,0.47
						c0.22,0.15,0.44,0.31,0.67,0.47C633.9,160.34,634.14,160.52,634.41,160.71"/>
				</g>
			</g>
			<g>
				<polygon points="621.45,157.13 611.72,155.25 613.7,155 623.52,156.87 				"/>
			</g>
			<g>
				<polygon points="623.52,156.87 613.7,155 613.37,138.54 623.17,139.65 				"/>
			</g>
			<g>
				<polygon points="616.88,160.51 607.35,158.48 602.44,136.89 611.73,137.92 				"/>
			</g>
			<g>
				<polygon points="594.36,140.04 585.83,138.92 596.74,137.58 605.77,138.64 				"/>
			</g>
			<g class="st0">
				<defs>
					<path id="SVGID_39_" class="st0" d="M619.72,162.51l-9.65-2.12c-0.26-0.18-0.49-0.35-0.72-0.5c-0.22-0.16-0.43-0.3-0.64-0.45
						c-0.21-0.15-0.42-0.3-0.64-0.45c-0.22-0.16-0.46-0.32-0.72-0.5l9.53,2.03c0.27,0.19,0.52,0.36,0.75,0.53s0.45,0.32,0.67,0.47
						c0.22,0.15,0.44,0.31,0.67,0.47S619.45,162.32,619.72,162.51z"/>
				</defs>
				<clipPath id="SVGID_40_">
					<use xlink:href="#SVGID_39_"  style="overflow:visible;"/>
				</clipPath>
				<g class="st20">
					<path d="M619.72,162.51l-9.65-2.12c-0.26-0.18-0.49-0.35-0.72-0.5c-0.22-0.16-0.43-0.3-0.64-0.45
						c-0.21-0.15-0.42-0.3-0.64-0.45c-0.22-0.16-0.46-0.32-0.72-0.5l9.53,2.03c0.27,0.19,0.52,0.36,0.75,0.53s0.45,0.32,0.67,0.47
						c0.22,0.15,0.44,0.31,0.67,0.47S619.45,162.32,619.72,162.51"/>
				</g>
			</g>
			<g>
				<path d="M605.77,138.64c0.29,0.22,0.54,0.42,0.78,0.6c0.24,0.18,0.46,0.36,0.68,0.53c0.22,0.17,0.44,0.34,0.67,0.53
					c0.23,0.18,0.48,0.38,0.77,0.6l2.46,20.04c-0.22,0.28-0.42,0.53-0.6,0.77s-0.36,0.46-0.53,0.68s-0.34,0.44-0.53,0.68
					c-0.18,0.24-0.38,0.49-0.6,0.77l-11.41,1.4c-0.28-0.22-0.54-0.42-0.77-0.6s-0.46-0.36-0.68-0.53c-0.22-0.17-0.44-0.35-0.68-0.53
					c-0.24-0.18-0.49-0.38-0.77-0.6l-2.46-20.04c0.22-0.28,0.41-0.53,0.6-0.77c0.18-0.24,0.36-0.46,0.53-0.68s0.34-0.44,0.53-0.68
					s0.38-0.49,0.6-0.77L605.77,138.64z M605.62,159.07l-1.84-15.01l-6.17,0.76l1.84,15.01L605.62,159.07"/>
			</g>
			<g>
				<polygon points="610.02,65.07 600.8,67.27 602.24,51.62 611.53,48.7 				"/>
			</g>
			<g>
				<polygon points="615.3,64.42 605.84,66.65 600.8,67.27 610.02,65.07 				"/>
			</g>
			<g>
				<path d="M601.74,49.9l3.61,74.65c-0.68,0.81-1.3,1.54-1.88,2.23c-0.58,0.69-1.13,1.34-1.67,1.98c-0.55,0.65-1.09,1.29-1.67,1.98
					c-0.58,0.69-1.19,1.42-1.88,2.23l-8.72,1.07l-2.4,0.3l-8.73,1.07c-0.86-0.62-1.63-1.18-2.36-1.71c-0.73-0.53-1.41-1.02-2.1-1.52
					c-0.69-0.5-1.37-0.99-2.1-1.52c-0.73-0.53-1.5-1.09-2.36-1.71l-11.42-57.51l-5.27,0.65l1.5-16.37l16.82-2.07L584,118.55
					l4.76-0.58l-3.2-66.08L601.74,49.9z"/>
			</g>
			<g class="st0">
				<defs>
					<path id="SVGID_41_" class="st0" d="M623.17,139.65l-9.81-1.11c0.27-0.32,0.52-0.61,0.76-0.89c0.24-0.27,0.46-0.53,0.68-0.79
						s0.45-0.52,0.68-0.79c0.24-0.27,0.49-0.56,0.77-0.88l9.94,0.95c-0.29,0.33-0.55,0.63-0.8,0.92c-0.25,0.29-0.48,0.56-0.72,0.83
						c-0.23,0.27-0.47,0.54-0.71,0.83C623.72,139.01,623.46,139.31,623.17,139.65z"/>
				</defs>
				<clipPath id="SVGID_42_">
					<use xlink:href="#SVGID_41_"  style="overflow:visible;"/>
				</clipPath>
				<g class="st21">
					<path d="M623.17,139.65l-9.81-1.11c0.27-0.32,0.52-0.61,0.76-0.89c0.24-0.27,0.46-0.53,0.68-0.79s0.45-0.52,0.68-0.79
						c0.24-0.27,0.49-0.56,0.77-0.88l9.94,0.95c-0.29,0.33-0.55,0.63-0.8,0.92c-0.25,0.29-0.48,0.56-0.72,0.83
						c-0.23,0.27-0.47,0.54-0.71,0.83C623.72,139.01,623.46,139.31,623.17,139.65"/>
				</g>
			</g>
			<g>
				<polygon points="611.73,137.92 602.44,136.89 607.4,136.28 616.93,137.28 				"/>
			</g>
			<g>
				<polygon points="623.33,129.89 613.52,129.22 605.84,66.65 615.3,64.42 				"/>
			</g>
			<g>
				<polygon points="626.2,136.15 616.26,135.19 618.51,134.92 628.55,135.86 				"/>
			</g>
			<g>
				<path d="M642.99,134.09l0.48,23.16c-0.22,0.25-0.41,0.48-0.6,0.69c-0.19,0.21-0.36,0.42-0.54,0.62
					c-0.18,0.2-0.35,0.41-0.54,0.62c-0.19,0.22-0.38,0.44-0.6,0.69l-6.78,0.83c-0.27-0.19-0.52-0.36-0.75-0.53
					c-0.23-0.16-0.45-0.32-0.67-0.47c-0.22-0.15-0.44-0.31-0.67-0.47c-0.23-0.16-0.48-0.34-0.75-0.53l-3.11-13.63l0.28,13.98
					c-0.22,0.25-0.41,0.48-0.6,0.69c-0.19,0.21-0.36,0.42-0.54,0.62s-0.35,0.41-0.53,0.62c-0.18,0.21-0.38,0.44-0.59,0.69
					l-6.78,0.83c-0.27-0.19-0.52-0.36-0.75-0.53s-0.45-0.32-0.67-0.47c-0.22-0.15-0.44-0.31-0.67-0.47s-0.48-0.34-0.75-0.53
					l-5.14-22.59l5.19-0.64l4.52,19.84l2.06-0.25l-0.35-17.23c0.29-0.34,0.55-0.64,0.79-0.93c0.25-0.29,0.48-0.56,0.71-0.83
					c0.23-0.27,0.47-0.54,0.72-0.83c0.25-0.29,0.51-0.59,0.8-0.92l2.35-0.29c0.36,0.25,0.69,0.48,1,0.7
					c0.31,0.22,0.6,0.42,0.89,0.63s0.58,0.41,0.89,0.63c0.31,0.22,0.64,0.45,1,0.71l3.83,16.8l2.07-0.25l-0.41-20.35L642.99,134.09z
					"/>
			</g>
			<g>
				<polygon points="637.82,134.72 627.36,133.83 632.3,133.23 642.99,134.09 				"/>
			</g>
			<g>
				<polygon points="637.58,111.97 627.13,112.09 652.58,108.97 664.21,108.7 				"/>
			</g>
			<g>
				<polygon points="658.13,59.16 646.77,61.62 621.32,64.75 631.49,62.43 				"/>
			</g>
			<g>
				<polygon points="656.17,43.21 658.13,59.16 631.49,62.43 633.56,79.23 660.19,75.96 662.15,91.89 635.51,95.16 637.58,111.97 
					664.21,108.7 666.17,124.64 623.33,129.89 615.3,64.42 610.02,65.07 611.53,48.7 629.54,46.49 				"/>
			</g>
			<g>
				<polygon points="653.68,22.37 642.52,26.47 383.46,58.3 382.6,55.69 				"/>
			</g>
			<g>
				<rect x="381.34" y="35.05" transform="matrix(0.9925 -0.1219 0.1219 0.9925 -0.6545 63.3922)" width="273.12" height="4"/>
			</g>
		</g>
		<g class="st0">
			<g>
				<polygon points="363.25,95.38 364.96,96.23 359.93,96.85 357.98,96.02 				"/>
			</g>
			<g>
				<polygon points="383.44,126.11 384.26,125.6 386.24,141.66 385.51,142.91 				"/>
			</g>
			<g>
				<polygon points="379.43,93.39 380.42,94.33 382.39,110.38 381.49,110.18 				"/>
			</g>
			<g>
				<polygon points="385.51,142.91 386.24,141.66 411.66,138.54 412.11,139.65 				"/>
			</g>
			<g>
				<polygon points="406.03,90.12 405.85,91.21 380.42,94.33 379.43,93.39 				"/>
			</g>
			<g>
				<polygon points="404.07,74.18 406.03,90.12 379.43,93.39 381.49,110.18 408.09,106.92 410.05,122.84 383.44,126.11 
					385.51,142.91 412.11,139.65 414.06,155.57 371.29,160.82 363.25,95.38 357.98,96.02 359.48,79.66 377.47,77.45 				"/>
			</g>
		</g>
	</g>
</g>
</svg>
