<?xml version="1.0" encoding="utf-8"?>
<!-- Generator: Adobe Illustrator 23.0.1, SVG Export Plug-In . SVG Version: 6.00 Build 0)  -->
<svg version="1.1" id="Layer_1" xmlns="http://www.w3.org/2000/svg" xmlns:xlink="http://www.w3.org/1999/xlink" x="0px" y="0px"
	 viewBox="0 0 800 250" style="enable-background:new 0 0 800 250;" xml:space="preserve">
<g>
	<g>
		<path d="M26.71,166.53V82.45l11.38-14.64h62.41v27.17l-12.3,14.64l-13.79,4.92h26.08v38.38l-11.44,13.61H26.71z M39.12,151.89
			h60.23v-36.32H74.41v14.07H64.06V90.06h10.35v12.98l24.94-9.15V68.95H39.12V151.89z"/>
		<path d="M107.99,166.53V82.45l11.38-14.64h62.41v85.11l-11.44,13.61H107.99z M120.4,151.89h60.23V68.95H120.4V151.89z
			 M145.34,129.18V90.06h10.35v39.13H145.34z"/>
		<path d="M190.47,166.53V82.45l11.38-14.64h27.17v61.26h27.63v23.85l-11.38,13.61H190.47z M202.89,151.89h52.74v-21.68h-27.8V68.95
			h-24.94V151.89z"/>
		<path d="M263.12,166.53V82.45l11.38-14.64h27.17v61.26h27.63v23.85l-11.38,13.61H263.12z M275.53,151.89h52.74v-21.68h-27.8V68.95
			h-24.94V151.89z"/>
		<path d="M335.76,166.53V82.45l11.38-14.64h55.26v23.85l-11.33,13.61h-4.35v12.99l-8.69,10.81h24.37v23.85l-11.33,13.61H335.76z
			 M348.18,151.89h53.2v-21.68h-28.26v-12.98h12.53v-13.61h-12.53V90.63h28.26V68.95h-53.2V151.89z"/>
		<path d="M410.64,166.53V82.45l11.38-14.64h62.41v27.17l-12.3,14.64l-13.79,4.92h26.08v38.38l-11.44,13.61H410.64z M423.05,151.89
			h60.23v-36.32h-24.94v14.07h-10.35V90.06h10.35v12.98l24.94-9.15V68.95h-60.23V151.89z"/>
		<path d="M505.99,166.53v-61.26h-17.33V82.45l12.53-14.64h61.26v22.25l-11.38,15.21h-4.92v47.65l-11.33,13.61H505.99z
			 M520.18,151.89h24.94V90.06h16.25V68.95h-59.15v21.11h17.96V151.89z"/>
		<path d="M568.86,166.53V82.45l11.38-14.64h27.17v85.11l-11.33,13.61H568.86z M581.44,151.89h24.94V68.95h-24.94V151.89z"/>
		<path d="M617.13,166.53V82.45l11.38-14.64h27.17v11.9l8.07-11.9h27.17v55.83l-21.45,29.17l-11.67,13.73H617.13z M629.55,151.89
			h39.24l20.99-28.71V68.95h-24.94v48.74l-10.35,15.79V68.95h-24.94V151.89z"/>
		<path d="M698.42,166.53V82.45l11.38-14.64h55.26v23.85l-11.33,13.61h-4.35v12.99l-8.69,10.81h24.37v23.85l-11.33,13.61H698.42z
			 M710.83,151.89h53.2v-21.68h-28.26v-12.98h12.53v-13.61h-12.53V90.63h28.26V68.95h-53.2V151.89z"/>
	</g>
	<g>
		<path d="M399.17,229.52v-19.78l5.9-7.63h11.05v-16.38l5.6-7.63h14.42v33.06l-15.25,18.35H399.17z M405.64,221.89h20.73l9.2-10.93
			V178.7h-13.28v26.54l-4.23,5.36v-7.86h-12.42V221.89z"/>
		<path d="M440.1,229.52v-43.78l5.93-7.63h32.5v44.32l-5.96,7.09H440.1z M446.56,221.89h31.36V178.7h-31.36V221.89z M459.55,210.07
			v-20.37h5.39v20.37H459.55z"/>
		<path d="M483.58,229.52v-43.78l5.93-7.63h14.15v44.32l-5.9,7.09H483.58z M490.14,221.89h12.99V178.7h-12.99V221.89z"/>
		<path d="M508.72,229.52v-43.78l5.93-7.63h10.48l4.08,7.63l5.81-7.63h14.09v44.32l-5.93,7.09H527.4v-5.66l-4.83,5.66H508.72z
			 M515.19,221.89h12.99v-21.71l7.39,12.93v8.79h12.99V178.7h-12.99v20.31l-11.05-20.31h-9.32V221.89z"/>
		<path d="M575.08,229.52v-43.78l5.93-7.63h10.48l4.08,7.63l5.81-7.63h14.09v44.32l-5.93,7.09h-15.79v-5.66l-4.83,5.66H575.08z
			 M581.55,221.89h12.99v-21.71l7.39,12.93v8.79h12.99V178.7h-12.99v20.31l-11.05-20.31h-9.32V221.89z"/>
		<path d="M619.97,229.52v-43.78l5.93-7.63h32.5v44.32l-5.96,7.09H619.97z M626.43,221.89h31.36V178.7h-31.36V221.89z
			 M639.42,210.07v-20.37h5.39v20.37H639.42z"/>
		<path d="M662.92,229.52v-43.78l5.93-7.63H683v29.7l6.22-7.03l1.94,3.66v-18.71l6.79-7.63h14.15v28.24l-17.51,23.17h-5.12
			l-5.42-10.42l-8.07,10.42H662.92z M669.38,221.89h11.71l7.21-9.32l5.12,9.32h6.11l11.94-15.85V178.7h-13.22v25.32l-4.83,5.78
			l-4.38-7.86l-6.67,7.39V178.7h-12.99V221.89z"/>
	</g>
	<g>
		<path d="M60.71,51.53V21.6l4.05-5.21h9.67v20.31l4.26-4.81l1.32,2.5V21.6l4.64-5.21h9.67v19.31L82.36,51.53h-3.5l-3.71-7.13
			l-5.52,7.13H60.71z M65.13,46.32h8l4.93-6.37l3.5,6.37h4.18l8.17-10.83v-18.7h-9.04V34.1l-3.3,3.95l-2.99-5.38l-4.56,5.05V16.79
			h-8.88V46.32z"/>
		<path d="M97,51.53V21.6l4.05-5.21h19.67v8.49l-4.03,4.85h-1.55v4.62l-3.1,3.85h8.68v8.49l-4.03,4.85H97z M101.42,46.32h18.94V38.6
			H110.3v-4.62h4.46v-4.85h-4.46v-4.62h10.06v-7.72h-18.94V46.32z"/>
		<path d="M137.98,51.53V32.35l6.82-10.75l4.34-5.21h15.07v30.3l-4.05,4.85h-9.63v-3.87l-3.3,3.87H137.98z M142.4,46.32h8.88V34.14
			h3.67v12.18h8.88V16.79h-14.26l-7.17,11.18V46.32z M154.94,29.33h-4.26l4.26-6.25V29.33z"/>
		<path d="M167.28,51.53V21.6l4.05-5.21h22.22v17.17l-2.71,2.71l2.71,2.14v8.29l-4.07,4.85h-9.65v-3.87l-3.28,3.87H167.28z
			 M171.7,46.32h8.88V34.34l3.69,2.89v9.08h8.88V38.6l-6.56-5.21h6.56v-16.6H171.7V46.32z M180.58,28.76V24.3h3.69v4.46H180.58z"/>
		<path d="M196.22,51.53V21.6l4.05-5.21h19.67v8.49l-4.03,4.85h-1.55v4.62l-3.1,3.85h8.68v8.49l-4.03,4.85H196.22z M200.64,46.32
			h18.94V38.6h-10.06v-4.62h4.46v-4.85h-4.46v-4.62h10.06v-7.72h-18.94V46.32z"/>
		<path d="M237.57,51.53V21.6l4.05-5.21h22.22v30.3l-4.07,4.85H237.57z M241.99,46.32h21.45V16.79h-21.45V46.32z M250.86,38.23V24.3
			h3.69v13.93H250.86z"/>
		<path d="M266.93,51.53V21.6l4.05-5.21h7.17l2.79,5.21l3.97-5.21h9.63v30.3l-4.05,4.85H279.7v-3.87l-3.3,3.87H266.93z
			 M271.35,46.32h8.88V31.47l5.05,8.84v6.01h8.88V16.79h-8.88v13.89l-7.56-13.89h-6.37V46.32z"/>
		<path d="M297.62,51.53V21.6l4.05-5.21h19.67v8.49l-4.03,4.85h-1.55v4.62l-3.1,3.85h8.68v8.49l-4.03,4.85H297.62z M302.04,46.32
			h18.94V38.6h-10.06v-4.62h4.46v-4.85h-4.46v-4.62h10.06v-7.72h-18.94V46.32z"/>
	</g>
</g>
<g>
</g>
<g>
</g>
<g>
</g>
<g>
</g>
<g>
</g>
<g>
</g>
<g>
</g>
<g>
</g>
<g>
</g>
<g>
</g>
<g>
</g>
<g>
</g>
<g>
</g>
<g>
</g>
<g>
</g>
</svg>
